<?xml version="1.0" encoding="UTF-8"?>
<svg version="1.1" xmlns="http://www.w3.org/2000/svg" width="225" height="225">
<path d="M0 0 C74.25 0 148.5 0 225 0 C225 74.25 225 148.5 225 225 C150.75 225 76.5 225 0 225 C0 150.75 0 76.5 0 0 Z " fill="#7A7572" transform="translate(0,0)"/>
<path d="M0 0 C74.25 0 148.5 0 225 0 C225 34.98 225 69.96 225 106 C208.5 106 192 106 175 106 C175 105.34 175 104.68 175 104 C174.09910645 104.03029297 173.19821289 104.06058594 172.27001953 104.09179688 C167.88853723 104.23489264 163.506895 104.37021769 159.125 104.5 C158.3163147 104.52400879 157.50762939 104.54801758 156.67443848 104.57275391 C140.83061173 105.02949608 124.99818003 105.07050665 109.14892578 104.96289062 C108.27618011 104.95866089 107.40343445 104.95443115 106.50424194 104.95007324 C104.86002864 104.9418692 103.21582939 104.92945088 101.57168579 104.91223145 C99.71424571 104.90384466 97.85668506 104.94638507 96 105 C95.67 105.33 95.34 105.66 95 106 C133.115 106.495 133.115 106.495 172 107 C172 107.33 172 107.66 172 108 C166.06 108.495 166.06 108.495 160 109 C159.67 109.99 159.34 110.98 159 112 C155.54210946 112.19635974 152.08367803 112.38058252 148.625 112.5625 C147.64015625 112.61857422 146.6553125 112.67464844 145.640625 112.73242188 C144.22910156 112.80493164 144.22910156 112.80493164 142.7890625 112.87890625 C141.48509521 112.94960327 141.48509521 112.94960327 140.15478516 113.02172852 C138 113 138 113 136 112 C136 111.34 136 110.68 136 110 C134.31342285 110.10828125 134.31342285 110.10828125 132.59277344 110.21875 C121.31461449 110.87852186 110.05998293 111.08679707 98.765625 111.0625 C97.70245811 111.06033981 97.70245811 111.06033981 96.61781311 111.05813599 C91.49517471 111.04590278 86.37259577 111.02378373 81.25 111 C76.05633745 110.97630056 70.86270242 110.95606506 65.66899872 110.94406128 C63.60759936 110.93759249 61.54629294 110.92511185 59.48492432 110.91235352 C58.2514325 110.90905029 57.01794067 110.90574707 55.74707031 110.90234375 C54.65791321 110.89710693 53.5687561 110.89187012 52.44659424 110.88647461 C50.05319521 110.72228103 50.05319521 110.72228103 49 112 C32.83 112 16.66 112 0 112 C0 75.04 0 38.08 0 0 Z M113 111 C115 112 115 112 115 112 Z " fill="#71706A" transform="translate(0,0)"/>
<path d="M0 0 C0.73511307 0.00359528 1.47022614 0.00719055 2.22761536 0.01089478 C2.99829346 0.01074875 3.76897156 0.01060272 4.56300354 0.01045227 C7.12237823 0.01115157 9.68168104 0.01894471 12.24104309 0.02676392 C14.01081299 0.02862804 15.7805834 0.03005197 17.550354 0.03105164 C22.2176505 0.03487728 26.88491607 0.04470796 31.55220032 0.05575562 C36.31110719 0.06596873 41.07001905 0.07054904 45.82893372 0.07559204 C55.17334837 0.08633019 64.51774004 0.10340717 73.86213684 0.12442017 C73.86213684 0.78442017 73.86213684 1.44442017 73.86213684 2.12442017 C90.36213684 2.12442017 106.86213684 2.12442017 123.86213684 2.12442017 C123.86213684 16.97442017 123.86213684 31.82442017 123.86213684 47.12442017 C113.36222953 47.30590005 102.86251765 47.47588217 92.36213684 47.62442017 C91.52334614 47.63629742 90.68455544 47.64817467 89.82034683 47.66041183 C48.48140961 48.23630716 7.14159564 48.20877883 -34.20036316 48.18692017 C-35.0262154 48.18649593 -35.85206764 48.1860717 -36.70294571 48.18563461 C-58.18126469 48.17441697 -79.65956017 48.15298232 -101.13786316 48.12442017 C-101.13786316 34.92442017 -101.13786316 21.72442017 -101.13786316 8.12442017 C-97.61227722 8.06383423 -94.08669128 8.00324829 -90.45426941 7.94082642 C-87.05540195 7.87909224 -83.65656965 7.81568169 -80.25773621 7.75210571 C-77.88797608 7.70868207 -75.51818316 7.66701267 -73.14836121 7.62710571 C-69.75022983 7.56958249 -66.35226473 7.50583713 -62.95426941 7.44082642 C-61.88761551 7.42411392 -60.82096161 7.40740143 -59.72198486 7.3901825 C-58.74104355 7.37023727 -57.76010223 7.35029205 -56.74943542 7.32974243 C-55.8811763 7.31419815 -55.01291718 7.29865387 -54.11834717 7.28263855 C-52.13705537 7.33979592 -52.13705537 7.33979592 -51.13786316 6.12442017 C-48.45998342 6.02929073 -45.80797447 5.99886738 -43.12980652 6.01089478 C-42.29085342 6.01074875 -41.45190033 6.01060272 -40.58752441 6.01045227 C-37.80089272 6.01115167 -35.014327 6.01894531 -32.22770691 6.02676392 C-30.30099524 6.028628 -28.37428311 6.03005195 -26.4475708 6.03105164 C-21.36598919 6.03487758 -16.28443596 6.04470851 -11.2028656 6.05575562 C-6.02169682 6.0659681 -0.84052347 6.07054891 4.34065247 6.07559204 C14.51449309 6.08633071 24.68831261 6.10340804 34.86213684 6.12442017 C34.86213684 6.78442017 34.86213684 7.44442017 34.86213684 8.12442017 C36.51213684 7.79442017 38.16213684 7.46442017 39.86213684 7.12442017 C39.86213684 6.79442017 39.86213684 6.46442017 39.86213684 6.12442017 C33.26213684 5.79442017 26.66213684 5.46442017 19.86213684 5.12442017 C19.86213684 4.79442017 19.86213684 4.46442017 19.86213684 4.12442017 C33.39213684 4.12442017 46.92213684 4.12442017 60.86213684 4.12442017 C27.20213684 3.79442017 -6.45786316 3.46442017 -41.13786316 3.12442017 C-41.13786316 2.79442017 -41.13786316 2.46442017 -41.13786316 2.12442017 C-39.55533752 2.08683594 -39.55533752 2.08683594 -37.94084167 2.04849243 C-34.04015688 1.95457908 -30.1396569 1.85431983 -26.23918152 1.75210571 C-24.54847017 1.70869578 -22.85771325 1.66702528 -21.16691589 1.62710571 C-18.7417271 1.56954923 -16.31676901 1.50581368 -13.89176941 1.44082642 C-13.13134842 1.42411392 -12.37092743 1.40740143 -11.58746338 1.3901825 C-7.30606034 1.26830505 -4.25993391 0.00879154 0 0 Z " fill="#776C65" transform="translate(101.13786315917969,103.87557983398438)"/>
<path d="M0 0 C47.52 0 95.04 0 144 0 C144 0.33 144 0.66 144 1 C170.73 1.33 197.46 1.66 225 2 C225 13.22 225 24.44 225 36 C150.75 36 76.5 36 0 36 C0 24.12 0 12.24 0 0 Z " fill="#7D7D7D" transform="translate(0,189)"/>
<path d="M0 0 C74.25 0 148.5 0 225 0 C225 7.59 225 15.18 225 23 C150.75 23 76.5 23 0 23 C0 15.41 0 7.82 0 0 Z " fill="#615B5B" transform="translate(0,0)"/>
<path d="M0 0 C17.82 0 35.64 0 54 0 C54 4.62 54 9.24 54 14 C37.5 14 21 14 4 14 C4 13.34 4 12.68 4 12 C2.64865967 12.04543945 2.64865967 12.04543945 1.27001953 12.09179688 C-3.11146277 12.23489264 -7.493105 12.37021769 -11.875 12.5 C-13.08802795 12.53601318 -13.08802795 12.53601318 -14.32556152 12.57275391 C-30.16938827 13.02949608 -46.00181997 13.07050665 -61.85107422 12.96289062 C-62.72381989 12.95866089 -63.59656555 12.95443115 -64.49575806 12.95007324 C-66.13997136 12.9418692 -67.78417061 12.92945088 -69.42831421 12.91223145 C-71.28575429 12.90384466 -73.14331494 12.94638507 -75 13 C-75.33 13.33 -75.66 13.66 -76 14 C-37.885 14.495 -37.885 14.495 1 15 C1 15.33 1 15.66 1 16 C-2.96 16.33 -6.92 16.66 -11 17 C-11.33 17.99 -11.66 18.98 -12 20 C-15.45789054 20.19635974 -18.91632197 20.38058252 -22.375 20.5625 C-23.35984375 20.61857422 -24.3446875 20.67464844 -25.359375 20.73242188 C-26.77089844 20.80493164 -26.77089844 20.80493164 -28.2109375 20.87890625 C-29.08024902 20.9260376 -29.94956055 20.97316895 -30.84521484 21.02172852 C-33 21 -33 21 -35 20 C-35 19.34 -35 18.68 -35 18 C-36.12438477 18.0721875 -37.24876953 18.144375 -38.40722656 18.21875 C-49.68538551 18.87852186 -60.94001707 19.08679707 -72.234375 19.0625 C-73.29754189 19.06033981 -73.29754189 19.06033981 -74.38218689 19.05813599 C-79.50482529 19.04590278 -84.62740423 19.02378373 -89.75 19 C-94.94366255 18.97630056 -100.13729758 18.95606506 -105.33100128 18.94406128 C-107.39240064 18.93759249 -109.45370706 18.92511185 -111.51507568 18.91235352 C-112.7485675 18.90905029 -113.98205933 18.90574707 -115.25292969 18.90234375 C-116.34208679 18.89710693 -117.4312439 18.89187012 -118.55340576 18.88647461 C-120.94680479 18.72228103 -120.94680479 18.72228103 -122 20 C-123.5348297 20.09319449 -125.07392082 20.117458 -126.61157227 20.11352539 C-127.59251358 20.11344986 -128.5734549 20.11337433 -129.5841217 20.11329651 C-130.6507756 20.10813522 -131.7174295 20.10297394 -132.81640625 20.09765625 C-134.44569313 20.09553383 -134.44569313 20.09553383 -136.1078949 20.09336853 C-139.59279075 20.08775048 -143.07762342 20.07519492 -146.5625 20.0625 C-148.91861887 20.05748733 -151.27473874 20.05292402 -153.63085938 20.04882812 C-159.42059743 20.03777518 -165.21028799 20.02049846 -171 20 C-171 15.71 -171 11.42 -171 7 C-158.46 6.67 -145.92 6.34 -133 6 C-133 5.67 -133 5.34 -133 5 C-131.57513023 5.00333092 -131.57513023 5.00333092 -130.12147522 5.00672913 C-121.18908904 5.02696127 -112.25670748 5.04197249 -103.32430363 5.05181217 C-98.7315736 5.05704082 -94.138862 5.06413812 -89.54614258 5.07543945 C-85.11766312 5.086269 -80.68920144 5.09227698 -76.26070976 5.09487724 C-74.56734372 5.09673137 -72.87397871 5.10035175 -71.18062019 5.10573006 C-68.81708768 5.1129414 -66.45362955 5.1139909 -64.09008789 5.11352539 C-63.38302704 5.11712067 -62.67596619 5.12071594 -61.94747925 5.12442017 C-58.69361952 5.39649445 -58.69361952 5.39649445 -56 4 C-54.34261557 3.90653085 -52.68125356 3.88255023 -51.02124023 3.88647461 C-49.96021591 3.88655014 -48.89919159 3.88662567 -47.80601501 3.88670349 C-46.651866 3.89186478 -45.49771698 3.89702606 -44.30859375 3.90234375 C-43.13361832 3.9037587 -41.95864288 3.90517365 -40.74806213 3.90663147 C-36.97784936 3.91225008 -33.20769496 3.92480574 -29.4375 3.9375 C-26.88867273 3.9425126 -24.33984453 3.94707592 -21.79101562 3.95117188 C-15.52732367 3.96222556 -9.26366601 3.97898179 -3 4 C-3 4.66 -3 5.32 -3 6 C-0.8535247 5.88655624 1.29220592 5.75893655 3.4375 5.625 C5.22994141 5.52058594 5.22994141 5.52058594 7.05859375 5.4140625 C8.02925781 5.27742188 8.99992188 5.14078125 10 5 C10.33 4.34 10.66 3.68 11 3 C7.04 3 3.08 3 -1 3 C-0.67 2.01 -0.34 1.02 0 0 Z M-58 19 C-56 20 -56 20 -56 20 Z " fill="#5C5C59" transform="translate(171,92)"/>
<path d="M0 0 C0.73511307 0.00359528 1.47022614 0.00719055 2.22761536 0.01089478 C2.99829346 0.01074875 3.76897156 0.01060272 4.56300354 0.01045227 C7.12237823 0.01115157 9.68168104 0.01894471 12.24104309 0.02676392 C14.01081299 0.02862804 15.7805834 0.03005197 17.550354 0.03105164 C22.2176505 0.03487728 26.88491607 0.04470796 31.55220032 0.05575562 C36.31110719 0.06596873 41.07001905 0.07054904 45.82893372 0.07559204 C55.17334837 0.08633019 64.51774004 0.10340717 73.86213684 0.12442017 C73.86213684 0.78442017 73.86213684 1.44442017 73.86213684 2.12442017 C90.36213684 2.12442017 106.86213684 2.12442017 123.86213684 2.12442017 C123.86213684 6.41442017 123.86213684 10.70442017 123.86213684 15.12442017 C97.46213684 15.12442017 71.06213684 15.12442017 43.86213684 15.12442017 C43.53213684 14.13442017 43.20213684 13.14442017 42.86213684 12.12442017 C16.46213684 11.79442017 -9.93786316 11.46442017 -37.13786316 11.12442017 C-37.13786316 11.78442017 -37.13786316 12.44442017 -37.13786316 13.12442017 C-41.59286316 13.61942017 -41.59286316 13.61942017 -46.13786316 14.12442017 C-46.13786316 14.45442017 -46.13786316 14.78442017 -46.13786316 15.12442017 C-64.28786316 15.12442017 -82.43786316 15.12442017 -101.13786316 15.12442017 C-101.13786316 12.81442017 -101.13786316 10.50442017 -101.13786316 8.12442017 C-100.52620804 8.1141127 -99.91455292 8.10380524 -99.28436279 8.09318542 C-92.94204 7.98535272 -86.59986602 7.87073675 -80.25773621 7.75210571 C-77.88797608 7.70868207 -75.51818316 7.66701267 -73.14836121 7.62710571 C-69.75022983 7.56958249 -66.35226473 7.50583713 -62.95426941 7.44082642 C-61.88761551 7.42411392 -60.82096161 7.40740143 -59.72198486 7.3901825 C-58.74104355 7.37023727 -57.76010223 7.35029205 -56.74943542 7.32974243 C-55.8811763 7.31419815 -55.01291718 7.29865387 -54.11834717 7.28263855 C-52.13705537 7.33979592 -52.13705537 7.33979592 -51.13786316 6.12442017 C-48.45998342 6.02929073 -45.80797447 5.99886738 -43.12980652 6.01089478 C-42.29085342 6.01074875 -41.45190033 6.01060272 -40.58752441 6.01045227 C-37.80089272 6.01115167 -35.014327 6.01894531 -32.22770691 6.02676392 C-30.30099524 6.028628 -28.37428311 6.03005195 -26.4475708 6.03105164 C-21.36598919 6.03487758 -16.28443596 6.04470851 -11.2028656 6.05575562 C-6.02169682 6.0659681 -0.84052347 6.07054891 4.34065247 6.07559204 C14.51449309 6.08633071 24.68831261 6.10340804 34.86213684 6.12442017 C34.86213684 6.78442017 34.86213684 7.44442017 34.86213684 8.12442017 C36.51213684 7.79442017 38.16213684 7.46442017 39.86213684 7.12442017 C39.86213684 6.79442017 39.86213684 6.46442017 39.86213684 6.12442017 C33.26213684 5.79442017 26.66213684 5.46442017 19.86213684 5.12442017 C19.86213684 4.79442017 19.86213684 4.46442017 19.86213684 4.12442017 C33.39213684 4.12442017 46.92213684 4.12442017 60.86213684 4.12442017 C27.20213684 3.79442017 -6.45786316 3.46442017 -41.13786316 3.12442017 C-41.13786316 2.79442017 -41.13786316 2.46442017 -41.13786316 2.12442017 C-39.55533752 2.08683594 -39.55533752 2.08683594 -37.94084167 2.04849243 C-34.04015688 1.95457908 -30.1396569 1.85431983 -26.23918152 1.75210571 C-24.54847017 1.70869578 -22.85771325 1.66702528 -21.16691589 1.62710571 C-18.7417271 1.56954923 -16.31676901 1.50581368 -13.89176941 1.44082642 C-13.13134842 1.42411392 -12.37092743 1.40740143 -11.58746338 1.3901825 C-7.30606034 1.26830505 -4.25993391 0.00879154 0 0 Z " fill="#9F9FA0" transform="translate(101.13786315917969,103.87557983398438)"/>
<path d="M0 0 C55.44 0 110.88 0 168 0 C168 0.33 168 0.66 168 1 C156.20478221 1.77892948 144.48268059 2.09935962 132.66015625 1.96289062 C131.67660156 1.95451172 130.69304687 1.94613281 129.6796875 1.9375 C128.80038574 1.92589844 127.92108398 1.91429688 127.01513672 1.90234375 C125.00233887 1.77364422 125.00233887 1.77364422 124 3 C142.48 3.33 160.96 3.66 180 4 C180.33 3.34 180.66 2.68 181 2 C181 2.66 181 3.32 181 4 C195.52 4 210.04 4 225 4 C225 6.31 225 8.62 225 11 C208.5 11 192 11 175 11 C175 10.67 175 10.34 175 10 C158.06737796 9.97667131 141.13476092 9.95902097 124.2021265 9.94818783 C116.34055609 9.94302481 108.47899565 9.93598199 100.61743164 9.92456055 C93.76774525 9.9146139 86.91806608 9.90814662 80.06837267 9.90591151 C76.43930604 9.90460437 72.81026006 9.90151831 69.18120003 9.89426994 C65.13649696 9.88625644 61.09183011 9.88600885 57.04711914 9.88647461 C55.83511841 9.88287933 54.62311768 9.87928406 53.37438965 9.87557983 C51.73156761 9.87764183 51.73156761 9.87764183 50.05555725 9.87974548 C48.61894289 9.87836279 48.61894289 9.87836279 47.15330601 9.87695217 C45.01886517 9.75926342 45.01886517 9.75926342 44 11 C42.61839885 11.0927833 41.23211962 11.11747043 39.84741211 11.11352539 C38.96657455 11.11344986 38.085737 11.11337433 37.1782074 11.11329651 C36.22092239 11.10813522 35.26363739 11.10297394 34.27734375 11.09765625 C33.30213272 11.0962413 32.32692169 11.09482635 31.32215881 11.09336853 C28.19390857 11.08775133 25.06572877 11.07519593 21.9375 11.0625 C19.82226666 11.05748722 17.70703219 11.05292393 15.59179688 11.04882812 C10.39450393 11.03777631 5.19726392 11.02050016 0 11 C0 7.37 0 3.74 0 0 Z " fill="#33322F" transform="translate(0,71)"/>
<path d="M0 0 C48.51 0 97.02 0 147 0 C147.33 1.32 147.66 2.64 148 4 C173.41 4 198.82 4 225 4 C225 5.32 225 6.64 225 8 C214.50032575 8.18926556 204.00031927 8.35146287 193.5 8.5 C192.6612093 8.51187725 191.82241859 8.5237545 190.95820999 8.53599167 C149.61927277 9.11188699 108.2794588 9.08435867 66.9375 9.0625 C66.11164776 9.06207577 65.28579552 9.06165154 64.43491745 9.06121445 C42.95660046 9.04999681 21.47829952 9.02966198 0 9 C0 6.03 0 3.06 0 0 Z " fill="#6A6562" transform="translate(0,143)"/>
<path d="M0 0 C74.25 0 148.5 0 225 0 C225 2.31 225 4.62 225 7 C150.75 7 76.5 7 0 7 C0 4.69 0 2.38 0 0 Z " fill="#959186" transform="translate(0,46)"/>
<path d="M0 0 C30.36 0 60.72 0 92 0 C91.67 0.99 91.34 1.98 91 3 C114.1 3.33 137.2 3.66 161 4 C161 4.99 161 5.98 161 7 C121.895 7.495 121.895 7.495 82 8 C81.67 8.66 81.34 9.32 81 10 C61.86 10 42.72 10 23 10 C22.67 10.66 22.34 11.32 22 12 C-6.38 11.67 -34.76 11.34 -64 11 C-64 8.69 -64 6.38 -64 4 C-37.27 3.505 -37.27 3.505 -10 3 C-10 2.67 -10 2.34 -10 2 C-6.7 2 -3.4 2 0 2 C0 1.34 0 0.68 0 0 Z " fill="#585451" transform="translate(64,115)"/>
<path d="M0 0 C74.25 0 148.5 0 225 0 C225 1.65 225 3.3 225 5 C208.5 5.33 192 5.66 175 6 C175 6.33 175 6.66 175 7 C155.52819177 8.13018098 136.08186121 8.15829992 116.58547211 8.12857056 C113.9136901 8.12496789 111.24191354 8.12337357 108.57012939 8.12231445 C72.37468715 8.10455435 36.18908286 7.65246191 0 7 C0 4.69 0 2.38 0 0 Z " fill="#8D8A7F" transform="translate(0,53)"/>
<path d="M0 0 C26.07 0 52.14 0 79 0 C79 2.31 79 4.62 79 7 C66.70857598 7.20461257 54.41693165 7.39109839 42.125 7.5625 C41.21259174 7.57523327 40.30018349 7.58796654 39.3601265 7.60108566 C6.21543594 8.0573889 -26.86269676 7.89387069 -60 7 C-60.33 7.66 -60.66 8.32 -61 9 C-89.05 8.67 -117.1 8.34 -146 8 C-146 6.68 -146 5.36 -146 4 C-144.38720909 4.00333092 -144.38720909 4.00333092 -142.74183655 4.00672913 C-132.63215799 4.0269599 -122.52248352 4.04197183 -112.41278934 4.05181217 C-107.21471885 4.05704116 -102.01666464 4.0641391 -96.81860352 4.07543945 C-91.80657732 4.08626776 -86.79456682 4.09227671 -81.78252983 4.09487724 C-79.86587718 4.09673159 -77.94922543 4.1003524 -76.03257942 4.10573006 C-73.35771928 4.11293975 -70.68292486 4.11399097 -68.00805664 4.11352539 C-66.80720428 4.1189183 -66.80720428 4.1189183 -65.58209229 4.12442017 C-61.99490098 4.45423821 -61.99490098 4.45423821 -59 3 C-57.18944975 2.90623947 -55.37522799 2.8825589 -53.56225586 2.88647461 C-52.40112778 2.88655014 -51.23999969 2.88662567 -50.04368591 2.88670349 C-48.14840904 2.89444542 -48.14840904 2.89444542 -46.21484375 2.90234375 C-44.28591026 2.90446617 -44.28591026 2.90446617 -42.31800842 2.90663147 C-38.89356557 2.91045582 -35.46916491 2.92028538 -32.04473877 2.93133545 C-28.55261811 2.94155136 -25.06049066 2.94612947 -21.56835938 2.95117188 C-14.71222222 2.96190773 -7.85611313 2.97898316 -1 3 C-0.67 2.01 -0.34 1.02 0 0 Z " fill="#77716D" transform="translate(146,122)"/>
<path d="M0 0 C74.25 0 148.5 0 225 0 C225 1.65 225 3.3 225 5 C149.99595607 6.17641535 75.00029599 6.67574345 0 5 C0 3.35 0 1.7 0 0 Z " fill="#2C2B2B" transform="translate(0,23)"/>
<path d="M0 0 C74.25 0 148.5 0 225 0 C225 1.65 225 3.3 225 5 C150.75 5 76.5 5 0 5 C0 3.35 0 1.7 0 0 Z " fill="#918787" transform="translate(0,0)"/>
<path d="M0 0 C74.25 0 148.5 0 225 0 C225 1.65 225 3.3 225 5 C150.75 5 76.5 5 0 5 C0 3.35 0 1.7 0 0 Z " fill="#8B867F" transform="translate(0,28)"/>
<path d="M0 0 C47.52 0 95.04 0 144 0 C144 0.99 144 1.98 144 3 C139.05 3 134.1 3 129 3 C129 3.66 129 4.32 129 5 C124.38 5 119.76 5 115 5 C114.505 3.02 114.505 3.02 114 1 C114 2.32 114 3.64 114 5 C112.35 5 110.7 5 109 5 C109 5.66 109 6.32 109 7 C105.86458244 9.09027837 105.17801689 9.24894205 101.61506653 9.24050903 C100.27103004 9.24463303 100.27103004 9.24463303 98.89984131 9.24884033 C97.91944885 9.24164978 96.9390564 9.23445923 95.92895508 9.22705078 C94.37748024 9.22748886 94.37748024 9.22748886 92.79466248 9.22793579 C89.36953394 9.22654038 85.94462187 9.21096908 82.51953125 9.1953125 C80.14727396 9.19158313 77.77501512 9.1887358 75.40275574 9.18673706 C69.15393839 9.17909468 62.90521377 9.15944092 56.65643311 9.1373291 C50.28203587 9.11688374 43.90762368 9.10773814 37.53320312 9.09765625 C25.02209464 9.07619566 12.51105503 9.04205236 0 9 C0 6.03 0 3.06 0 0 Z " fill="#7B7A7A" transform="translate(0,164)"/>
<path d="M0 0 C20.62473695 -0.02373104 41.24947101 -0.04117075 61.87421894 -0.05181217 C71.45822429 -0.05689219 81.0422209 -0.06379613 90.6262207 -0.07543945 C135.42907292 -0.12881668 180.20670677 -0.01518279 225 1 C225 2.32 225 3.64 225 5 C150.75 5 76.5 5 0 5 C0 3.35 0 1.7 0 0 Z " fill="#908172" transform="translate(0,18)"/>
<path d="M0 0 C17.82 0 35.64 0 54 0 C54 0.33 54 0.66 54 1 C69.84 1.33 85.68 1.66 102 2 C102 2.99 102 3.98 102 5 C85.5 5 69 5 52 5 C52 4.34 52 3.68 52 3 C50.64865967 3.04543945 50.64865967 3.04543945 49.27001953 3.09179688 C44.88853723 3.23489264 40.506895 3.37021769 36.125 3.5 C35.3163147 3.52400879 34.50762939 3.54801758 33.67443848 3.57275391 C17.83061173 4.02949608 1.99818003 4.07050665 -13.85107422 3.96289062 C-14.72381989 3.95866089 -15.59656555 3.95443115 -16.49575806 3.95007324 C-18.13997136 3.9418692 -19.78417061 3.92945088 -21.42831421 3.91223145 C-23.28575429 3.90384466 -25.14331494 3.94638507 -27 4 C-27.33 4.33 -27.66 4.66 -28 5 C10.115 5.495 10.115 5.495 49 6 C49 6.33 49 6.66 49 7 C43.06 7.495 43.06 7.495 37 8 C36.67 8.99 36.34 9.98 36 11 C32.54210946 11.19635974 29.08367803 11.38058252 25.625 11.5625 C24.64015625 11.61857422 23.6553125 11.67464844 22.640625 11.73242188 C21.22910156 11.80493164 21.22910156 11.80493164 19.7890625 11.87890625 C18.91975098 11.9260376 18.05043945 11.97316895 17.15478516 12.02172852 C15 12 15 12 13 11 C13 10.34 13 9.68 13 9 C11.87561523 9.0721875 10.75123047 9.144375 9.59277344 9.21875 C-1.68538551 9.87852186 -12.94001707 10.08679707 -24.234375 10.0625 C-25.29754189 10.06033981 -25.29754189 10.06033981 -26.38218689 10.05813599 C-31.50482529 10.04590278 -36.62740423 10.02378373 -41.75 10 C-46.94366255 9.97630056 -52.13729758 9.95606506 -57.33100128 9.94406128 C-59.39240064 9.93759249 -61.45370706 9.92511185 -63.51507568 9.91235352 C-64.7485675 9.90905029 -65.98205933 9.90574707 -67.25292969 9.90234375 C-68.34208679 9.89710693 -69.4312439 9.89187012 -70.55340576 9.88647461 C-72.94680479 9.72228103 -72.94680479 9.72228103 -74 11 C-75.5348297 11.09319449 -77.07392082 11.117458 -78.61157227 11.11352539 C-79.59251358 11.11344986 -80.5734549 11.11337433 -81.5841217 11.11329651 C-82.6507756 11.10813522 -83.7174295 11.10297394 -84.81640625 11.09765625 C-86.44569313 11.09553383 -86.44569313 11.09553383 -88.1078949 11.09336853 C-91.59279075 11.08775048 -95.07762342 11.07519492 -98.5625 11.0625 C-100.91861887 11.05748733 -103.27473874 11.05292402 -105.63085938 11.04882812 C-111.42059464 11.03777519 -117.21029281 11.02101951 -123 11 C-123 9.35 -123 7.7 -123 6 C-107.82 6 -92.64 6 -77 6 C-77 5.34 -77 4.68 -77 4 C-73.37 4 -69.74 4 -66 4 C-66 3.34 -66 2.68 -66 2 C-44.22 1.67 -22.44 1.34 0 1 C0 0.67 0 0.34 0 0 Z M-10 10 C-8 11 -8 11 -8 11 Z " fill="#787777" transform="translate(123,101)"/>
<path d="M0 0 C44.55 0 89.1 0 135 0 C135 0.99 135 1.98 135 3 C107.775 3.495 107.775 3.495 80 4 C80 3.34 80 2.68 80 2 C53.6 2 27.2 2 0 2 C0 1.34 0 0.68 0 0 Z M-90 4 C-33.33333333 4 23.33333333 4 80 4 C80 4.66 80 5.32 80 6 C83.96 6 87.92 6 92 6 C91.67 6.99 91.34 7.98 91 9 C86.71 9 82.42 9 78 9 C78 8.34 78 7.68 78 7 C77.31824707 7.03029297 76.63649414 7.06058594 75.93408203 7.09179688 C61.63211619 7.71227262 47.36998269 8.11987717 33.05322266 7.96289062 C32.02374512 7.95451172 30.99426758 7.94613281 29.93359375 7.9375 C29.02665771 7.92589844 28.11972168 7.91429688 27.18530273 7.90234375 C24.95378438 7.85359213 24.95378438 7.85359213 23 9 C20.66150466 9.0922065 18.32028958 9.11749202 15.97998047 9.11352539 C15.25792419 9.11367142 14.53586792 9.11381744 13.79193115 9.1139679 C11.40031959 9.11327007 9.00878549 9.10548375 6.6171875 9.09765625 C4.96094811 9.09579161 3.30470816 9.09436792 1.64846802 9.09336853 C-2.71467608 9.08954699 -7.077787 9.07971978 -11.44091797 9.06866455 C-15.89159699 9.05844264 -20.34228137 9.05386924 -24.79296875 9.04882812 C-33.52866108 9.0380972 -42.26432641 9.02102512 -51 9 C-51 9.33 -51 9.66 -51 10 C-63.87 10 -76.74 10 -90 10 C-90 8.02 -90 6.04 -90 4 Z " fill="#6B6B68" transform="translate(90,89)"/>
<path d="M0 0 C49.17 0 98.34 0 149 0 C149 0.99 149 1.98 149 3 C104.45 3 59.9 3 14 3 C15.71987206 4.71987206 17.90877029 4.11974788 20.20132446 4.12442017 C20.94578827 4.12082489 21.69025208 4.11722961 22.45727539 4.11352539 C23.23770706 4.11367142 24.01813873 4.11381744 24.82221985 4.1139679 C27.4140598 4.11326858 30.00582878 4.10547536 32.59765625 4.09765625 C34.3898464 4.09579213 36.18203706 4.0943682 37.97422791 4.09336853 C42.70070797 4.08954284 47.42715752 4.07971212 52.15362549 4.06866455 C56.9728555 4.05845153 61.79209042 4.05387115 66.61132812 4.04882812 C76.07423219 4.03808989 85.53711356 4.02101286 95 4 C94.67 4.99 94.34 5.98 94 7 C79.81 7 65.62 7 51 7 C51 7.66 51 8.32 51 9 C50.44623058 8.83826325 49.89246117 8.67652651 49.32191086 8.50988865 C46.76667996 7.94876322 44.46555319 7.86046824 41.84942627 7.84178162 C40.80898666 7.8319928 39.76854706 7.82220398 38.69657898 7.81211853 C37.56081924 7.80636307 36.42505951 7.8006076 35.25488281 7.79467773 C33.45447289 7.77982834 33.45447289 7.77982834 31.61769104 7.76467896 C28.33085513 7.738515 25.04402423 7.71664311 21.75714588 7.69667697 C18.3204724 7.67478685 14.88384272 7.64741299 11.44720459 7.62062073 C4.94144859 7.57073472 -1.56433178 7.52578074 -8.07013535 7.48259836 C-15.47761302 7.43319099 -22.88504675 7.37828586 -30.2924819 7.32291877 C-45.52828064 7.20916155 -60.76411982 7.10230892 -76 7 C-76 6.01 -76 5.02 -76 4 C-50.59 4 -25.18 4 1 4 C-4.61 3.67 -10.22 3.34 -16 3 C-16 2.67 -16 2.34 -16 2 C-8.08 1.505 -8.08 1.505 0 1 C0 0.67 0 0.34 0 0 Z " fill="#989994" transform="translate(76,86)"/>
<path d="M0 0 C56.76 0 113.52 0 172 0 C172 0.99 172 1.98 172 3 C168.9998108 6.0001892 165.56651488 5.47312848 161.52612305 5.62109375 C160.19924862 5.67770424 160.19924862 5.67770424 158.84556866 5.73545837 C148.29142754 6.13769237 137.73408601 6.11272184 127.17402077 6.07516479 C123.4965978 6.06219877 119.81921158 6.05583693 116.14176941 6.05102539 C108.36532938 6.03972052 100.58892073 6.02040898 92.8125 6 C83.72849959 5.97638102 74.64451534 5.95606187 65.56049156 5.94406128 C61.93246065 5.93756789 58.30448156 5.92507402 54.6764679 5.91235352 C52.47677659 5.9087251 50.2770848 5.90537287 48.07739258 5.90234375 C47.06512604 5.89717743 46.0528595 5.89201111 45.00991821 5.88668823 C44.09506149 5.88661774 43.18020477 5.88654724 42.23762512 5.88647461 C41.43859677 5.884254 40.63956842 5.88203339 39.8163271 5.87974548 C37.97933748 5.80104633 37.97933748 5.80104633 37 7 C34.26105915 7.08858646 31.5474673 7.11523479 28.80859375 7.09765625 C27.98875504 7.0962413 27.16891632 7.09482635 26.32423401 7.09336853 C23.69528618 7.08775289 21.06642227 7.07519779 18.4375 7.0625 C16.65950643 7.05748701 14.88151154 7.05292376 13.10351562 7.04882812 C8.73564455 7.03777839 4.36783652 7.02050331 0 7 C0 4.69 0 2.38 0 0 Z " fill="#605C51" transform="translate(0,63)"/>
<path d="M0 0 C1.20085236 0.00539291 1.20085236 0.00539291 2.42596436 0.01089478 C3.26491745 0.01074875 4.10387054 0.01060272 4.96824646 0.01045227 C7.75487816 0.01115167 10.54144388 0.01894531 13.32806396 0.02676392 C15.25477563 0.028628 17.18148777 0.03005195 19.10820007 0.03105164 C24.18978169 0.03487758 29.27133491 0.04470851 34.35290527 0.05575562 C39.53407405 0.0659681 44.7152474 0.07054891 49.89642334 0.07559204 C60.07026397 0.08633071 70.24408348 0.10340804 80.41790771 0.12442017 C80.41790771 0.78442017 80.41790771 1.44442017 80.41790771 2.12442017 C87.34790771 2.45442017 94.27790771 2.78442017 101.41790771 3.12442017 C101.41790771 3.45442017 101.41790771 3.78442017 101.41790771 4.12442017 C70.42430003 5.36548475 39.43072044 5.23054849 8.41790771 5.12442017 C8.41790771 5.78442017 8.41790771 6.44442017 8.41790771 7.12442017 C3.96290771 7.61942017 3.96290771 7.61942017 -0.58209229 8.12442017 C-0.58209229 8.45442017 -0.58209229 8.78442017 -0.58209229 9.12442017 C-18.73209229 9.12442017 -36.88209229 9.12442017 -55.58209229 9.12442017 C-55.58209229 6.81442017 -55.58209229 4.50442017 -55.58209229 2.12442017 C-54.97043716 2.1141127 -54.35878204 2.10380524 -53.72859192 2.09318542 C-47.38626913 1.98535272 -41.04409515 1.87073675 -34.70196533 1.75210571 C-32.33220521 1.70868207 -29.96241229 1.66701267 -27.59259033 1.62710571 C-24.19445895 1.56958249 -20.79649386 1.50583713 -17.39849854 1.44082642 C-16.33184464 1.42411392 -15.26519073 1.40740143 -14.16621399 1.3901825 C-13.18527267 1.37023727 -12.20433136 1.35029205 -11.19366455 1.32974243 C-10.32540543 1.31419815 -9.4571463 1.29865387 -8.56257629 1.28263855 C-5.62906481 1.048284 -3.31594157 0.00628739 0 0 Z " fill="#8C8B8A" transform="translate(55.58209228515625,109.87557983398438)"/>
<path d="M0 0 C17.82 0 35.64 0 54 0 C54 3.63 54 7.26 54 11 C34.53 11 15.06 11 -5 11 C-5 10.67 -5 10.34 -5 10 C-0.71 9.67 3.58 9.34 8 9 C8 8.34 8 7.68 8 7 C-19.39 7 -46.78 7 -75 7 C-75 6.67 -75 6.34 -75 6 C-73.71222656 5.93941406 -72.42445312 5.87882812 -71.09765625 5.81640625 C-69.41925841 5.73201753 -67.74087364 5.6473687 -66.0625 5.5625 C-64.78729492 5.50352539 -64.78729492 5.50352539 -63.48632812 5.44335938 C-62.67744141 5.40146484 -61.86855469 5.35957031 -61.03515625 5.31640625 C-60.2862915 5.27974854 -59.53742676 5.24309082 -58.76586914 5.20532227 C-56.97538674 5.18228937 -56.97538674 5.18228937 -56 4 C-54.34261557 3.90653085 -52.68125356 3.88255023 -51.02124023 3.88647461 C-49.96021591 3.88655014 -48.89919159 3.88662567 -47.80601501 3.88670349 C-46.07479149 3.89444542 -46.07479149 3.89444542 -44.30859375 3.90234375 C-43.13361832 3.9037587 -41.95864288 3.90517365 -40.74806213 3.90663147 C-36.97784936 3.91225008 -33.20769496 3.92480574 -29.4375 3.9375 C-26.88867273 3.9425126 -24.33984453 3.94707592 -21.79101562 3.95117188 C-15.52732367 3.96222556 -9.26366601 3.97898179 -3 4 C-3 4.66 -3 5.32 -3 6 C-0.8535247 5.88655624 1.29220592 5.75893655 3.4375 5.625 C4.63246094 5.55539063 5.82742187 5.48578125 7.05859375 5.4140625 C8.02925781 5.27742188 8.99992187 5.14078125 10 5 C10.33 4.34 10.66 3.68 11 3 C7.04 3 3.08 3 -1 3 C-0.67 2.01 -0.34 1.02 0 0 Z " fill="#7F7F7F" transform="translate(171,92)"/>
<path d="M0 0 C74.25 0 148.5 0 225 0 C225 0.99 225 1.98 225 3 C149.98146391 3.83839548 75.01285652 4.57992658 0 3 C0 2.01 0 1.02 0 0 Z " fill="#494540" transform="translate(0,33)"/>
<path d="M0 0 C1.53616801 0.00138269 1.53616801 0.00138269 3.10336971 0.00279331 C4.85978283 0.00073132 4.85978283 0.00073132 6.65167904 -0.00137234 C8.59591511 0.00402058 8.59591511 0.00402058 10.57942867 0.00952244 C11.94901687 0.00980431 13.31860521 0.00964658 14.68819332 0.00907993 C18.41736714 0.00879195 22.14650906 0.01468874 25.87567544 0.02165389 C29.76878178 0.02788736 33.66188879 0.02849122 37.55499935 0.0296793 C44.93211912 0.03279263 52.30922415 0.04100605 59.68633741 0.05102879 C68.08281309 0.06218985 76.47928945 0.06770036 84.87577069 0.07272422 C102.15256822 0.08318867 119.42935138 0.10078815 136.70613766 0.12304783 C136.70613766 0.45304783 136.70613766 0.78304783 136.70613766 1.12304783 C97.60113766 1.61804783 97.60113766 1.61804783 57.70613766 2.12304783 C57.70613766 2.78304783 57.70613766 3.44304783 57.70613766 4.12304783 C37.57613766 4.12304783 17.44613766 4.12304783 -3.29386234 4.12304783 C-3.62386234 4.78304783 -3.95386234 5.44304783 -4.29386234 6.12304783 C-32.01386234 5.79304783 -59.73386234 5.46304783 -88.29386234 5.12304783 C-88.29386234 3.80304783 -88.29386234 2.48304783 -88.29386234 1.12304783 C-86.69986355 1.12637875 -86.69986355 1.12637875 -85.07366276 1.12977695 C-75.08171343 1.15000785 -65.08976824 1.16501972 -55.09780312 1.17486 C-49.96026668 1.18008896 -44.82274672 1.18718684 -39.68521976 1.19848728 C-34.73154824 1.2093157 -29.77789261 1.21532457 -24.82421017 1.21792507 C-22.92988618 1.2197794 -21.0355631 1.22340017 -19.14124584 1.22877789 C-16.49751849 1.23598772 -13.85385764 1.2370388 -11.21012211 1.23657322 C-10.02329586 1.24196613 -10.02329586 1.24196613 -8.81249332 1.24746799 C-5.4195682 1.24095909 -3.0492138 0.16356654 0 0 Z " fill="#665E59" transform="translate(88.29386234283447,128.87695217132568)"/>
<path d="M0 0 C74.25 0 148.5 0 225 0 C225 0.99 225 1.98 225 3 C150.75 3 76.5 3 0 3 C0 2.01 0 1.02 0 0 Z " fill="#8C8982" transform="translate(0,36)"/>
<path d="M0 0 C36.63 0 73.26 0 111 0 C111 0.99 111 1.98 111 3 C109.97491837 3.01030746 108.94983673 3.02061493 107.89369202 3.03123474 C98.25486762 3.12879669 88.61611027 3.23151398 78.97739506 3.33933926 C74.02149288 3.39461202 69.06558486 3.44803884 64.10961914 3.49731445 C59.3309593 3.54489396 54.55237358 3.59723418 49.7738018 3.65294075 C47.94648511 3.67339347 46.11914806 3.69210161 44.29179573 3.70907402 C41.74141166 3.73305374 39.19116903 3.76311664 36.64086914 3.79467773 C35.87770386 3.8004332 35.11453857 3.80618866 34.32824707 3.81211853 C30.8730815 3.55267067 30.8730815 3.55267067 28 5 C25.18163677 5.24626475 22.38685167 5.42794155 19.5625 5.5625 C18.71880859 5.60640869 17.87511719 5.65031738 17.00585938 5.69555664 C10.23326422 6.01719197 3.47906856 6.05881306 -3.29858398 5.87524414 C-7.11219803 5.81212646 -8.73865108 5.82576738 -12 8 C-14.69921875 8.1953125 -14.69921875 8.1953125 -17.6875 8.125 C-19.17830078 8.09792969 -19.17830078 8.09792969 -20.69921875 8.0703125 C-21.45847656 8.04710937 -22.21773438 8.02390625 -23 8 C-23 7.67 -23 7.34 -23 7 C-20.36 6.67 -17.72 6.34 -15 6 C-15 5.67 -15 5.34 -15 5 C-38.24605592 4.23424178 -61.49473303 3.79473975 -84.75 3.4375 C-85.47252583 3.4263982 -86.19505165 3.4152964 -86.9394722 3.40385818 C-95.95959451 3.26559866 -104.97977029 3.13107597 -114 3 C-114 2.67 -114 2.34 -114 2 C-76.38 2 -38.76 2 0 2 C0 1.34 0 0.68 0 0 Z " fill="#15140F" transform="translate(114,9)"/>
<path d="M0 0 C1.05785962 0.00436926 1.05785962 0.00436926 2.13709015 0.00882679 C2.8811511 0.00797237 3.62521206 0.00711794 4.39182031 0.00623763 C6.9038936 0.0045806 9.41590123 0.0101078 11.92796844 0.01555592 C13.72119658 0.01583777 15.51442482 0.0156801 17.30765289 0.01511341 C22.19174545 0.01482535 27.07581368 0.02072345 31.95990056 0.02768737 C37.0581776 0.0339195 42.15645514 0.0345246 47.25473541 0.03571278 C56.91618339 0.03882651 66.57762013 0.04704047 76.23906314 0.05706227 C87.23524803 0.0682221 98.23143344 0.07373353 109.22762257 0.0787577 C131.85422523 0.08922305 154.48081789 0.1068233 177.1074118 0.12908131 C177.1074118 1.11908131 177.1074118 2.10908131 177.1074118 3.12908131 C102.8574118 3.12908131 28.6074118 3.12908131 -47.8925882 3.12908131 C-47.8925882 2.79908131 -47.8925882 2.46908131 -47.8925882 2.12908131 C-46.62552033 2.10402516 -45.35845246 2.078969 -44.05298859 2.05315357 C-39.36961041 1.95926135 -34.68638689 1.85899696 -30.0031839 1.75676686 C-27.97294716 1.7133489 -25.94267227 1.67167905 -23.91236359 1.63176686 C-21.00070669 1.57422984 -18.08924306 1.51048853 -15.17774445 1.44548756 C-13.80743828 1.42041882 -13.80743828 1.42041882 -12.40944916 1.39484364 C-7.83968028 1.28644036 -4.44345601 0.01391127 0 0 Z " fill="#989487" transform="translate(47.89258819818497,49.870918691158295)"/>
<path d="M0 0 C0 0.66 0 1.32 0 2 C-74.25 2 -148.5 2 -225 2 C-225 1.34 -225 0.68 -225 0 C-150.05941201 -1.86619386 -74.93913977 -1.96397272 0 0 Z " fill="#7B7365" transform="translate(225,31)"/>
<path d="M0 0 C17.82 0 35.64 0 54 0 C54 2.97 54 5.94 54 9 C31.56 9 9.12 9 -14 9 C-13.01 7.02 -12.02 5.04 -11 3 C-8.30078125 2.1953125 -8.30078125 2.1953125 -5.3125 2.125 C-3.82169922 2.06699219 -3.82169922 2.06699219 -2.30078125 2.0078125 C-1.54152344 2.00523438 -0.78226563 2.00265625 0 2 C0 1.34 0 0.68 0 0 Z " fill="#6B6B6B" transform="translate(171,109)"/>
<path d="M0 0 C0.69771011 0.00359528 1.39542023 0.00719055 2.11427307 0.01089478 C3.2117688 0.01067574 3.2117688 0.01067574 4.33143616 0.01045227 C6.76094989 0.0111515 9.19038789 0.01894432 11.61988831 0.02676392 C13.29997719 0.02862806 14.98006662 0.03005198 16.66015625 0.03105164 C21.09071849 0.03487709 25.52124815 0.04470761 29.95179749 0.05575562 C34.46941182 0.06596914 38.98703139 0.07054913 43.50465393 0.07559204 C52.37511098 0.08632986 61.24554381 0.10340661 70.11598206 0.12442017 C70.11598206 2.43442017 70.11598206 4.74442017 70.11598206 7.12442017 C44.70598206 7.12442017 19.29598206 7.12442017 -6.88401794 7.12442017 C-6.88401794 6.46442017 -6.88401794 5.80442017 -6.88401794 5.12442017 C-6.22401794 5.12442017 -5.56401794 5.12442017 -4.88401794 5.12442017 C-5.16245544 4.16535767 -5.16245544 4.16535767 -5.44651794 3.18692017 C-5.66308044 2.16598267 -5.66308044 2.16598267 -5.88401794 1.12442017 C-4.22236587 -0.53723191 -2.21885765 0.00482291 0 0 Z " fill="#7E7E7E" transform="translate(154.88401794433594,139.87557983398438)"/>
<path d="M0 0 C1.93166016 0.01740234 1.93166016 0.01740234 3.90234375 0.03515625 C5.19269531 0.04417969 6.48304688 0.05320313 7.8125 0.0625 C8.81152344 0.07410156 9.81054688 0.08570313 10.83984375 0.09765625 C10.83984375 1.08765625 10.83984375 2.07765625 10.83984375 3.09765625 C5.88984375 3.09765625 0.93984375 3.09765625 -4.16015625 3.09765625 C-3.02314028 4.46298174 -3.02314028 4.46298174 0 4.1953125 C1.28777344 4.18371094 2.57554687 4.17210937 3.90234375 4.16015625 C5.19269531 4.15113281 6.48304688 4.14210937 7.8125 4.1328125 C8.81152344 4.12121094 9.81054688 4.10960937 10.83984375 4.09765625 C10.83984375 5.41765625 10.83984375 6.73765625 10.83984375 8.09765625 C-36.68015625 8.09765625 -84.20015625 8.09765625 -133.16015625 8.09765625 C-133.16015625 7.10765625 -133.16015625 6.11765625 -133.16015625 5.09765625 C-132.61478242 5.09857804 -132.06940859 5.09949984 -131.50750828 5.10044956 C-118.2549816 5.12250624 -105.00245812 5.13900475 -91.74991703 5.14946842 C-85.34116497 5.15469791 -78.9324261 5.16179675 -72.52368164 5.1730957 C-66.34456184 5.18392224 -60.16545477 5.18993259 -53.98632622 5.19253349 C-51.62310015 5.19438817 -49.25987481 5.19800957 -46.89665413 5.20338631 C-43.59913729 5.21059363 -40.30167378 5.21164732 -37.00415039 5.21118164 C-35.52277588 5.21657455 -35.52277588 5.21657455 -34.01147461 5.22207642 C-32.67156212 5.22001442 -32.67156212 5.22001442 -31.30458069 5.21791077 C-30.1334427 5.21929346 -30.1334427 5.21929346 -28.93864536 5.22070408 C-27.13511411 5.29148568 -27.13511411 5.29148568 -26.16015625 4.09765625 C-23.48956774 3.95650464 -20.83583387 4.05518518 -18.16015625 4.09765625 C-18.16015625 3.43765625 -18.16015625 2.77765625 -18.16015625 2.09765625 C-17.16113281 2.03707031 -16.16210938 1.97648438 -15.1328125 1.9140625 C-13.84246094 1.83027344 -12.55210938 1.74648437 -11.22265625 1.66015625 C-9.93488281 1.57894531 -8.64710937 1.49773437 -7.3203125 1.4140625 C-3.76252479 1.05784395 -3.57508214 0.11047843 0 0 Z M-13.16015625 5.09765625 C-13.16015625 5.42765625 -13.16015625 5.75765625 -13.16015625 6.09765625 C-10.19015625 6.09765625 -7.22015625 6.09765625 -4.16015625 6.09765625 C-4.16015625 5.76765625 -4.16015625 5.43765625 -4.16015625 5.09765625 C-7.13015625 5.09765625 -10.10015625 5.09765625 -13.16015625 5.09765625 Z " fill="#454443" transform="translate(133.16015625,167.90234375)"/>
<path d="M0 0 C57.75 0 115.5 0 175 0 C174.67 0.99 174.34 1.98 174 3 C116.58 3 59.16 3 0 3 C0 2.01 0 1.02 0 0 Z " fill="#8F8A7D" transform="translate(0,60)"/>
<path d="M0 0 C0.91349685 0.00092179 1.82699369 0.00184359 2.76817226 0.00279331 C4.33526691 0.00073132 4.33526691 0.00073132 5.93402004 -0.00137234 C7.08991634 0.00222294 8.24581264 0.00581821 9.43673611 0.00952244 C10.64632488 0.00937641 11.85591366 0.00923038 13.10215664 0.00907993 C16.42846172 0.0096589 19.75470541 0.0146881 23.08099961 0.02165389 C26.55369751 0.02788805 30.02639615 0.02849128 33.49909878 0.0296793 C40.07936014 0.03279243 46.65960497 0.04100557 53.23985904 0.05102879 C60.72945933 0.06219049 68.21906039 0.06770052 75.70866692 0.07272422 C91.11925361 0.0831882 106.52982378 0.1007873 121.94039822 0.12304783 C121.61039822 1.11304783 121.28039822 2.10304783 120.94039822 3.12304783 C76.72039822 3.12304783 32.50039822 3.12304783 -13.05960178 3.12304783 C-13.05960178 3.78304783 -13.05960178 4.44304783 -13.05960178 5.12304783 C-27.57960178 5.12304783 -42.09960178 5.12304783 -57.05960178 5.12304783 C-57.05960178 4.13304783 -57.05960178 3.14304783 -57.05960178 2.12304783 C-56.04815853 2.10758663 -56.04815853 2.10758663 -55.01628208 2.09181309 C-48.02516597 1.98399014 -41.03418511 1.8693734 -34.04324436 1.75073338 C-31.43096834 1.70730658 -28.81866251 1.66563745 -26.2063303 1.62573338 C-22.4607146 1.56821776 -18.71525009 1.50447019 -14.96975803 1.43945408 C-13.79373524 1.42274158 -12.61771244 1.40602909 -11.40605259 1.38881016 C-10.32500751 1.36886494 -9.24396244 1.34891972 -8.13015842 1.32837009 C-7.17307484 1.31282581 -6.21599125 1.29728153 -5.22990513 1.28126621 C-2.70711025 1.09735066 -2.49072504 0.14880464 0 0 Z " fill="#898B85" transform="translate(57.05960178375244,75.87695217132568)"/>
<path d="M0 0 C1.11234512 -0.00021904 1.11234512 -0.00021904 2.24716187 -0.0004425 C4.70370385 0.00025539 7.16017045 0.00804206 9.61669922 0.01586914 C11.31777912 0.01773376 13.01885956 0.01915745 14.71994019 0.02015686 C19.20145139 0.02397861 23.68293029 0.03380599 28.16442871 0.04486084 C32.73575402 0.05508231 37.30708453 0.05965606 41.87841797 0.06469727 C50.85108843 0.07542854 59.82373489 0.09250088 68.79638672 0.11352539 C68.79638672 2.09352539 68.79638672 4.07352539 68.79638672 6.11352539 C58.9392082 6.2904417 49.08191232 6.45640069 39.22431469 6.60830116 C34.64723412 6.67917751 30.07028078 6.75385335 25.4934082 6.8371582 C21.07799867 6.91738532 16.66253313 6.98770273 12.24685097 7.05109787 C10.56066366 7.07705822 8.87452779 7.10661311 7.18846703 7.13978958 C4.83018757 7.18558432 2.47205017 7.21869309 0.11352539 7.2487793 C-0.58634491 7.26532059 -1.28621521 7.28186188 -2.0072937 7.29890442 C-5.6630263 7.33108139 -7.0657748 7.20541771 -10.20361328 5.11352539 C-9.82861328 3.17602539 -9.82861328 3.17602539 -9.20361328 1.11352539 C-6.24383744 -0.36636253 -3.24383319 -0.0165786 0 0 Z " fill="#7A7A7A" transform="translate(156.20361328125,133.886474609375)"/>
<path d="M0 0 C21.45 0 42.9 0 65 0 C65 0.99 65 1.98 65 3 C66.66611905 3.042721 68.33382885 3.04063832 70 3 C70.33 2.67 70.66 2.34 71 2 C72.47354348 1.90695982 73.95150591 1.88253735 75.42797852 1.88647461 C76.36887833 1.88655014 77.30977814 1.88662567 78.27919006 1.88670349 C79.30209641 1.89186478 80.32500275 1.89702606 81.37890625 1.90234375 C82.42070541 1.9037587 83.46250458 1.90517365 84.53587341 1.90663147 C87.87811094 1.9122492 91.22028257 1.9248047 94.5625 1.9375 C96.82226466 1.94251272 99.08203037 1.94707602 101.34179688 1.95117188 C106.89455391 1.96222439 112.44727225 1.97897976 118 2 C116.68 2.33 115.36 2.66 114 3 C114 3.66 114 4.32 114 5 C76.38 5 38.76 5 0 5 C0 3.35 0 1.7 0 0 Z " fill="#7C7C7C" transform="translate(0,6)"/>
<path d="M0 0 C59.07 0 118.14 0 179 0 C179 0.33 179 0.66 179 1 C170.00022258 1.17914303 161.00021314 1.34441019 152 1.5 C150.97004976 1.51781588 150.97004976 1.51781588 149.91929245 1.53599167 C125.29973337 1.95762432 100.68545401 2.08880657 76.0625 2.0625 C75.25546631 2.06164398 74.44843262 2.06078796 73.61694336 2.05990601 C63.74460464 2.04864469 53.87230383 2.02876511 44 2 C43.67 2.99 43.34 3.98 43 5 C40.08361706 5.17374196 37.16709069 5.33890693 34.25 5.5 C33.07050781 5.57154297 33.07050781 5.57154297 31.8671875 5.64453125 C13.69539394 6.62301244 -4.57048249 5.90005141 -22.75 5.5 C-25.01952713 5.4516293 -27.28905838 5.40345116 -29.55859375 5.35546875 C-35.03911171 5.23919026 -40.51957482 5.12056819 -46 5 C-46 4.01 -46 3.02 -46 2 C-23.23 1.505 -23.23 1.505 0 1 C0 0.67 0 0.34 0 0 Z " fill="#3B3C3A" transform="translate(46,85)"/>
<path d="M0 0 C50.49 0 100.98 0 153 0 C153 0.33 153 0.66 153 1 C154.98 1.33 156.96 1.66 159 2 C159 2.33 159 2.66 159 3 C106.53 3 54.06 3 0 3 C0 2.01 0 1.02 0 0 Z " fill="#8F8371" transform="translate(0,24)"/>
<path d="M0 0 C36.3 0 72.6 0 110 0 C108 3 108 3 104.5625 3.6875 C101 4 101 4 98 4 C96.31201173 5.43750191 96.31201173 5.43750191 95 7 C94.01 6.01 94.01 6.01 93 5 C90.04910791 4.7820973 87.18935063 4.68855022 84.23583984 4.68115234 C83.32846573 4.67110672 82.42109161 4.6610611 81.48622131 4.65071106 C78.47780001 4.61974419 75.46946822 4.60280652 72.4609375 4.5859375 C70.37870506 4.56723671 68.29648028 4.54766413 66.21426392 4.5272522 C60.72668973 4.47580996 55.23909095 4.43624908 49.75140381 4.39910889 C44.15451918 4.35914487 38.55773797 4.30801795 32.9609375 4.2578125 C21.97403085 4.16091012 10.98706597 4.0765513 0 4 C0 2.68 0 1.36 0 0 Z " fill="#747372" transform="translate(0,165)"/>
<path d="M0 0 C17.82 0 35.64 0 54 0 C54 0.33 54 0.66 54 1 C69.84 1.33 85.68 1.66 102 2 C102 2.99 102 3.98 102 5 C85.5 5 69 5 52 5 C52 4.34 52 3.68 52 3 C50.65504204 3.0449485 50.65504204 3.0449485 49.28291321 3.09080505 C24.48641827 3.89619638 -0.28070002 4.13112449 -25.08911133 4.06866455 C-29.73062656 4.05815821 -34.37214801 4.05381053 -39.01367188 4.04882812 C-48.00912982 4.03832264 -57.00456184 4.02141875 -66 4 C-66 3.34 -66 2.68 -66 2 C-44.22 1.67 -22.44 1.34 0 1 C0 0.67 0 0.34 0 0 Z M-77 4 C-73.37 4 -69.74 4 -66 4 C-66 4.33 -66 4.66 -66 5 C-69.63 5.33 -73.26 5.66 -77 6 C-77 5.34 -77 4.68 -77 4 Z M-123 6 C-107.82 6 -92.64 6 -77 6 C-77 6.33 -77 6.66 -77 7 C-92.18 7 -107.36 7 -123 7 C-123 6.67 -123 6.34 -123 6 Z " fill="#292929" transform="translate(123,101)"/>
<path d="M0 0 C0 0.33 0 0.66 0 1 C1.94652466 0.99214478 1.94652466 0.99214478 3.93237305 0.98413086 C37.6347803 0.86092266 71.30641136 1.23044056 105 2 C105 2.33 105 2.66 105 3 C90.71428855 3.897676 76.48586371 4.12606509 62.17402077 4.07516479 C58.4965978 4.06219877 54.81921158 4.05583693 51.14176941 4.05102539 C43.36532938 4.03972052 35.58892073 4.02040898 27.8125 4 C18.72849959 3.97638102 9.64451534 3.95606187 0.56049156 3.94406128 C-3.06753935 3.93756789 -6.69551844 3.92507402 -10.3235321 3.91235352 C-12.52322341 3.9087251 -14.7229152 3.90537287 -16.92260742 3.90234375 C-17.93487396 3.89717743 -18.9471405 3.89201111 -19.99008179 3.88668823 C-20.90493851 3.88661774 -21.81979523 3.88654724 -22.76237488 3.88647461 C-23.56140323 3.884254 -24.36043158 3.88203339 -25.1836729 3.87974548 C-27.02066252 3.80104633 -27.02066252 3.80104633 -28 5 C-30.73894085 5.08858646 -33.4525327 5.11523479 -36.19140625 5.09765625 C-37.01124496 5.0962413 -37.83108368 5.09482635 -38.67576599 5.09336853 C-41.30471382 5.08775289 -43.93357773 5.07519779 -46.5625 5.0625 C-48.34049357 5.05748701 -50.11848846 5.05292376 -51.89648438 5.04882812 C-56.26435545 5.03777839 -60.63216348 5.02050331 -65 5 C-65 3.35 -65 1.7 -65 0 C-58.47556636 -0.17073687 -51.95092042 -0.33010339 -45.42602539 -0.48217773 C-43.21404982 -0.53500055 -41.00213106 -0.59026912 -38.7902832 -0.64819336 C-25.79761122 -0.98662083 -12.95968941 -1.06928866 0 0 Z " fill="#4F504C" transform="translate(65,65)"/>
<path d="M0 0 C1.44767588 0.00138269 1.44767588 0.00138269 2.92459774 0.00279331 C4.02822659 0.00141865 5.13185543 0.00004398 6.26892757 -0.00137234 C7.49027905 0.00222294 8.71163052 0.00581821 9.96999264 0.00952244 C11.88678829 0.0093034 11.88678829 0.0093034 13.84230709 0.00907993 C17.35661253 0.00879197 20.87088412 0.01468843 24.38518167 0.02165389 C28.05407018 0.02788771 31.72295939 0.02849125 35.39185238 0.0296793 C42.34398097 0.03279253 49.29609392 0.04100581 56.24821562 0.05102879 C64.16102442 0.06219017 72.07383396 0.06770044 79.98664868 0.07272422 C96.26813383 0.08318843 112.54960323 0.10078772 128.83107662 0.12304783 C128.83107662 1.11304783 128.83107662 2.10304783 128.83107662 3.12304783 C111.91573271 3.1697219 95.00040882 3.20501408 78.0850153 3.22667217 C70.23130424 3.23699467 62.37763313 3.25107353 54.52394772 3.27392673 C47.68047748 3.29383089 40.83703616 3.30675718 33.99353778 3.31122482 C30.36832434 3.31383726 26.74319368 3.31999769 23.11800671 3.33450794 C19.07587381 3.35055656 15.03388578 3.35102944 10.99172115 3.35009861 C9.7833157 3.35728916 8.57491024 3.36447971 7.32988644 3.37188816 C6.23329708 3.36913883 5.13670773 3.3663895 4.00688839 3.36355686 C3.05006727 3.36540045 2.09324615 3.36724403 1.10743046 3.36914349 C-1.16892338 3.12304783 -1.16892338 3.12304783 -3.16892338 1.12304783 C-2.16892338 0.12304783 -2.16892338 0.12304783 0 0 Z " fill="#969797" transform="translate(96.16892337799072,81.87695217132568)"/>
<path d="M0 0 C0 0.66 0 1.32 0 2 C10.89 2.495 10.89 2.495 22 3 C22.33 3.99 22.66 4.98 23 6 C15.71578452 6.02312916 8.4315769 6.04091801 1.14733219 6.05181217 C-2.23471813 6.05703975 -5.6167434 6.06413511 -8.9987793 6.07543945 C-12.88329777 6.08834267 -16.76780597 6.09322924 -20.65234375 6.09765625 C-21.87211411 6.10281754 -23.09188446 6.10797882 -24.34861755 6.11329651 C-26.03024742 6.11340981 -26.03024742 6.11340981 -27.74584961 6.11352539 C-28.73846298 6.115746 -29.73107635 6.11796661 -30.75376892 6.12025452 C-33 6 -33 6 -34 5 C-36.73805204 4.87483363 -39.45211719 4.81392327 -42.19165039 4.79467773 C-43.47934074 4.77982834 -43.47934074 4.77982834 -44.79304504 4.76467896 C-47.64455359 4.73296691 -50.49607882 4.70826836 -53.34765625 4.68359375 C-55.31921331 4.66303259 -57.29076588 4.64203635 -59.26231384 4.62062073 C-64.46221285 4.56531347 -69.6621522 4.5159425 -74.86212158 4.46777344 C-80.16397714 4.41762143 -85.4657738 4.36190256 -90.76757812 4.30664062 C-101.17833515 4.19895327 -111.58914323 4.09753195 -122 4 C-122 3.67 -122 3.34 -122 3 C-100.22 2.67 -78.44 2.34 -56 2 C-56 1.67 -56 1.34 -56 1 C-37.32396808 -0.05535599 -18.69763569 -0.11136684 0 0 Z " fill="#887B73" transform="translate(122,117)"/>
<path d="M0 0 C44.55 0 89.1 0 135 0 C135 0.33 135 0.66 135 1 C118.5 1.33 102 1.66 85 2 C85 2.33 85 2.66 85 3 C65.52819177 4.13018098 46.08186121 4.15829992 26.58547211 4.12857056 C23.9136901 4.12496789 21.24191354 4.12337357 18.57012939 4.12231445 C-17.62531285 4.10455435 -53.81091714 3.65246191 -90 3 C-90 2.67 -90 2.34 -90 2 C-60.3 2 -30.6 2 0 2 C0 1.34 0 0.68 0 0 Z " fill="#010100" transform="translate(90,57)"/>
<path d="M0 0 C27.06 0 54.12 0 82 0 C82 1.65 82 3.3 82 5 C62.53 5 43.06 5 23 5 C23 4.01 23 3.02 23 2 C15.08 2 7.16 2 -1 2 C-0.67 1.34 -0.34 0.68 0 0 Z " fill="#8F8A8C" transform="translate(143,12)"/>
<path d="M0 0 C44.55 0 89.1 0 135 0 C135 0.99 135 1.98 135 3 C107.775 3.495 107.775 3.495 80 4 C80 3.34 80 2.68 80 2 C53.6 2 27.2 2 0 2 C0 1.34 0 0.68 0 0 Z M37 4 C51.19 4 65.38 4 80 4 C80 4.66 80 5.32 80 6 C83.96 6 87.92 6 92 6 C91.67 6.99 91.34 7.98 91 9 C86.71 9 82.42 9 78 9 C77.505 7.515 77.505 7.515 77 6 C63.8 6 50.6 6 37 6 C37 5.34 37 4.68 37 4 Z " fill="#323232" transform="translate(90,89)"/>
<path d="M0 0 C1.32 0 2.64 0 4 0 C4.33 0.99 4.66 1.98 5 3 C-47.47 3 -99.94 3 -154 3 C-154 2.34 -154 1.68 -154 1 C-153.21240075 1.00092179 -152.4248015 1.00184359 -151.61333561 1.00279331 C-132.47744078 1.02484707 -113.34154847 1.04141083 -94.20564365 1.05181217 C-84.9517884 1.05697546 -75.69794162 1.06401878 -66.4440918 1.07543945 C-58.38143802 1.08538529 -50.31879037 1.09185319 -42.25613064 1.09408849 C-37.98431479 1.09539577 -33.71251649 1.0984827 -29.44070625 1.10573006 C-25.42464044 1.11248869 -21.40859949 1.11461728 -17.39252853 1.11310768 C-15.91423215 1.11338408 -14.43593499 1.11539013 -12.95764351 1.11920547 C-10.94801043 1.12414021 -8.93836419 1.12239814 -6.9287262 1.12025452 C-5.80137338 1.12117631 -4.67402056 1.1220981 -3.51250553 1.12304783 C-1.06103639 1.284927 -1.06103639 1.284927 0 0 Z " fill="#695F51" transform="translate(154,20)"/>
<path d="M0 0 C74.25 0 148.5 0 225 0 C225 0.33 225 0.66 225 1 C212.81265608 1.17880185 200.62514697 1.3432879 188.4375 1.5 C187.04491219 1.5180368 187.04491219 1.5180368 185.62419128 1.53643799 C161.49529798 1.84691504 137.36931478 2.04325274 113.23828125 2.03125 C112.14441542 2.03074142 111.05054958 2.03023285 109.9235363 2.02970886 C99.1729143 2.02318488 88.42235923 2.00506957 77.67178631 1.97194672 C73.6830524 1.96032276 69.69431545 1.9521957 65.70557213 1.94456482 C62.9457608 1.93763838 60.18601305 1.92504458 57.42622375 1.91223145 C55.77926696 1.90864674 54.13230954 1.90533378 52.48535156 1.90234375 C51.73398139 1.89717995 50.98261122 1.89201614 50.20847225 1.88669586 C48.47190409 1.88650877 46.73544493 1.93755098 45 2 C44.67 2.33 44.34 2.66 44 3 C42.61839885 3.0927833 41.23211962 3.11747043 39.84741211 3.11352539 C38.96657455 3.11344986 38.085737 3.11337433 37.1782074 3.11329651 C36.22092239 3.10813522 35.26363739 3.10297394 34.27734375 3.09765625 C33.30213272 3.0962413 32.32692169 3.09482635 31.32215881 3.09336853 C28.19390857 3.08775133 25.06572877 3.07519593 21.9375 3.0625 C19.82226666 3.05748722 17.70703219 3.05292393 15.59179688 3.04882812 C10.39450704 3.03777631 5.19725855 3.02102146 0 3 C0 2.01 0 1.02 0 0 Z " fill="#232323" transform="translate(0,53)"/>
<path d="M0 0 C74.25 0 148.5 0 225 0 C225 0.33 225 0.66 225 1 C213.04183418 1.17947276 201.08349142 1.34380831 189.125 1.5 C187.75408014 1.5180368 187.75408014 1.5180368 186.35546494 1.53643799 C162.11560177 1.85312544 137.87877889 2.04297423 113.63671875 2.03125 C111.94810226 2.03048714 111.94810226 2.03048714 110.22537231 2.02970886 C99.11693374 2.02316432 88.00855966 2.00500824 76.90016842 1.97194672 C72.76736597 1.96031633 68.63456059 1.95219132 64.50174904 1.94456482 C61.63750641 1.93763423 58.77332484 1.92503779 55.90910339 1.91223145 C54.19827329 1.90864622 52.48744258 1.90533332 50.77661133 1.90234375 C49.60512637 1.89459805 49.60512637 1.89459805 48.40997505 1.88669586 C46.60625459 1.8865089 44.80263807 1.93752183 43 2 C42.67 2.33 42.34 2.66 42 3 C38.89748799 3.08874135 35.8173188 3.11518455 32.71484375 3.09765625 C31.78402481 3.0962413 30.85320587 3.09482635 29.8941803 3.09336853 C26.90858809 3.08775172 23.92306971 3.0751964 20.9375 3.0625 C18.91862087 3.05748716 16.89974057 3.05292388 14.88085938 3.04882812 C9.92054428 3.03777683 4.96028468 3.02050095 0 3 C0 2.01 0 1.02 0 0 Z " fill="#222222" transform="translate(0,49)"/>
<path d="M0 0 C48.51 0 97.02 0 147 0 C147 0.33 147 0.66 147 1 C146.20042374 1.01030746 145.40084747 1.02061493 144.57704163 1.03123474 C137.05732704 1.12904082 129.53769807 1.23153065 122.01812077 1.33933926 C118.1518399 1.39460355 114.28555152 1.448029 110.41918945 1.49731445 C106.69089913 1.5449065 102.96270348 1.59724715 99.23452568 1.65294075 C97.80913067 1.67338778 96.38370968 1.69209691 94.95826912 1.70907402 C92.96829459 1.73306596 90.97840345 1.76370136 88.98852539 1.79467773 C87.28642662 1.81799416 87.28642662 1.81799416 85.54994202 1.84178162 C83.06584162 1.71350527 83.06584162 1.71350527 82 3 C79.44410112 3.09506052 76.91532028 3.12556761 74.35913086 3.11352539 C73.15922264 3.11374443 73.15922264 3.11374443 71.93507385 3.1139679 C69.27830335 3.11326855 66.62160207 3.10547518 63.96484375 3.09765625 C62.12781309 3.09579215 60.29078194 3.09436821 58.45375061 3.09336853 C53.60890338 3.08954275 48.76408592 3.07971196 43.91925049 3.06866455 C38.97937422 3.05845172 34.03949315 3.05387119 29.09960938 3.04882812 C19.39972647 3.03808974 9.69986571 3.0210126 0 3 C0 2.01 0 1.02 0 0 Z " fill="#434242" transform="translate(0,143)"/>
<path d="M0 0 C0.78375 0.04125 1.5675 0.0825 2.375 0.125 C2.375 0.785 2.375 1.445 2.375 2.125 C23.825 2.125 45.275 2.125 67.375 2.125 C67.375 2.785 67.375 3.445 67.375 4.125 C-7.62904393 5.30141535 -82.62470401 5.80074345 -157.625 4.125 C-157.625 3.795 -157.625 3.465 -157.625 3.125 C-156.83832254 3.12168985 -156.05164509 3.11837971 -155.24112892 3.11496925 C-136.12150676 3.0338369 -117.00196602 2.9417768 -97.88245583 2.83747292 C-88.63649789 2.78729787 -79.39054904 2.74085562 -70.14453125 2.703125 C-62.08804517 2.67023916 -54.03162859 2.63042703 -45.97521913 2.58220994 C-41.70729443 2.55691091 -37.43941605 2.53513981 -33.17143631 2.52165604 C-29.1577544 2.5088664 -25.14423105 2.48684595 -21.13063622 2.45761681 C-19.65439119 2.44851667 -18.17812062 2.44284515 -16.70184898 2.44078636 C-14.69252378 2.43748111 -12.68323341 2.42085915 -10.67398071 2.4034729 C-9.54754969 2.39794214 -8.42111866 2.39241138 -7.26055336 2.38671303 C-3.83371825 2.04642495 -3.44610886 0.16410042 0 0 Z " fill="#363435" transform="translate(157.625,23.875)"/>
<path d="M0 0 C30.36 0 60.72 0 92 0 C92 0.33 92 0.66 92 1 C83.61101292 1.81473305 75.29294258 2.16859328 66.8671875 2.24609375 C64.40884984 2.27897468 61.95051659 2.31218711 59.4921875 2.34570312 C55.65822857 2.39341747 51.82429449 2.43801305 47.99023438 2.47680664 C44.26155321 2.51629737 40.5331936 2.56782397 36.8046875 2.62109375 C35.07205154 2.63371498 35.07205154 2.63371498 33.30441284 2.64659119 C31.71102585 2.67155418 31.71102585 2.67155418 30.08544922 2.69702148 C29.14901581 2.70732895 28.2125824 2.71763641 27.24777222 2.72825623 C24.7988344 2.78974703 24.7988344 2.78974703 23 5 C20.22873271 5.18810219 17.55819478 5.25176684 14.78662109 5.22705078 C13.9377684 5.22734283 13.08891571 5.22763489 12.21434021 5.22793579 C9.40060301 5.22653928 6.58712861 5.21096303 3.7734375 5.1953125 C1.82573593 5.19158351 -0.12196752 5.188736 -2.06967163 5.18673706 C-7.20224158 5.17909161 -12.33469879 5.15943532 -17.46722412 5.1373291 C-22.70209223 5.11689028 -27.93697851 5.10773955 -33.171875 5.09765625 C-43.44796627 5.07619027 -53.72397377 5.04204336 -64 5 C-64 4.67 -64 4.34 -64 4 C-37.27 3.505 -37.27 3.505 -10 3 C-10 2.67 -10 2.34 -10 2 C-6.7 2 -3.4 2 0 2 C0 1.34 0 0.68 0 0 Z " fill="#3A3938" transform="translate(64,115)"/>
<path d="M0 0 C52.8 0 105.6 0 160 0 C159.67 0.99 159.34 1.98 159 3 C155.54210946 3.19635974 152.08367803 3.38058252 148.625 3.5625 C147.64015625 3.61857422 146.6553125 3.67464844 145.640625 3.73242188 C144.22910156 3.80493164 144.22910156 3.80493164 142.7890625 3.87890625 C141.91975098 3.9260376 141.05043945 3.97316895 140.15478516 4.02172852 C138 4 138 4 136 3 C136 2.34 136 1.68 136 1 C134.87561523 1.0721875 133.75123047 1.144375 132.59277344 1.21875 C121.31461449 1.87852186 110.05998293 2.08679707 98.765625 2.0625 C97.70245811 2.06033981 97.70245811 2.06033981 96.61781311 2.05813599 C91.49517471 2.04590278 86.37259577 2.02378373 81.25 2 C76.05633745 1.97630056 70.86270242 1.95606506 65.66899872 1.94406128 C63.60759936 1.93759249 61.54629294 1.92511185 59.48492432 1.91235352 C58.2514325 1.90905029 57.01794067 1.90574707 55.74707031 1.90234375 C54.65791321 1.89710693 53.5687561 1.89187012 52.44659424 1.88647461 C50.05319521 1.72228103 50.05319521 1.72228103 49 3 C47.4651703 3.09319449 45.92607918 3.117458 44.38842773 3.11352539 C43.40748642 3.11344986 42.4265451 3.11337433 41.4158783 3.11329651 C40.3492244 3.10813522 39.2825705 3.10297394 38.18359375 3.09765625 C36.55430687 3.09553383 36.55430687 3.09553383 34.8921051 3.09336853 C31.40720925 3.08775048 27.92237658 3.07519492 24.4375 3.0625 C22.08138113 3.05748733 19.72526126 3.05292402 17.36914062 3.04882812 C11.57940536 3.03777519 5.78970719 3.02101951 0 3 C0 2.01 0 1.02 0 0 Z M113 2 C115 3 115 3 115 3 Z " fill="#393939" transform="translate(0,109)"/>
<path d="M0 0 C1.09012957 0.00128403 1.09012957 0.00128403 2.20228195 0.00259399 C11.07237866 0.01383187 19.94244189 0.03367416 28.8125 0.0625 C28.8125 1.0525 28.8125 2.0425 28.8125 3.0625 C-12.1075 3.0625 -53.0275 3.0625 -95.1875 3.0625 C-95.1875 2.4025 -95.1875 1.7425 -95.1875 1.0625 C-63.45547112 0.39415756 -31.73887513 -0.03765549 0 0 Z " fill="#786D57" transform="translate(95.1875,37.9375)"/>
<path d="M0 0 C47.52 0 95.04 0 144 0 C144 0.99 144 1.98 144 3 C139.05 3 134.1 3 129 3 C129 3.66 129 4.32 129 5 C124.38 5 119.76 5 115 5 C114.505 3.02 114.505 3.02 114 1 C114 2.32 114 3.64 114 5 C112.35 5 110.7 5 109 5 C109 5.66 109 6.32 109 7 C105.04 7 101.08 7 97 7 C97.33 6.01 97.66 5.02 98 4 C100.31 4 102.62 4 105 4 C105 3.34 105 2.68 105 2 C70.35 1.67 35.7 1.34 0 1 C0 0.67 0 0.34 0 0 Z M95 7 C97.6015625 7.0234375 97.6015625 7.0234375 100.625 7.375 C101.62789062 7.48585937 102.63078125 7.59671875 103.6640625 7.7109375 C104.82035156 7.85402344 104.82035156 7.85402344 106 8 C106 8.33 106 8.66 106 9 C101.71 9 97.42 9 93 9 C93.66 8.34 94.32 7.68 95 7 Z " fill="#CDBBB1" transform="translate(0,164)"/>
<path d="M0 0 C23.76 0 47.52 0 72 0 C72 1.32 72 2.64 72 4 C50.22 4 28.44 4 6 4 C5.67 3.01 5.34 2.02 5 1 C3.35 1.33 1.7 1.66 0 2 C0 1.34 0 0.68 0 0 Z M-2 2 C0 3 0 3 0 3 Z " fill="#767173" transform="translate(153,19)"/>
<path d="M0 0 C5.51350585 -0.02490465 11.02697822 -0.04295608 16.54052734 -0.05493164 C18.41227795 -0.05992942 20.28402471 -0.06672988 22.15576172 -0.07543945 C24.86166335 -0.08770621 27.56751292 -0.093274 30.2734375 -0.09765625 C31.09677582 -0.10281754 31.92011414 -0.10797882 32.7684021 -0.11329651 C38.56511673 -0.11384375 44.24346122 0.32839588 50 1 C50 3 50 3 48 5.5625 C45 8 45 8 37 9 C70.165 9.495 70.165 9.495 104 10 C104 10.33 104 10.66 104 11 C77.6 11 51.2 11 24 11 C23.67 10.01 23.34 9.02 23 8 C15.74 7.67 8.48 7.34 1 7 C1 6.67 1 6.34 1 6 C10.9 5.505 10.9 5.505 21 5 C20.67 4.01 20.34 3.02 20 2 C13.4 1.67 6.8 1.34 0 1 C0 0.67 0 0.34 0 0 Z " fill="#BBBCBD" transform="translate(121,108)"/>
<path d="M0 0 C33.33 0 66.66 0 101 0 C101 0.99 101 1.98 101 3 C75.26 3 49.52 3 23 3 C23 2.34 23 1.68 23 1 C15.41 1.33 7.82 1.66 0 2 C0 1.34 0 0.68 0 0 Z M-2 2 C0 3 0 3 0 3 Z " fill="#454646" transform="translate(124,39)"/>
<path d="M0 0 C28.05 0 56.1 0 85 0 C85 0.99 85 1.98 85 3 C56.95 3 28.9 3 0 3 C0 2.01 0 1.02 0 0 Z " fill="#93948A" transform="translate(0,42)"/>
<path d="M0 0 C10.89 0 21.78 0 33 0 C33 0.33 33 0.66 33 1 C56.1 1.33 79.2 1.66 103 2 C103 2.66 103 3.32 103 4 C92.83614311 4.02342013 82.67229289 4.04106338 72.50841427 4.05181217 C67.78627999 4.05697731 63.06416449 4.06395539 58.34204102 4.07543945 C18.226055 4.17053406 18.226055 4.17053406 -1 3 C-0.67 2.01 -0.34 1.02 0 0 Z " fill="#5A5A5A" transform="translate(122,117)"/>
<path d="M0 0 C26.07 0 52.14 0 79 0 C79 0.99 79 1.98 79 3 C52.6 3 26.2 3 -1 3 C-0.67 2.01 -0.34 1.02 0 0 Z " fill="#A7A7A7" transform="translate(146,122)"/>
<path d="M0 0 C0.75146301 -0.00043808 1.50292603 -0.00087616 2.27716064 -0.00132751 C4.76096582 0.0007625 7.24409595 0.02410292 9.7277832 0.04760742 C11.44985078 0.05320264 13.17192313 0.05747309 14.89399719 0.06047058 C19.42657657 0.07192526 23.95886757 0.10139772 28.49133301 0.13458252 C33.11633401 0.16527002 37.74138161 0.17897309 42.36645508 0.1940918 C51.44145157 0.22626689 60.51623403 0.27747072 69.59106445 0.34057617 C69.59106445 1.33057617 69.59106445 2.32057617 69.59106445 3.34057617 C43.85106445 3.34057617 18.11106445 3.34057617 -8.40893555 3.34057617 C-8.73893555 4.00057617 -9.06893555 4.66057617 -9.40893555 5.34057617 C-9.73893555 4.68057617 -10.06893555 4.02057617 -10.40893555 3.34057617 C-7.71428476 -0.50208776 -4.28315623 -0.0651382 0 0 Z " fill="#A5A4A4" transform="translate(155.408935546875,129.659423828125)"/>
<path d="M0 0 C5.35277985 -0.02494306 10.70552497 -0.04297376 16.05834961 -0.05493164 C17.87476186 -0.05992311 19.69117018 -0.06671864 21.50756836 -0.07543945 C45.91089064 -0.18956778 45.91089064 -0.18956778 50 1 C51.32 2.32 52.64 3.64 54 5 C36.18 5 18.36 5 0 5 C0 3.35 0 1.7 0 0 Z " fill="#8C8C8C" transform="translate(0,72)"/>
<path d="M0 0 C24.75 0 49.5 0 75 0 C75 0.99 75 1.98 75 3 C50.25 3 25.5 3 0 3 C0 2.01 0 1.02 0 0 Z " fill="#A7A7A7" transform="translate(150,140)"/>
<path d="M0 0 C1.56047445 0.00015913 3.12095416 0.00585397 4.68139648 0.01586914 C5.5012352 0.01728409 6.32107391 0.01869904 7.16575623 0.02015686 C9.79470406 0.0257725 12.42356797 0.0383276 15.05249023 0.05102539 C16.8304838 0.05603838 18.60847869 0.06060163 20.38647461 0.06469727 C24.75434569 0.07574701 29.12215371 0.09302208 33.48999023 0.11352539 C33.48999023 0.44352539 33.48999023 0.77352539 33.48999023 1.11352539 C24.90999023 1.11352539 16.32999023 1.11352539 7.48999023 1.11352539 C7.48999023 1.77352539 7.48999023 2.43352539 7.48999023 3.11352539 C3.03499023 3.60852539 3.03499023 3.60852539 -1.51000977 4.11352539 C-1.51000977 4.44352539 -1.51000977 4.77352539 -1.51000977 5.11352539 C-19.66000977 5.11352539 -37.81000977 5.11352539 -56.51000977 5.11352539 C-56.51000977 4.12352539 -56.51000977 3.13352539 -56.51000977 2.11352539 C-55.53615074 2.09806419 -55.53615074 2.09806419 -54.5426178 2.08229065 C-47.81101925 1.97446403 -41.07956107 1.85984758 -34.34814453 1.74121094 C-31.8328748 1.69778533 -29.31757414 1.6561161 -26.80224609 1.61621094 C-23.19562433 1.55869246 -19.58915945 1.49494572 -15.98266602 1.42993164 C-14.85039078 1.41321915 -13.71811554 1.39650665 -12.55152893 1.37928772 C-11.51052536 1.3593425 -10.46952179 1.33939728 -9.39697266 1.31884766 C-8.47541885 1.30330338 -7.55386505 1.28775909 -6.60438538 1.27174377 C-3.49122078 1.03656157 -3.64974915 0.11804503 0 0 Z " fill="#ADADAD" transform="translate(56.510009765625,113.886474609375)"/>
<path d="M0 0 C17.82 0 35.64 0 54 0 C54 1.32 54 2.64 54 4 C46.34622001 4.05057791 38.69248287 4.08568184 31.03857422 4.10986328 C28.43308909 4.11994064 25.82761531 4.1336027 23.22216797 4.15087891 C19.48402101 4.17505102 15.74602315 4.1864656 12.0078125 4.1953125 C10.25152023 4.21079636 10.25152023 4.21079636 8.45974731 4.22659302 C6.838293 4.22681961 6.838293 4.22681961 5.18408203 4.22705078 C4.22921906 4.231492 3.27435608 4.23593323 2.29055786 4.24050903 C0 4 0 4 -2 2 C-1.34 2 -0.68 2 0 2 C0 1.34 0 0.68 0 0 Z " fill="#7C7C7C" transform="translate(171,109)"/>
<path d="M0 0 C0.83272934 0.00222061 1.66545868 0.00444122 2.52342224 0.00672913 C3.46432205 0.00680466 4.40522186 0.00688019 5.37463379 0.00695801 C6.39754013 0.01211929 7.42044647 0.01728058 8.47434998 0.02259827 C9.51614914 0.02401321 10.5579483 0.02542816 11.63131714 0.02688599 C14.97355467 0.03250372 18.31572629 0.04505922 21.65794373 0.05775452 C23.91770839 0.06276723 26.17747409 0.06733053 28.4372406 0.07142639 C33.98999763 0.08247891 39.54271597 0.09923428 45.09544373 0.12025452 C43.77544373 0.45025452 42.45544373 0.78025452 41.09544373 1.12025452 C41.09544373 1.78025452 41.09544373 2.44025452 41.09544373 3.12025452 C3.47544373 3.12025452 -34.14455627 3.12025452 -72.90455627 3.12025452 C-72.90455627 2.79025452 -72.90455627 2.46025452 -72.90455627 2.12025452 C-72.02981155 2.10994705 -71.15506683 2.09963959 -70.2538147 2.08901978 C-62.02773269 1.99121942 -53.80172556 1.88873038 -45.57576847 1.78091526 C-41.34628014 1.72564765 -37.11678494 1.67222166 -32.88722229 1.62294006 C-28.80880964 1.57535293 -24.73048365 1.52301244 -20.652174 1.46731377 C-19.0928048 1.44686451 -17.53341181 1.42815577 -15.97400093 1.4111805 C-13.79720037 1.38719308 -11.62056503 1.35713133 -9.44386292 1.32557678 C-8.20254105 1.3100325 -6.96121918 1.29448822 -5.68228149 1.2784729 C-2.77213497 1.11271184 -2.61998521 0.16542701 0 0 Z " fill="#9F9B87" transform="translate(72.90455627441406,7.8797454833984375)"/>
<path d="M0 0 C31.35 0 62.7 0 95 0 C95 0.33 95 0.66 95 1 C93.73293213 1.02505615 92.46586426 1.0501123 91.16040039 1.07592773 C86.47702221 1.16981996 81.7937987 1.27008435 77.1105957 1.37231445 C75.08035896 1.41573241 73.05008408 1.45740226 71.01977539 1.49731445 C68.10811849 1.55485146 65.19665486 1.61859278 62.28515625 1.68359375 C60.91485008 1.70866249 60.91485008 1.70866249 59.51686096 1.73423767 C55.43210684 1.4230685 55.43210684 1.4230685 52 3 C50.37325222 3.09340434 48.74245949 3.11745171 47.11303711 3.11352539 C46.07203354 3.11344986 45.03102997 3.11337433 43.95848083 3.11329651 C42.8262056 3.10813522 41.69393036 3.10297394 40.52734375 3.09765625 C39.37456436 3.0962413 38.22178497 3.09482635 37.03407288 3.09336853 C33.33518936 3.08775005 29.63636536 3.07519442 25.9375 3.0625 C23.43684983 3.05748738 20.93619871 3.05292406 18.43554688 3.04882812 C12.29034412 3.03777462 6.14517631 3.02101852 0 3 C0 2.01 0 1.02 0 0 Z " fill="#414141" transform="translate(0,113)"/>
<path d="M0 0 C0.99261337 0.00222061 1.98522675 0.00444122 3.00791931 0.00672913 C4.12900589 0.00680466 5.25009247 0.00688019 6.40515137 0.00695801 C8.2348069 0.01469994 8.2348069 0.01469994 10.10142517 0.02259827 C11.96377052 0.02472069 11.96377052 0.02472069 13.86373901 0.02688599 C17.16982383 0.03154861 20.47584039 0.04053955 23.78190613 0.05158997 C27.15338042 0.06180625 30.52486175 0.06638407 33.89634705 0.07142639 C40.51550667 0.08248056 47.13463385 0.09923715 53.75376892 0.12025452 C53.42376892 1.11025452 53.09376892 2.10025452 52.75376892 3.12025452 C24.37376892 3.12025452 -4.00623108 3.12025452 -33.24623108 3.12025452 C-33.24623108 2.79025452 -33.24623108 2.46025452 -33.24623108 2.12025452 C-32.34267883 2.09519836 -31.43912659 2.07014221 -30.50819397 2.04432678 C-27.16658827 1.94938135 -23.82516856 1.85013831 -20.48377991 1.74794006 C-19.03558868 1.70453822 -17.58734454 1.66286707 -16.13905334 1.62294006 C-14.06133549 1.56536389 -11.98388534 1.50163424 -9.90638733 1.43666077 C-8.65478821 1.40000305 -7.40318909 1.36334534 -6.11366272 1.32557678 C-3.08033367 1.10837544 -2.83873873 0.15197508 0 0 Z " fill="#8D8E90" transform="translate(127.24623107910156,71.87974548339844)"/>
<path d="M0 0 C11.88 0 23.76 0 36 0 C36 0.33 36 0.66 36 1 C28.74 1 21.48 1 14 1 C14 1.66 14 2.32 14 3 C7.565 3.495 7.565 3.495 1 4 C1 4.33 1 4.66 1 5 C-12.86 5 -26.72 5 -41 5 C-41 4.01 -41 3.02 -41 2 C-27.47 2 -13.94 2 0 2 C0 1.34 0 0.68 0 0 Z " fill="#ABABAA" transform="translate(41,98)"/>
<path d="M0 0 C1.40897804 0.00333092 1.40897804 0.00333092 2.84642029 0.00672913 C3.90744461 0.00680466 4.96846893 0.00688019 6.06164551 0.00695801 C7.79286903 0.01469994 7.79286903 0.01469994 9.55906677 0.02259827 C10.73404221 0.02401321 11.90901764 0.02542816 13.11959839 0.02688599 C16.88981116 0.0325046 20.65996556 0.04506026 24.43016052 0.05775452 C26.97898779 0.06276712 29.52781599 0.06733044 32.0766449 0.07142639 C38.34033685 0.08248007 44.60399452 0.0992363 50.86766052 0.12025452 C50.86766052 0.78025452 50.86766052 1.44025452 50.86766052 2.12025452 C54.82766052 2.12025452 58.78766052 2.12025452 62.86766052 2.12025452 C62.86766052 2.45025452 62.86766052 2.78025452 62.86766052 3.12025452 C35.14766052 3.12025452 7.42766052 3.12025452 -21.13233948 3.12025452 C-21.13233948 2.79025452 -21.13233948 2.46025452 -21.13233948 2.12025452 C-19.84456604 2.05966858 -18.5567926 1.99908264 -17.22999573 1.93666077 C-15.55159789 1.85227205 -13.87321311 1.76762322 -12.19483948 1.68275452 C-10.9196344 1.62377991 -10.9196344 1.62377991 -9.6186676 1.56361389 C-8.80978088 1.52171936 -8.00089417 1.47982483 -7.16749573 1.43666077 C-6.04419861 1.38167419 -6.04419861 1.38167419 -4.89820862 1.32557678 C-2.60692098 1.05916272 -2.41990268 0.13647181 0 0 Z " fill="#999B9C" transform="translate(117.13233947753906,95.87974548339844)"/>
<path d="M0 0 C18.15 0 36.3 0 55 0 C55 1.32 55 2.64 55 4 C40.48 4 25.96 4 11 4 C11 3.01 11 2.02 11 1 C7.37 1 3.74 1 0 1 C0 0.67 0 0.34 0 0 Z " fill="#757575" transform="translate(170,71)"/>
<path d="M0 0 C2.5942688 -0.36076355 2.5942688 -0.36076355 5.91845703 -0.34057617 C7.15959259 -0.34034958 8.40072815 -0.34012299 9.67947388 -0.33988953 C11.03892372 -0.32456848 12.39836991 -0.30892047 13.7578125 -0.29296875 C15.1450047 -0.28737427 16.53220283 -0.28310347 17.91940308 -0.28010559 C21.57249281 -0.26864497 25.22522534 -0.23916786 28.87817383 -0.20599365 C32.60493131 -0.17531867 36.33174645 -0.16160579 40.05859375 -0.14648438 C47.37255877 -0.11429886 54.68622936 -0.06308839 62 0 C62 0.99 62 1.98 62 3 C40.88 3 19.76 3 -2 3 C-1.34 2.01 -0.68 1.02 0 0 Z " fill="#825C56" transform="translate(104,14)"/>
<path d="M0 0 C27.39 0 54.78 0 83 0 C78.00113292 4.99886708 66.87828232 3.10726314 60.11236095 3.11638546 C57.87306634 3.11321786 55.63381381 3.1055391 53.39453125 3.09765625 C51.81841578 3.09578692 50.24229973 3.09436545 48.66618347 3.09336853 C44.55470117 3.08958387 40.44325523 3.07978909 36.33178711 3.06866455 C32.12158703 3.05836243 27.91138097 3.05385221 23.70117188 3.04882812 C15.46743139 3.03816243 7.23372024 3.02113582 -1 3 C-0.67 2.01 -0.34 1.02 0 0 Z M-2 3 C-0.515 3.99 -0.515 3.99 1 5 C0.01 5 -0.98 5 -2 5 C-2 4.34 -2 3.68 -2 3 Z " fill="#686A6A" transform="translate(94,80)"/>
<path d="M0 0 C0 0.66 0 1.32 0 2 C5.94 2 11.88 2 18 2 C18 2.33 18 2.66 18 3 C-11.7 3 -41.4 3 -72 3 C-72 2.34 -72 1.68 -72 1 C-64.08892679 0.86864681 -56.17783947 0.73819168 -48.26673317 0.60884857 C-44.5923656 0.54874679 -40.91800343 0.48834835 -37.24365234 0.42724609 C-33.69046542 0.36817007 -30.13726597 0.30990707 -26.58405685 0.25218201 C-24.58464412 0.21949518 -22.58524482 0.18599004 -20.58584595 0.15246582 C-13.72312435 0.04170937 -6.86363261 -0.03148742 0 0 Z " fill="#76766E" transform="translate(72,14)"/>
<path d="M0 0 C1.21538405 0.00138269 1.21538405 0.00138269 2.45532131 0.00279331 C3.38225292 0.00141865 4.30918453 0.00004398 5.26420498 -0.00137234 C6.80168392 0.00402058 6.80168392 0.00402058 8.37022305 0.00952244 C9.44326183 0.00937641 10.51630062 0.00923038 11.62185574 0.00907993 C15.18765656 0.00977959 18.75340589 0.01757445 22.31919765 0.02539158 C24.78399534 0.02725557 27.24879339 0.02867956 29.71359158 0.0296793 C36.21558045 0.03350596 42.71754716 0.0433375 49.21952724 0.05438328 C55.84844957 0.06513035 62.47737833 0.06917624 69.10630703 0.0742197 C82.12389464 0.08495964 95.14146685 0.10184686 108.1590414 0.12304783 C108.1590414 0.45304783 108.1590414 0.78304783 108.1590414 1.12304783 C80.7690414 1.12304783 53.3790414 1.12304783 25.1590414 1.12304783 C25.1590414 1.78304783 25.1590414 2.44304783 25.1590414 3.12304783 C12.9490414 3.12304783 0.7390414 3.12304783 -11.8409586 3.12304783 C-11.8409586 2.79304783 -11.8409586 2.46304783 -11.8409586 2.12304783 C-10.88382969 2.03216892 -10.88382969 2.03216892 -9.90736485 1.93945408 C-8.66793125 1.81377048 -8.66793125 1.81377048 -7.4034586 1.68554783 C-6.57974766 1.60433689 -5.75603672 1.52312595 -4.90736485 1.43945408 C-2.62452236 1.08990731 -2.24565738 0.15009749 0 0 Z " fill="#C6A7AA" transform="translate(116.84095859527588,9.876952171325684)"/>
<path d="M0 0 C17.82 0 35.64 0 54 0 C54 0.99 54 1.98 54 3 C35.85 3 17.7 3 -1 3 C-0.67 2.01 -0.34 1.02 0 0 Z " fill="#A5A5A5" transform="translate(171,92)"/>
<path d="M0 0 C17.16 0 34.32 0 52 0 C52 0.99 52 1.98 52 3 C34.51 3 17.02 3 -1 3 C-0.67 2.01 -0.34 1.02 0 0 Z " fill="#515151" transform="translate(173,65)"/>
<path d="M0 0 C0.91644287 0.00523682 1.83288574 0.01047363 2.77709961 0.01586914 C3.76645508 0.0190918 4.75581055 0.02231445 5.77514648 0.02563477 C6.81606445 0.03401367 7.85698242 0.04239258 8.92944336 0.05102539 C10.49662109 0.05779297 10.49662109 0.05779297 12.09545898 0.06469727 C14.68600996 0.07652627 17.27644895 0.0930085 19.86694336 0.11352539 C19.86694336 0.77352539 19.86694336 1.43352539 19.86694336 2.11352539 C45.60694336 2.11352539 71.34694336 2.11352539 97.86694336 2.11352539 C97.86694336 2.44352539 97.86694336 2.77352539 97.86694336 3.11352539 C61.89694336 3.11352539 25.92694336 3.11352539 -11.13305664 3.11352539 C-11.13305664 2.78352539 -11.13305664 2.45352539 -11.13305664 2.11352539 C-9.08227539 1.88566081 -7.03149414 1.65779622 -4.98071289 1.42993164 C-2.65693868 1.03199145 -2.44321283 0.1300325 0 0 Z " fill="#B3B6B8" transform="translate(127.133056640625,39.886474609375)"/>
<path d="M0 0 C14.19 0 28.38 0 43 0 C42.67 0.99 42.34 1.98 42 3 C39.08361706 3.17374196 36.16709069 3.33890693 33.25 3.5 C32.07050781 3.57154297 32.07050781 3.57154297 30.8671875 3.64453125 C12.69539394 4.62301244 -5.57048249 3.90005141 -23.75 3.5 C-26.01952713 3.4516293 -28.28905838 3.40345116 -30.55859375 3.35546875 C-36.03911171 3.23919026 -41.51957482 3.12056819 -47 3 C-47 2.67 -47 2.34 -47 2 C-31.49 1.67 -15.98 1.34 0 1 C0 0.67 0 0.34 0 0 Z " fill="#121212" transform="translate(47,87)"/>
<path d="M0 0 C15.84 0 31.68 0 48 0 C48 0.99 48 1.98 48 3 C31.5 3 15 3 -2 3 C-1.34 2.67 -0.68 2.34 0 2 C0 1.34 0 0.68 0 0 Z " fill="#515151" transform="translate(177,79)"/>
<path d="M0 0 C0.85049423 0.00222061 1.70098846 0.00444122 2.57725525 0.00672913 C4.01863609 0.00684242 4.01863609 0.00684242 5.48913574 0.00695801 C7.05630592 0.01469994 7.05630592 0.01469994 8.65513611 0.02259827 C9.71913132 0.02401321 10.78312653 0.02542816 11.87936401 0.02688599 C15.29293069 0.03250388 18.70643286 0.04505941 22.11997986 0.05775452 C24.42792162 0.06276721 26.73586441 0.06733052 29.04380798 0.07142639 C34.71505412 0.08247912 40.38626238 0.09923465 46.05747986 0.12025452 C46.05747986 0.78025452 46.05747986 1.44025452 46.05747986 2.12025452 C33.98716924 2.9080701 21.98768761 3.25909062 9.89341736 3.21791077 C8.23762556 3.21603826 6.5818332 3.21461831 4.92604065 3.21362305 C0.63546633 3.20986327 -3.65507238 3.20009162 -7.94563293 3.18891907 C-12.35084044 3.17856159 -16.75605388 3.1740952 -21.16127014 3.16908264 C-29.75503621 3.15846119 -38.34877371 3.14146687 -46.94252014 3.12025452 C-46.94252014 2.79025452 -46.94252014 2.46025452 -46.94252014 2.12025452 C-46.3935054 2.10994705 -45.84449066 2.09963959 -45.27883911 2.08901978 C-39.58530733 1.98117504 -33.89194093 1.86656003 -28.19862366 1.74794006 C-26.07138007 1.70452029 -23.94410004 1.66285059 -21.81678772 1.62294006 C-18.76613863 1.56540745 -15.71567425 1.50166484 -12.66517639 1.43666077 C-11.70789139 1.41994827 -10.75060638 1.40323578 -9.76431274 1.38601685 C-8.44305641 1.35609901 -8.44305641 1.35609901 -7.09510803 1.32557678 C-6.31567337 1.3100325 -5.53623871 1.29448822 -4.73318481 1.2784729 C-2.50071124 1.08121745 -2.28564766 0.14149632 0 0 Z " fill="#8F9087" transform="translate(46.94252014160156,79.87974548339844)"/>
<path d="M0 0 C0.9237442 0.0028299 1.8474884 0.00565979 2.79922485 0.00857544 C5.73347226 0.01972071 8.6674082 0.04481485 11.6015625 0.0703125 C13.59765182 0.08034961 15.59374596 0.08947418 17.58984375 0.09765625 C22.46886899 0.11964153 27.34766304 0.15413233 32.2265625 0.1953125 C31.8965625 1.1853125 31.5665625 2.1753125 31.2265625 3.1953125 C17.0365625 3.1953125 2.8465625 3.1953125 -11.7734375 3.1953125 C-11.7734375 3.8553125 -11.7734375 4.5153125 -11.7734375 5.1953125 C-13.0934375 4.8653125 -14.4134375 4.5353125 -15.7734375 4.1953125 C-15.7734375 3.5353125 -15.7734375 2.8753125 -15.7734375 2.1953125 C-10.41724371 -0.01919394 -5.68918841 -0.0661541 0 0 Z " fill="#8B8E90" transform="translate(138.7734375,89.8046875)"/>
<path d="M0 0 C14.52 0 29.04 0 44 0 C44 0.99 44 1.98 44 3 C29.48 3 14.96 3 0 3 C0 2.01 0 1.02 0 0 Z " fill="#A6A6A6" transform="translate(0,78)"/>
<path d="M0 0 C28.01705593 -0.14429194 55.99362016 0.22014376 84 1 C84 1.33 84 1.66 84 2 C66.22110229 2.98951385 48.47884461 3.12620266 30.67987061 3.06866455 C27.09192519 3.05821854 23.50397204 3.0538226 19.91601562 3.04882812 C12.94399244 3.03827616 5.97199927 3.02133501 -1 3 C-0.67 2.01 -0.34 1.02 0 0 Z " fill="#493D2A" transform="translate(91,58)"/>
<path d="M0 0 C24.09 0 48.18 0 73 0 C70.48601314 2.51398686 69.55260566 2.29328274 66.06640625 2.4140625 C64.52218994 2.47219116 64.52218994 2.47219116 62.94677734 2.53149414 C61.82996582 2.56235107 60.7131543 2.59320801 59.5625 2.625 C57.84861084 2.68192017 57.84861084 2.68192017 56.10009766 2.73999023 C43.40207307 3.12098281 30.70215863 3.09757035 18 3 C18 2.34 18 1.68 18 1 C12.06 1 6.12 1 0 1 C0 0.67 0 0.34 0 0 Z " fill="#767879" transform="translate(96,94)"/>
<path d="M0 0 C1.93166016 0.01740234 1.93166016 0.01740234 3.90234375 0.03515625 C5.19269531 0.04417969 6.48304688 0.05320313 7.8125 0.0625 C8.81152344 0.07410156 9.81054688 0.08570313 10.83984375 0.09765625 C10.83984375 1.08765625 10.83984375 2.07765625 10.83984375 3.09765625 C5.88984375 3.09765625 0.93984375 3.09765625 -4.16015625 3.09765625 C-4.16015625 3.75765625 -4.16015625 4.41765625 -4.16015625 5.09765625 C-6.80015625 5.42765625 -9.44015625 5.75765625 -12.16015625 6.09765625 C-12.16015625 6.42765625 -12.16015625 6.75765625 -12.16015625 7.09765625 C-17.77015625 7.09765625 -23.38015625 7.09765625 -29.16015625 7.09765625 C-26.16015625 4.09765625 -26.16015625 4.09765625 -24.1171875 3.8046875 C-22.13151042 3.90234375 -20.14583333 4 -18.16015625 4.09765625 C-18.16015625 3.43765625 -18.16015625 2.77765625 -18.16015625 2.09765625 C-17.16113281 2.03707031 -16.16210938 1.97648438 -15.1328125 1.9140625 C-13.84246094 1.83027344 -12.55210938 1.74648437 -11.22265625 1.66015625 C-9.93488281 1.57894531 -8.64710937 1.49773437 -7.3203125 1.4140625 C-3.76252479 1.05784395 -3.57508214 0.11047843 0 0 Z " fill="#725847" transform="translate(133.16015625,167.90234375)"/>
<path d="M0 0 C17.82 0 35.64 0 54 0 C53.34 1.32 52.68 2.64 52 4 C40.12 3.67 28.24 3.34 16 3 C16 2.34 16 1.68 16 1 C10.72 1 5.44 1 0 1 C0 0.67 0 0.34 0 0 Z " fill="#323333" transform="translate(123,101)"/>
<path d="M0 0 C24.42 0 48.84 0 74 0 C73 3 73 3 71.1875 4.25 C68.66056586 5.11637742 67.47778006 4.88492145 65 4 C65 3.01 65 2.02 65 1 C43.55 1 22.1 1 0 1 C0 0.67 0 0.34 0 0 Z " fill="#070704" transform="translate(0,5)"/>
<path d="M0 0 C1.06669922 0.00322266 2.13339844 0.00644531 3.23242188 0.00976562 C4.88661133 0.02233398 4.88661133 0.02233398 6.57421875 0.03515625 C7.69634766 0.03966797 8.81847656 0.04417969 9.97460938 0.04882812 C12.73703385 0.06058312 15.49934873 0.07701548 18.26171875 0.09765625 C18.26171875 0.75765625 18.26171875 1.41765625 18.26171875 2.09765625 C13.31171875 2.09765625 8.36171875 2.09765625 3.26171875 2.09765625 C3.26171875 2.75765625 3.26171875 3.41765625 3.26171875 4.09765625 C-1.35828125 4.09765625 -5.97828125 4.09765625 -10.73828125 4.09765625 C-10.73828125 3.10765625 -10.73828125 2.11765625 -10.73828125 1.09765625 C-7.09180065 0.25660845 -3.73877218 -0.01999343 0 0 Z " fill="#52342B" transform="translate(125.73828125,164.90234375)"/>
<path d="M0 0 C14.85 0 29.7 0 45 0 C44.67 0.99 44.34 1.98 44 3 C40.54210946 3.19635974 37.08367803 3.38058252 33.625 3.5625 C32.64015625 3.61857422 31.6553125 3.67464844 30.640625 3.73242188 C29.22910156 3.80493164 29.22910156 3.80493164 27.7890625 3.87890625 C26.91975098 3.9260376 26.05043945 3.97316895 25.15478516 4.02172852 C23 4 23 4 21 3 C21 2.34 21 1.68 21 1 C10.605 1.495 10.605 1.495 0 2 C0 1.34 0 0.68 0 0 Z M-2 2 C0 3 0 3 0 3 Z " fill="#060606" transform="translate(115,109)"/>
<path d="M0 0 C12.21 0 24.42 0 37 0 C36.67 0.66 36.34 1.32 36 2 C24.12 2.33 12.24 2.66 0 3 C0 2.01 0 1.02 0 0 Z " fill="#6D6D6D" transform="translate(58,104)"/>
<path d="M0 0 C0.83265381 0.00523682 1.66530762 0.01047363 2.52319336 0.01586914 C3.42231445 0.0190918 4.32143555 0.02231445 5.24780273 0.02563477 C6.66609375 0.03820312 6.66609375 0.03820312 8.11303711 0.05102539 C9.06243164 0.05553711 10.01182617 0.06004883 10.98999023 0.06469727 C13.34356776 0.07652429 15.69702188 0.09300514 18.05053711 0.11352539 C18.05053711 0.77352539 18.05053711 1.43352539 18.05053711 2.11352539 C18.71053711 2.44352539 19.37053711 2.77352539 20.05053711 3.11352539 C6.19053711 3.11352539 -7.66946289 3.11352539 -21.94946289 3.11352539 C-21.94946289 2.78352539 -21.94946289 2.45352539 -21.94946289 2.11352539 C-21.3791333 2.08846924 -20.80880371 2.06341309 -20.22119141 2.03759766 C-17.65120133 1.9219599 -15.08160762 1.79908915 -12.51196289 1.67602539 C-11.61413086 1.63670898 -10.71629883 1.59739258 -9.79125977 1.55688477 C-8.93725586 1.51499023 -8.08325195 1.4730957 -7.20336914 1.42993164 C-6.41260986 1.39327393 -5.62185059 1.35661621 -4.80712891 1.31884766 C-2.54310584 1.06861196 -2.30484275 0.13422065 0 0 Z " fill="#7C7D7C" transform="translate(117.949462890625,109.886474609375)"/>
<path d="M0 0 C0 0.33 0 0.66 0 1 C-13.85664525 2.24611054 -27.60752579 1.91703384 -41.5 1.5625 C-43.78774596 1.50914197 -46.07550644 1.45640313 -48.36328125 1.40429688 C-53.90904169 1.27665986 -59.45457471 1.14141665 -65 1 C-65 0.67 -65 0.34 -65 0 C-58.47556636 -0.17073687 -51.95092042 -0.33010339 -45.42602539 -0.48217773 C-43.21404982 -0.53500055 -41.00213106 -0.59026912 -38.7902832 -0.64819336 C-25.79761122 -0.98662083 -12.95968941 -1.06928866 0 0 Z " fill="#050505" transform="translate(65,65)"/>
<path d="M0 0 C0 0.99 0 1.98 0 3 C-6.93 3 -13.86 3 -21 3 C-21 2.67 -21 2.34 -21 2 C-14.11997829 -0.62096065 -7.27823961 -0.18170362 0 0 Z " fill="#885849" transform="translate(144,172)"/>
<path d="M0 0 C4.62 0 9.24 0 14 0 C14 0.99 14 1.98 14 3 C9.05 3 4.1 3 -1 3 C-0.67 2.01 -0.34 1.02 0 0 Z M-3 3 C-2.34 3 -1.68 3 -1 3 C-1.33 3.66 -1.66 4.32 -2 5 C-2.33 4.34 -2.66 3.68 -3 3 Z " fill="#7B3D34" transform="translate(130,168)"/>
<path d="M0 0 C0 0.33 0 0.66 0 1 C-8.69914783 2.33604659 -17.30616491 1.89096784 -26.0625 1.5625 C-27.61130777 1.50917109 -29.16013596 1.4564318 -30.70898438 1.40429688 C-34.4729262 1.27633041 -38.23650151 1.14037916 -42 1 C-42 0.67 -42 0.34 -42 0 C-37.46534937 -0.16914327 -32.93049926 -0.3295197 -28.39526367 -0.48217773 C-26.85611874 -0.53517393 -25.31705082 -0.59046331 -23.77807617 -0.64819336 C-15.77266112 -0.94699983 -7.95088182 -1.22112519 0 0 Z " fill="#040404" transform="translate(111,1)"/>
<path d="M0 0 C3.63 0.33 7.26 0.66 11 1 C11 1.66 11 2.32 11 3 C7.04 3 3.08 3 -1 3 C-0.67 2.01 -0.34 1.02 0 0 Z M-3 3 C-0.3984375 3.0234375 -0.3984375 3.0234375 2.625 3.375 C3.62789062 3.48585937 4.63078125 3.59671875 5.6640625 3.7109375 C6.82035156 3.85402344 6.82035156 3.85402344 8 4 C8 4.33 8 4.66 8 5 C3.71 5 -0.58 5 -5 5 C-4.34 4.34 -3.68 3.68 -3 3 Z " fill="#564336" transform="translate(98,168)"/>
<path d="M0 0 C3.96 0 7.92 0 12 0 C12.33 0.99 12.66 1.98 13 3 C9.37 3 5.74 3 2 3 C1.67 3.66 1.34 4.32 1 5 C0.34 4.34 -0.32 3.68 -1 3 C-0.67 2.01 -0.34 1.02 0 0 Z " fill="#8A8A8A" transform="translate(44,102)"/>
<path d="M0 0 C2.98657372 0.2059706 5.72254337 0.54637415 8.625 1.25 C8.625 1.58 8.625 1.91 8.625 2.25 C3.57497778 3.28590199 -1.24916389 3.35251672 -6.375 3.25 C-4.08533853 0.61342012 -3.70045116 0.27410749 0 0 Z " fill="#4C3B30" transform="translate(110.375,171.75)"/>
<path d="M0 0 C1.32 0 2.64 0 4 0 C4.33 0.99 4.66 1.98 5 3 C-0.94 3 -6.88 3 -13 3 C-13 2.67 -13 2.34 -13 2 C-12.14535156 1.93941406 -11.29070312 1.87882812 -10.41015625 1.81640625 C-8.75306641 1.69072266 -8.75306641 1.69072266 -7.0625 1.5625 C-5.96035156 1.48128906 -4.85820312 1.40007813 -3.72265625 1.31640625 C-1.08890097 1.29581916 -1.08890097 1.29581916 0 0 Z " fill="#575E62" transform="translate(154,20)"/>
<path d="M0 0 C-2 3 -2 3 -5.125 3.6875 C-6.07375 3.790625 -7.0225 3.89375 -8 4 C-8.33 3.01 -8.66 2.02 -9 1 C-6.04335481 -0.4783226 -3.25770263 -0.06032783 0 0 Z " fill="#1E1713" transform="translate(110,165)"/>
</svg>
