<?xml version="1.0" encoding="UTF-8"?>
<svg version="1.1" xmlns="http://www.w3.org/2000/svg" width="500" height="500">
<path d="M0 0 C9.73053322 7.82024449 13.42208496 16.69206464 15.91015625 28.53515625 C16.69664551 28.5194458 17.48313477 28.50373535 18.29345703 28.48754883 C21.87394963 28.4249971 25.45432701 28.38610074 29.03515625 28.34765625 C30.27265625 28.32251953 31.51015625 28.29738281 32.78515625 28.27148438 C34.58339844 28.25698242 34.58339844 28.25698242 36.41796875 28.2421875 C37.5177002 28.22647705 38.61743164 28.2107666 39.75048828 28.19458008 C43.47703941 28.59625979 45.78262465 29.47156945 48.91015625 31.53515625 C50.5088226 34.83023252 51.27422788 37.95450001 51.79223633 41.56445312 C51.93628906 42.54710648 52.0803418 43.52975983 52.22875977 44.54219055 C52.45196899 46.13198982 52.45196899 46.13198982 52.6796875 47.75390625 C52.84098145 48.86803391 53.00227539 49.98216156 53.16845703 51.13005066 C53.692755 54.76422155 54.20788571 58.39962465 54.72265625 62.03515625 C55.08189158 64.54017551 55.44151273 67.04513948 55.80151367 69.55004883 C58.05236267 85.26212303 60.22900326 100.98376191 62.32080078 116.71777344 C63.34527908 124.41817237 64.41887612 132.10680809 65.59765625 139.78515625 C65.82075211 141.28378879 66.04343095 142.78248349 66.265625 144.28125 C66.59288608 146.48351855 66.93478247 148.68033888 67.30712891 150.87548828 C69.7856144 165.49765359 69.7856144 165.49765359 66.78515625 170.03515625 C62.35586164 173.88671678 58.96537211 173.66085894 53.1920166 173.66886902 C52.18044424 173.67226735 52.18044424 173.67226735 51.14843607 173.67573434 C48.88995556 173.68206171 46.63153526 173.6812458 44.37304688 173.68041992 C42.75335106 173.68341214 41.13365596 173.68681482 39.51396179 173.69059753 C35.11530622 173.6994339 30.7166701 173.70177546 26.31800652 173.70241332 C22.64735092 173.70336271 18.97669986 173.70704123 15.30604601 173.71058542 C6.64820151 173.71872809 -2.00963258 173.72116977 -10.66748047 173.72045898 C-19.60387125 173.71985777 -28.54020176 173.73041868 -37.47657728 173.74620265 C-45.14629892 173.75926752 -52.81600082 173.76464335 -60.48573351 173.76400357 C-65.06779633 173.76374834 -69.64980555 173.76661382 -74.2318573 173.77718163 C-78.53938813 173.78684525 -82.8468139 173.78695376 -87.15434837 173.77966499 C-88.73620443 173.77861709 -90.31806697 173.78099422 -91.89991188 173.78702545 C-94.0573004 173.79471918 -96.2143237 173.79011825 -98.3717041 173.78239441 C-99.57958839 173.78293918 -100.78747269 173.78348394 -102.03195953 173.78404522 C-106.57128656 173.41457785 -108.37050428 172.33226214 -111.40234375 168.97265625 C-113.58181842 164.53298563 -112.748275 161.25281834 -112.08984375 156.53515625 C-111.8693957 154.61897964 -111.65346823 152.70227905 -111.44140625 150.78515625 C-110.26515927 140.58776871 -109.02212088 130.44816275 -107.14501953 120.35424805 C-105.99535488 114.1579937 -105.16055183 107.9421298 -104.36669922 101.69189453 C-103.81410664 97.3871301 -103.23425657 93.08604125 -102.65234375 88.78515625 C-102.52472656 87.8418042 -102.39710938 86.89845215 -102.265625 85.92651367 C-101.34856268 79.23023925 -100.32460085 72.55734393 -99.21069336 65.89111328 C-98.46833613 61.33358553 -97.8840893 56.78512252 -97.41015625 52.19140625 C-97.29349609 51.10778809 -97.17683594 50.02416992 -97.05664062 48.90771484 C-96.83349693 46.78753095 -96.62824544 44.66536595 -96.44335938 42.54150391 C-95.93987198 37.84046399 -95.61577509 35.21767556 -92.67578125 31.40234375 C-88.66682186 28.50765706 -85.71352721 28.41485727 -80.890625 28.4375 C-79.68212891 28.44072266 -78.47363281 28.44394531 -77.22851562 28.44726562 C-75.33456055 28.45983398 -75.33456055 28.45983398 -73.40234375 28.47265625 C-71.49098633 28.47942383 -71.49098633 28.47942383 -69.54101562 28.48632812 C-66.39057811 28.49812752 -63.24023426 28.51459028 -60.08984375 28.53515625 C-59.82155762 27.33693237 -59.82155762 27.33693237 -59.54785156 26.11450195 C-57.02862679 15.38172447 -52.32558307 5.17658677 -43.08984375 -1.46484375 C-28.1504472 -9.19628347 -14.18489458 -9.52455961 0 0 Z M-35.08984375 18.53515625 C-36.69934695 20.93106167 -37.29890613 22.68778082 -38.08984375 25.53515625 C-37.75984375 26.52515625 -37.42984375 27.51515625 -37.08984375 28.53515625 C-26.85984375 28.53515625 -16.62984375 28.53515625 -6.08984375 28.53515625 C-7.05161895 22.76450507 -7.73463926 19.66243772 -12.02734375 15.78515625 C-19.57734611 11.20939724 -28.79962284 12.62794645 -35.08984375 18.53515625 Z M-77.40234375 66.34765625 C-80.30198871 70.45286012 -81.82705185 74.70202464 -83.08984375 79.53515625 C-83.27546875 80.19644531 -83.46109375 80.85773438 -83.65234375 81.5390625 C-85.13451173 88.30145389 -83.8318188 94.95608976 -82.08984375 101.53515625 C-81.42984375 101.53515625 -80.76984375 101.53515625 -80.08984375 101.53515625 C-79.98671875 102.29828125 -79.88359375 103.06140625 -79.77734375 103.84765625 C-79.04273181 106.71932109 -78.41823725 107.76557719 -76.08984375 109.53515625 C-75.42984375 109.53515625 -74.76984375 109.53515625 -74.08984375 109.53515625 C-73.36796875 108.56578125 -72.64609375 107.59640625 -71.90234375 106.59765625 C-69.76673715 103.94223925 -69.20134216 103.56612803 -65.71484375 102.59765625 C-61.95919103 102.53290362 -58.74023559 102.62255829 -55.08984375 103.53515625 C-52.79662678 105.82837322 -52.1205557 107.4430204 -51.08984375 110.53515625 C-50.42984375 110.53515625 -49.76984375 110.53515625 -49.08984375 110.53515625 C-49.08984375 111.19515625 -49.08984375 111.85515625 -49.08984375 112.53515625 C-47.97609375 112.81359375 -47.97609375 112.81359375 -46.83984375 113.09765625 C-43.88831104 114.6405029 -43.45435946 115.2802777 -41.96484375 118.09765625 C-40.45657942 121.79147688 -40.45657942 121.79147688 -37.08984375 122.53515625 C-36.30609375 122.04015625 -35.52234375 121.54515625 -34.71484375 121.03515625 C-32.08984375 119.53515625 -32.08984375 119.53515625 -29.58984375 119.53515625 C-26.25434002 120.86935774 -24.48378884 122.88921694 -22.08984375 125.53515625 C-20.507391 127.2866479 -20.507391 127.2866479 -19.08984375 128.53515625 C-18.42984375 128.53515625 -17.76984375 128.53515625 -17.08984375 128.53515625 C-16.75984375 129.52515625 -16.42984375 130.51515625 -16.08984375 131.53515625 C-13.77727881 134.26442016 -13.77727881 134.26442016 -11.08984375 136.53515625 C-10.09984375 136.53515625 -9.10984375 136.53515625 -8.08984375 136.53515625 C-7.98671875 137.17453125 -7.88359375 137.81390625 -7.77734375 138.47265625 C-7.55046875 139.15328125 -7.32359375 139.83390625 -7.08984375 140.53515625 C-5.60484375 141.03015625 -5.60484375 141.03015625 -4.08984375 141.53515625 C-4.08984375 142.19515625 -4.08984375 142.85515625 -4.08984375 143.53515625 C-2.43984375 143.53515625 -0.78984375 143.53515625 0.91015625 143.53515625 C1.24015625 141.88515625 1.57015625 140.23515625 1.91015625 138.53515625 C1.25015625 138.53515625 0.59015625 138.53515625 -0.08984375 138.53515625 C-0.74984375 137.21515625 -1.40984375 135.89515625 -2.08984375 134.53515625 C-2.74984375 134.53515625 -3.40984375 134.53515625 -4.08984375 134.53515625 C-4.33734375 133.95765625 -4.58484375 133.38015625 -4.83984375 132.78515625 C-6.27284363 130.20575646 -7.87409051 128.47394033 -10.08984375 126.53515625 C-10.74984375 126.53515625 -11.40984375 126.53515625 -12.08984375 126.53515625 C-12.41984375 125.54515625 -12.74984375 124.55515625 -13.08984375 123.53515625 C-14.57484375 122.54515625 -14.57484375 122.54515625 -16.08984375 121.53515625 C-16.08984375 120.87515625 -16.08984375 120.21515625 -16.08984375 119.53515625 C-17.42317708 117.86848958 -17.42317708 117.86848958 -19.08984375 116.53515625 C-19.74984375 116.53515625 -20.40984375 116.53515625 -21.08984375 116.53515625 C-21.41984375 115.54515625 -21.74984375 114.55515625 -22.08984375 113.53515625 C-21.42984375 112.54515625 -20.76984375 111.55515625 -20.08984375 110.53515625 C-14.66405323 110.91369977 -12.6495985 112.51902269 -9.08984375 116.53515625 C-7.82140625 117.77265625 -7.82140625 117.77265625 -6.52734375 119.03515625 C-4.08984375 121.53515625 -4.08984375 121.53515625 -1.96484375 124.34765625 C-1.34609375 125.06953125 -0.72734375 125.79140625 -0.08984375 126.53515625 C0.90015625 126.53515625 1.89015625 126.53515625 2.91015625 126.53515625 C2.91015625 127.19515625 2.91015625 127.85515625 2.91015625 128.53515625 C3.57015625 128.53515625 4.23015625 128.53515625 4.91015625 128.53515625 C5.15765625 129.17453125 5.40515625 129.81390625 5.66015625 130.47265625 C6.72578058 132.72257166 6.72578058 132.72257166 9.03515625 133.28515625 C9.65390625 133.36765625 10.27265625 133.45015625 10.91015625 133.53515625 C11.57015625 131.88515625 12.23015625 130.23515625 12.91015625 128.53515625 C11.29420793 126.49395837 9.62451805 124.49442688 7.91015625 122.53515625 C7.25015625 122.53515625 6.59015625 122.53515625 5.91015625 122.53515625 C5.68328125 121.97828125 5.45640625 121.42140625 5.22265625 120.84765625 C2.99052903 116.91486068 -0.25872139 114.19232277 -3.77734375 111.41015625 C-6.08984375 109.53515625 -6.08984375 109.53515625 -8.08984375 106.53515625 C-8.74984375 106.53515625 -9.40984375 106.53515625 -10.08984375 106.53515625 C-11.0240802 103.52483881 -11.13434286 102.66865357 -10.08984375 99.53515625 C-4.33984375 100.41015625 -4.33984375 100.41015625 -2.08984375 101.53515625 C-2.08984375 102.19515625 -2.08984375 102.85515625 -2.08984375 103.53515625 C-0.61280163 104.78743109 0.86843024 106.03682147 2.40234375 107.21875 C3.91015625 108.53515625 3.91015625 108.53515625 5.91015625 111.53515625 C6.57015625 111.53515625 7.23015625 111.53515625 7.91015625 111.53515625 C8.24015625 112.52515625 8.57015625 113.51515625 8.91015625 114.53515625 C10.54619821 115.90589411 12.21693686 117.23570881 13.91015625 118.53515625 C14.90015625 119.67984375 14.90015625 119.67984375 15.91015625 120.84765625 C16.57015625 121.40453125 17.23015625 121.96140625 17.91015625 122.53515625 C20.61721137 122.39490426 20.61721137 122.39490426 22.91015625 121.53515625 C22.91015625 119.88515625 22.91015625 118.23515625 22.91015625 116.53515625 C21.42515625 116.04015625 21.42515625 116.04015625 19.91015625 115.53515625 C18.89663961 113.87667448 17.8989483 112.20849664 16.91015625 110.53515625 C15.26924992 108.84312139 13.59831595 107.18004907 11.91015625 105.53515625 C4.24348958 97.86848958 -3.42317708 90.20182292 -11.08984375 82.53515625 C-12.19070313 83.14488281 -13.2915625 83.75460938 -14.42578125 84.3828125 C-15.35463135 84.89726929 -15.35463135 84.89726929 -16.30224609 85.42211914 C-19.98108957 87.71272927 -22.67703802 91.06942671 -25.52734375 94.28515625 C-28.58488138 96.96982344 -30.05555402 97.37694881 -34.08984375 97.53515625 C-36.78976943 97.31545163 -39.40876586 96.95118558 -42.08984375 96.53515625 C-42.41984375 95.54515625 -42.74984375 94.55515625 -43.08984375 93.53515625 C-43.74984375 93.53515625 -44.40984375 93.53515625 -45.08984375 93.53515625 C-46.41270621 88.57442203 -46.17877572 83.62404113 -46.08984375 78.53515625 C-45.42984375 78.53515625 -44.76984375 78.53515625 -44.08984375 78.53515625 C-42.58934439 77.05153931 -42.58934439 77.05153931 -41.02734375 75.09765625 C-37.5191372 70.94553837 -33.7353397 67.17708392 -29.8125 63.41796875 C-27.86483335 61.71455409 -27.86483335 61.71455409 -28.08984375 59.53515625 C-28.74984375 59.53515625 -29.40984375 59.53515625 -30.08984375 59.53515625 C-30.4971875 59.08527344 -30.90453125 58.63539063 -31.32421875 58.171875 C-35.82155415 54.00288488 -43.67111137 52.88068945 -49.58984375 52.03515625 C-61.00536136 53.66594448 -70.06368359 57.34437318 -77.40234375 66.34765625 Z M-16.08984375 60.53515625 C-16.08984375 61.19515625 -16.08984375 61.85515625 -16.08984375 62.53515625 C-16.66347656 62.79425781 -17.23710937 63.05335938 -17.828125 63.3203125 C-20.27956591 64.63706228 -22.18219197 66.14480338 -24.27734375 67.97265625 C-24.97214844 68.56949219 -25.66695312 69.16632813 -26.3828125 69.78125 C-28.32844712 71.5258671 -28.32844712 71.5258671 -29.08984375 74.53515625 C-29.68796875 74.82390625 -30.28609375 75.11265625 -30.90234375 75.41015625 C-34.96507018 77.49955841 -36.76118844 80.66421967 -38.33984375 84.84765625 C-38.58734375 85.73453125 -38.83484375 86.62140625 -39.08984375 87.53515625 C-37.84100105 89.11848155 -37.84100105 89.11848155 -36.08984375 90.53515625 C-32.04205751 90.98680675 -32.04205751 90.98680675 -29.71484375 88.34765625 C-28.41546875 86.95546875 -28.41546875 86.95546875 -27.08984375 85.53515625 C-25.99690135 84.62566281 -24.89273657 83.72947269 -23.77734375 82.84765625 C-22.89046875 82.08453125 -22.00359375 81.32140625 -21.08984375 80.53515625 C-21.08984375 79.87515625 -21.08984375 79.21515625 -21.08984375 78.53515625 C-20.49171875 78.26703125 -19.89359375 77.99890625 -19.27734375 77.72265625 C-17.09136521 76.53598219 -15.67651781 75.43916512 -14.08984375 73.53515625 C-14.08984375 72.87515625 -14.08984375 72.21515625 -14.08984375 71.53515625 C-10.80409802 73.17802911 -8.57866651 74.97943398 -6.27734375 77.78515625 C-4.16274391 80.36014998 -2.00745092 82.56959967 0.53515625 84.72265625 C5.82505423 89.21754066 10.6417295 94.17940007 15.50927734 99.12084961 C16.87815542 100.50284869 18.26313788 101.86883715 19.6484375 103.234375 C21.91015625 105.53515625 21.91015625 105.53515625 23.91015625 108.22265625 C26.10555502 110.76108607 27.73785846 111.56584304 30.91015625 112.53515625 C31.24015625 111.54515625 31.57015625 110.55515625 31.91015625 109.53515625 C32.57015625 109.53515625 33.23015625 109.53515625 33.91015625 109.53515625 C39.59034159 99.8944747 42.27260241 90.98889686 40.28515625 79.78515625 C38.30241438 72.54615238 34.54293149 66.48100768 28.91015625 61.53515625 C28.03488281 60.71144531 27.15960938 59.88773437 26.2578125 59.0390625 C22.73240746 56.11176066 19.20284871 55.16930463 14.78515625 54.22265625 C14.08261719 54.05443359 13.38007813 53.88621094 12.65625 53.71289062 C2.61654025 51.3880051 -8.15883143 53.64949226 -16.08984375 60.53515625 Z M-64.08984375 110.53515625 C-66.33984375 111.70182292 -66.33984375 111.70182292 -68.08984375 113.53515625 C-68.08984375 114.52515625 -68.08984375 115.51515625 -68.08984375 116.53515625 C-69.07984375 117.03015625 -69.07984375 117.03015625 -70.08984375 117.53515625 C-69.75984375 118.52515625 -69.42984375 119.51515625 -69.08984375 120.53515625 C-67.10984375 119.87515625 -65.12984375 119.21515625 -63.08984375 118.53515625 C-63.08984375 117.87515625 -63.08984375 117.21515625 -63.08984375 116.53515625 C-61.76984375 116.20515625 -60.44984375 115.87515625 -59.08984375 115.53515625 C-59.88102279 113.53532091 -59.88102279 113.53532091 -61.08984375 111.53515625 C-62.07984375 111.20515625 -63.06984375 110.87515625 -64.08984375 110.53515625 Z M-59.08984375 125.53515625 C-59.50854928 128.20443746 -59.50854928 128.20443746 -59.08984375 130.53515625 C-56.74450424 131.30471761 -56.74450424 131.30471761 -54.08984375 131.53515625 C-52.21343956 130.32596743 -52.21343956 130.32596743 -51.08984375 128.53515625 C-51.08984375 127.87515625 -51.08984375 127.21515625 -51.08984375 126.53515625 C-50.42984375 126.53515625 -49.76984375 126.53515625 -49.08984375 126.53515625 C-49.08984375 124.88515625 -49.08984375 123.23515625 -49.08984375 121.53515625 C-53.72978343 121.00487743 -55.89711235 122.15998305 -59.08984375 125.53515625 Z M-37.08984375 122.53515625 C-37.08984375 123.19515625 -37.08984375 123.85515625 -37.08984375 124.53515625 C-36.42984375 124.53515625 -35.76984375 124.53515625 -35.08984375 124.53515625 C-35.08984375 123.87515625 -35.08984375 123.21515625 -35.08984375 122.53515625 C-35.74984375 122.53515625 -36.40984375 122.53515625 -37.08984375 122.53515625 Z M-32.08984375 126.53515625 C-31.08984375 128.53515625 -31.08984375 128.53515625 -31.08984375 128.53515625 Z M-31.08984375 128.53515625 C-30.75984375 130.18515625 -30.42984375 131.83515625 -30.08984375 133.53515625 C-28.10984375 134.19515625 -26.12984375 134.85515625 -24.08984375 135.53515625 C-24.41984375 134.21515625 -24.74984375 132.89515625 -25.08984375 131.53515625 C-26.40984375 131.20515625 -27.72984375 130.87515625 -29.08984375 130.53515625 C-29.08984375 129.87515625 -29.08984375 129.21515625 -29.08984375 128.53515625 C-29.74984375 128.53515625 -30.40984375 128.53515625 -31.08984375 128.53515625 Z M-45.08984375 132.53515625 C-45.08984375 133.19515625 -45.08984375 133.85515625 -45.08984375 134.53515625 C-45.74984375 134.53515625 -46.40984375 134.53515625 -47.08984375 134.53515625 C-47.41984375 135.52515625 -47.74984375 136.51515625 -48.08984375 137.53515625 C-47.09984375 139.02015625 -47.09984375 139.02015625 -46.08984375 140.53515625 C-46.41984375 141.19515625 -46.74984375 141.85515625 -47.08984375 142.53515625 C-44.68107118 142.42174091 -44.68107118 142.42174091 -42.08984375 141.53515625 C-39.48796119 138.21551299 -39.08984375 136.84199584 -39.08984375 132.53515625 C-41.06984375 132.53515625 -43.04984375 132.53515625 -45.08984375 132.53515625 Z M-24.08984375 135.53515625 C-23.75984375 136.19515625 -23.42984375 136.85515625 -23.08984375 137.53515625 C-22.42984375 137.20515625 -21.76984375 136.87515625 -21.08984375 136.53515625 C-22.07984375 136.20515625 -23.06984375 135.87515625 -24.08984375 135.53515625 Z M-20.08984375 138.53515625 C-19.93638123 145.59443232 -19.21452325 149.54187879 -14.08984375 154.53515625 C-12.43984375 154.20515625 -10.78984375 153.87515625 -9.08984375 153.53515625 C-8.75984375 152.21515625 -8.42984375 150.89515625 -8.08984375 149.53515625 C-9.07984375 149.20515625 -10.06984375 148.87515625 -11.08984375 148.53515625 C-11.77425684 147.21084475 -12.43888524 145.87622867 -13.08984375 144.53515625 C-14.7936204 142.80073337 -14.7936204 142.80073337 -16.71484375 141.28515625 C-17.34648437 140.764375 -17.978125 140.24359375 -18.62890625 139.70703125 C-19.11101562 139.3203125 -19.593125 138.93359375 -20.08984375 138.53515625 Z M-31.08984375 141.53515625 C-34.78556109 144.16106068 -36.91766537 146.0808784 -38.08984375 150.53515625 C-37.75984375 151.19515625 -37.42984375 151.85515625 -37.08984375 152.53515625 C-34.1425684 152.43346464 -34.1425684 152.43346464 -31.08984375 151.53515625 C-29.77916042 149.09226997 -29.77916042 149.09226997 -29.08984375 146.53515625 C-28.42984375 146.20515625 -27.76984375 145.87515625 -27.08984375 145.53515625 C-28.40984375 144.21515625 -29.72984375 142.89515625 -31.08984375 141.53515625 Z " fill="#0C7844" transform="translate(272.08984375,116.46484375)"/>
<path d="M0 0 C2.32028784 0.89145024 2.32028784 0.89145024 5.9453125 1.08984375 C9.0703125 1.71484375 9.0703125 1.71484375 10.8828125 4.08984375 C11.470625 5.38921875 11.470625 5.38921875 12.0703125 6.71484375 C13.0603125 8.19984375 13.0603125 8.19984375 14.0703125 9.71484375 C11.64107468 8.6351825 9.90613697 7.56788735 7.91015625 5.78125 C4.55290783 3.33835535 1.29880761 2.33386875 -2.6796875 1.40234375 C-3.39125 1.23210693 -4.1028125 1.06187012 -4.8359375 0.88647461 C-14.44190994 -1.25098573 -21.95861611 0.65987699 -30.6171875 5.08984375 C-33.39064241 7.03875801 -35.55924248 9.2892721 -37.9296875 11.71484375 C-39.25446112 12.89122114 -40.58843501 14.05729001 -41.9296875 15.21484375 C-48.26062791 20.73656621 -53.2163013 25.57468515 -55.9296875 33.71484375 C-53.791139 35.85339225 -52.79693436 36.14139438 -49.9296875 36.71484375 C-49.5996875 35.72484375 -49.2696875 34.73484375 -48.9296875 33.71484375 C-46.72352753 31.85407086 -44.4029909 30.21334555 -42.05859375 28.53125 C-39.8733946 26.66681403 -39.11990472 25.2706227 -37.9296875 22.71484375 C-36.28825787 21.67393715 -34.62256535 20.66980049 -32.9296875 19.71484375 C-32.5996875 19.05484375 -32.2696875 18.39484375 -31.9296875 17.71484375 C-28.28226564 18.26988621 -26.94742719 19.48865647 -24.6796875 22.33984375 C-22.34577285 25.13264649 -20.02324203 27.61742558 -17.2421875 29.96484375 C-11.97092789 34.4330599 -7.17131809 39.37390091 -2.33447266 44.30175781 C-0.95536878 45.68901072 0.45769217 47.04223908 1.87109375 48.39453125 C4.0703125 50.71484375 4.0703125 50.71484375 5.0703125 53.71484375 C6.5553125 54.20984375 6.5553125 54.20984375 8.0703125 54.71484375 C8.0703125 55.37484375 8.0703125 56.03484375 8.0703125 56.71484375 C9.7203125 57.04484375 11.3703125 57.37484375 13.0703125 57.71484375 C13.5653125 56.72484375 13.5653125 56.72484375 14.0703125 55.71484375 C14.7303125 55.71484375 15.3903125 55.71484375 16.0703125 55.71484375 C14.1953125 59.58984375 14.1953125 59.58984375 13.0703125 60.71484375 C11.07072886 60.75565158 9.06985996 60.75738731 7.0703125 60.71484375 C7.3796875 62.35453125 7.3796875 62.35453125 7.6953125 64.02734375 C8.0703125 67.71484375 8.0703125 67.71484375 6.0703125 70.71484375 C2.4453125 70.90234375 2.4453125 70.90234375 -0.9296875 70.71484375 C-1.94079843 73.76397603 -1.94079843 73.76397603 -0.9296875 76.71484375 C-1.9296875 79.27734375 -1.9296875 79.27734375 -3.9296875 81.71484375 C-7.6171875 82.52734375 -7.6171875 82.52734375 -10.9296875 82.71484375 C-11.2596875 84.69484375 -11.5896875 86.67484375 -11.9296875 88.71484375 C-13.2496875 89.04484375 -14.5696875 89.37484375 -15.9296875 89.71484375 C-15.9296875 90.70484375 -15.9296875 91.69484375 -15.9296875 92.71484375 C-18.8046875 92.83984375 -18.8046875 92.83984375 -21.9296875 92.71484375 C-22.5896875 92.05484375 -23.2496875 91.39484375 -23.9296875 90.71484375 C-23.9296875 92.92327535 -23.90525825 95.13174032 -23.8671875 97.33984375 C-23.9296875 100.71484375 -23.9296875 100.71484375 -24.9296875 101.71484375 C-31.64036788 102.51102617 -31.64036788 102.51102617 -34.7578125 100.5859375 C-38.35748779 97.23963741 -39.49799012 94.67936366 -39.9296875 89.71484375 C-41.02661017 87.08222934 -41.89427641 85.75025484 -43.9296875 83.71484375 C-45.89659124 83.04191874 -45.89659124 83.04191874 -48.0546875 82.58984375 C-49.3334375 82.30109375 -50.6121875 82.01234375 -51.9296875 81.71484375 C-51.9296875 79.73484375 -51.9296875 77.75484375 -51.9296875 75.71484375 C-52.5896875 75.71484375 -53.2496875 75.71484375 -53.9296875 75.71484375 C-53.7234375 76.41609375 -53.5171875 77.11734375 -53.3046875 77.83984375 C-52.85118393 81.31670447 -53.65428473 83.48882498 -54.9296875 86.71484375 C-54.30320313 86.69164062 -53.67671875 86.6684375 -53.03125 86.64453125 C-52.21398437 86.62648438 -51.39671875 86.6084375 -50.5546875 86.58984375 C-49.74257812 86.56664062 -48.93046875 86.5434375 -48.09375 86.51953125 C-45.9296875 86.71484375 -45.9296875 86.71484375 -43.9296875 88.71484375 C-43.3671875 90.90234375 -43.3671875 90.90234375 -43.9296875 93.71484375 C-45.87817517 96.62276911 -47.96089305 98.84478071 -50.9296875 100.71484375 C-53.97050259 101.01628107 -55.91663135 100.50775326 -58.9296875 99.71484375 C-59.4246875 96.24984375 -59.4246875 96.24984375 -59.9296875 92.71484375 C-62.5696875 92.38484375 -65.2096875 92.05484375 -67.9296875 91.71484375 C-68.5896875 87.42484375 -69.2496875 83.13484375 -69.9296875 78.71484375 C-72.8996875 79.20984375 -72.8996875 79.20984375 -75.9296875 79.71484375 C-77.8671875 78.65234375 -77.8671875 78.65234375 -78.9296875 76.71484375 C-79.0236266 72.39364508 -78.18899291 70.98593577 -75.1796875 67.83984375 C-71.93152732 65.71604671 -70.68306942 64.98501949 -66.9296875 65.71484375 C-64.9296875 67.71484375 -64.9296875 67.71484375 -64.6171875 70.15234375 C-64.98627609 73.17887017 -65.75500223 73.72138225 -67.9296875 75.71484375 C-67.9296875 76.70484375 -67.9296875 77.69484375 -67.9296875 78.71484375 C-66.9396875 79.20984375 -66.9396875 79.20984375 -65.9296875 79.71484375 C-65.9296875 79.05484375 -65.9296875 78.39484375 -65.9296875 77.71484375 C-65.2696875 77.71484375 -64.6096875 77.71484375 -63.9296875 77.71484375 C-63.9296875 76.72484375 -63.9296875 75.73484375 -63.9296875 74.71484375 C-61.4546875 73.72484375 -61.4546875 73.72484375 -58.9296875 72.71484375 C-60.01824811 66.7888732 -60.01824811 66.7888732 -63.8046875 62.47265625 C-65.21856156 61.88527475 -66.63793475 61.31095518 -68.0625 60.75 C-71.31688594 58.94579022 -71.77136667 56.12545509 -72.9296875 52.71484375 C-73.5896875 52.38484375 -74.2496875 52.05484375 -74.9296875 51.71484375 C-75.5896875 53.03484375 -76.2496875 54.35484375 -76.9296875 55.71484375 C-76.4346875 56.20984375 -76.4346875 56.20984375 -75.9296875 56.71484375 C-75.43675326 59.74286838 -75.34501127 61.81860994 -77.05859375 64.4453125 C-79.68126901 67.32820097 -81.19278748 68.59925159 -85.1171875 69.21484375 C-87.9296875 68.71484375 -87.9296875 68.71484375 -90.9296875 66.71484375 C-90.5996875 64.40484375 -90.2696875 62.09484375 -89.9296875 59.71484375 C-91.5796875 59.38484375 -93.2296875 59.05484375 -94.9296875 58.71484375 C-95.2596875 59.37484375 -95.5896875 60.03484375 -95.9296875 60.71484375 C-96.62345376 58.84167486 -97.31476515 56.96757234 -97.99609375 55.08984375 C-98.88120964 52.72285478 -98.88120964 52.72285478 -100.01953125 50.58984375 C-104.07617034 42.27445544 -105.0342156 31.50758401 -102.2734375 22.59667969 C-100.5749662 18.38520577 -98.39679626 14.52908899 -95.9296875 10.71484375 C-95.44113281 9.94914063 -94.95257813 9.1834375 -94.44921875 8.39453125 C-92.67412534 6.43234574 -91.51414666 6.07132088 -88.9296875 5.71484375 C-89.31640625 6.21113281 -89.703125 6.70742187 -90.1015625 7.21875 C-100.29016506 20.50932809 -102.01023954 31.33049647 -99.9296875 47.71484375 C-99.2696875 47.71484375 -98.6096875 47.71484375 -97.9296875 47.71484375 C-97.6615625 48.49859375 -97.3934375 49.28234375 -97.1171875 50.08984375 C-96.08154318 52.99599298 -96.08154318 52.99599298 -92.9296875 54.71484375 C-92.49140625 54.19792969 -92.053125 53.68101562 -91.6015625 53.1484375 C-88.54151275 49.97021509 -86.33811749 47.9070657 -81.8671875 47.296875 C-76.99306203 47.5537223 -73.93136567 47.84975806 -70.1796875 51.08984375 C-68.9296875 53.71484375 -68.9296875 53.71484375 -68.9296875 56.71484375 C-68.2696875 56.71484375 -67.6096875 56.71484375 -66.9296875 56.71484375 C-66.9296875 57.37484375 -66.9296875 58.03484375 -66.9296875 58.71484375 C-66.2078125 58.71484375 -65.4859375 58.71484375 -64.7421875 58.71484375 C-60.86195987 60.09448024 -59.96770566 62.39142299 -58.04296875 65.90234375 C-57.05172453 67.87385782 -57.05172453 67.87385782 -54.9296875 68.71484375 C-54.5996875 68.05484375 -54.2696875 67.39484375 -53.9296875 66.71484375 C-51.66074419 65.17520365 -50.31010754 64.7048327 -47.5546875 64.77734375 C-42.69139656 66.51423337 -39.43565828 69.9896228 -36.2421875 73.90234375 C-34.05297025 76.8423913 -34.05297025 76.8423913 -30.9296875 78.71484375 C-30.9296875 79.37484375 -30.9296875 80.03484375 -30.9296875 80.71484375 C-29.4446875 81.20984375 -29.4446875 81.20984375 -27.9296875 81.71484375 C-25.40123222 82.97907139 -25.16545986 84.24329903 -23.9296875 86.71484375 C-23.2696875 87.04484375 -22.6096875 87.37484375 -21.9296875 87.71484375 C-21.9296875 88.37484375 -21.9296875 89.03484375 -21.9296875 89.71484375 C-20.2796875 89.38484375 -18.6296875 89.05484375 -16.9296875 88.71484375 C-16.4346875 86.73484375 -16.4346875 86.73484375 -15.9296875 84.71484375 C-16.5896875 84.71484375 -17.2496875 84.71484375 -17.9296875 84.71484375 C-19.62109375 83.0703125 -19.62109375 83.0703125 -21.4921875 80.90234375 C-22.11222656 80.19464844 -22.73226562 79.48695313 -23.37109375 78.7578125 C-24.9296875 76.71484375 -24.9296875 76.71484375 -25.9296875 73.71484375 C-27.87572024 73.12414361 -27.87572024 73.12414361 -29.9296875 72.71484375 C-31.9296875 70.71484375 -31.9296875 70.71484375 -32.9296875 68.71484375 C-33.5896875 68.38484375 -34.2496875 68.05484375 -34.9296875 67.71484375 C-34.5996875 67.05484375 -34.2696875 66.39484375 -33.9296875 65.71484375 C-35.4146875 65.21984375 -35.4146875 65.21984375 -36.9296875 64.71484375 C-36.9296875 64.05484375 -36.9296875 63.39484375 -36.9296875 62.71484375 C-37.5896875 62.71484375 -38.2496875 62.71484375 -38.9296875 62.71484375 C-38.9296875 62.05484375 -38.9296875 61.39484375 -38.9296875 60.71484375 C-39.9196875 60.21984375 -39.9196875 60.21984375 -40.9296875 59.71484375 C-39.9396875 58.39484375 -38.9496875 57.07484375 -37.9296875 55.71484375 C-31.43291331 56.32774698 -31.43291331 56.32774698 -29.3046875 57.96484375 C-28.6240625 58.83109375 -28.6240625 58.83109375 -27.9296875 59.71484375 C-24.75135891 63.14358619 -24.75135891 63.14358619 -20.9296875 65.71484375 C-20.9296875 66.70484375 -20.9296875 67.69484375 -20.9296875 68.71484375 C-19.4446875 69.70484375 -19.4446875 69.70484375 -17.9296875 70.71484375 C-17.9296875 71.37484375 -17.9296875 72.03484375 -17.9296875 72.71484375 C-16.9396875 72.71484375 -15.9496875 72.71484375 -14.9296875 72.71484375 C-14.9296875 73.37484375 -14.9296875 74.03484375 -14.9296875 74.71484375 C-14.2696875 74.71484375 -13.6096875 74.71484375 -12.9296875 74.71484375 C-11.59635417 76.04817708 -10.26302083 77.38151042 -8.9296875 78.71484375 C-8.2696875 78.71484375 -7.6096875 78.71484375 -6.9296875 78.71484375 C-6.05532332 76.97908726 -6.05532332 76.97908726 -5.9296875 74.71484375 C-8.5408032 70.51435328 -12.32146712 67.58568842 -16.046875 64.41015625 C-18.30035488 62.3810893 -20.05347885 60.09137471 -21.9296875 57.71484375 C-22.9553024 56.84146856 -23.99808988 55.98797023 -25.0546875 55.15234375 C-27.60644279 52.98889905 -28.79458225 51.77962792 -29.9296875 48.71484375 C-27.9296875 45.71484375 -27.9296875 45.71484375 -26.1171875 44.90234375 C-23.27956833 44.65911925 -21.47445914 45.51314603 -18.9296875 46.71484375 C-19.2596875 47.70484375 -19.5896875 48.69484375 -19.9296875 49.71484375 C-19.1665625 49.94171875 -18.4034375 50.16859375 -17.6171875 50.40234375 C-14.33021605 52.00760888 -13.6894269 53.577917 -11.9296875 56.71484375 C-10.63233243 57.76109784 -9.29701778 58.76185598 -7.9296875 59.71484375 C-5.84304387 61.73627977 -3.86007791 63.79315454 -1.9296875 65.96484375 C0.12910755 68.15384682 0.12910755 68.15384682 4.0703125 67.71484375 C4.2939193 64.78937935 4.2939193 64.78937935 3.0703125 62.71484375 C2.4103125 62.38484375 1.7503125 62.05484375 1.0703125 61.71484375 C0.3896875 60.50828125 0.3896875 60.50828125 -0.3046875 59.27734375 C-1.67694415 56.62627803 -1.67694415 56.62627803 -3.9296875 55.71484375 C-5.9296875 54.71484375 -5.9296875 54.71484375 -7.26293945 52.45629883 C-9.08284731 49.46292761 -11.10700766 47.31048309 -13.59765625 44.8515625 C-14.49033203 43.96533203 -15.38300781 43.07910156 -16.30273438 42.16601562 C-17.69588867 40.79799805 -17.69588867 40.79799805 -19.1171875 39.40234375 C-20.067519 38.46205495 -21.0173935 37.52130404 -21.96679688 36.58007812 C-24.28330873 34.28708416 -26.60436551 31.99889723 -28.9296875 29.71484375 C-29.7134375 30.20984375 -30.4971875 30.70484375 -31.3046875 31.21484375 C-33.9296875 32.71484375 -33.9296875 32.71484375 -35.9296875 32.71484375 C-36.30867188 33.59076172 -36.30867188 33.59076172 -36.6953125 34.484375 C-39.32902548 39.24339433 -43.83351969 42.97245098 -48.9296875 44.77734375 C-54.33410278 44.66475176 -58.44687879 44.19765246 -62.3671875 40.27734375 C-64.98841615 35.97852876 -65.10696261 32.67854677 -64.9296875 27.71484375 C-64.4346875 26.22984375 -64.4346875 26.22984375 -63.9296875 24.71484375 C-63.2696875 24.71484375 -62.6096875 24.71484375 -61.9296875 24.71484375 C-61.52762085 23.82273193 -61.52762085 23.82273193 -61.11743164 22.91259766 C-59.91989051 20.69671579 -58.72649767 19.29404847 -56.92578125 17.55078125 C-56.35021484 16.98617187 -55.77464844 16.4215625 -55.18164062 15.83984375 C-54.58287109 15.26234375 -53.98410156 14.68484375 -53.3671875 14.08984375 C-52.17619366 12.93324224 -50.98728745 11.77448597 -49.80078125 10.61328125 C-49.27411865 10.10458496 -48.74745605 9.59588867 -48.20483398 9.07177734 C-46.8132658 7.7208427 -46.8132658 7.7208427 -45.9296875 5.71484375 C-46.9196875 6.04484375 -47.9096875 6.37484375 -48.9296875 6.71484375 C-48.9296875 5.72484375 -48.9296875 4.73484375 -48.9296875 3.71484375 C-49.60515625 3.52148438 -50.280625 3.328125 -50.9765625 3.12890625 C-51.86859375 2.86851562 -52.760625 2.608125 -53.6796875 2.33984375 C-54.56140625 2.08460938 -55.443125 1.829375 -56.3515625 1.56640625 C-58.69049322 0.79385035 -60.76411312 -0.12141301 -62.9296875 -1.28515625 C-57.83136628 -1.66164766 -54.10343496 -0.39334401 -49.5546875 1.71484375 C-48.91402344 2.00101563 -48.27335937 2.2871875 -47.61328125 2.58203125 C-46.04761587 3.28307545 -44.48799594 3.99759493 -42.9296875 4.71484375 C-43.2596875 6.36484375 -43.5896875 8.01484375 -43.9296875 9.71484375 C-39.8264414 9.17112739 -37.54628555 7.93382584 -34.3046875 5.40234375 C-23.64333732 -2.27382838 -12.43312644 -4.83510473 0 0 Z M-81.9296875 56.71484375 C-84.1796875 57.88151042 -84.1796875 57.88151042 -85.9296875 59.71484375 C-85.9296875 60.70484375 -85.9296875 61.69484375 -85.9296875 62.71484375 C-86.9196875 63.20984375 -86.9196875 63.20984375 -87.9296875 63.71484375 C-87.5996875 64.70484375 -87.2696875 65.69484375 -86.9296875 66.71484375 C-84.9496875 66.05484375 -82.9696875 65.39484375 -80.9296875 64.71484375 C-80.9296875 64.05484375 -80.9296875 63.39484375 -80.9296875 62.71484375 C-79.6096875 62.38484375 -78.2896875 62.05484375 -76.9296875 61.71484375 C-77.72086654 59.71500841 -77.72086654 59.71500841 -78.9296875 57.71484375 C-79.9196875 57.38484375 -80.9096875 57.05484375 -81.9296875 56.71484375 Z M-76.9296875 71.71484375 C-77.34839303 74.38412496 -77.34839303 74.38412496 -76.9296875 76.71484375 C-74.58434799 77.48440511 -74.58434799 77.48440511 -71.9296875 77.71484375 C-70.05328331 76.50565493 -70.05328331 76.50565493 -68.9296875 74.71484375 C-68.9296875 74.05484375 -68.9296875 73.39484375 -68.9296875 72.71484375 C-68.2696875 72.71484375 -67.6096875 72.71484375 -66.9296875 72.71484375 C-66.9296875 71.06484375 -66.9296875 69.41484375 -66.9296875 67.71484375 C-71.56962718 67.18456493 -73.7369561 68.33967055 -76.9296875 71.71484375 Z M-54.9296875 68.71484375 C-54.9296875 69.37484375 -54.9296875 70.03484375 -54.9296875 70.71484375 C-54.2696875 70.71484375 -53.6096875 70.71484375 -52.9296875 70.71484375 C-52.9296875 70.05484375 -52.9296875 69.39484375 -52.9296875 68.71484375 C-53.5896875 68.71484375 -54.2496875 68.71484375 -54.9296875 68.71484375 Z M-49.9296875 72.71484375 C-48.9296875 74.71484375 -48.9296875 74.71484375 -48.9296875 74.71484375 Z M-48.9296875 74.71484375 C-48.5996875 76.36484375 -48.2696875 78.01484375 -47.9296875 79.71484375 C-45.9496875 80.37484375 -43.9696875 81.03484375 -41.9296875 81.71484375 C-42.2596875 80.39484375 -42.5896875 79.07484375 -42.9296875 77.71484375 C-44.2496875 77.38484375 -45.5696875 77.05484375 -46.9296875 76.71484375 C-46.9296875 76.05484375 -46.9296875 75.39484375 -46.9296875 74.71484375 C-47.5896875 74.71484375 -48.2496875 74.71484375 -48.9296875 74.71484375 Z M-62.9296875 78.71484375 C-62.9296875 79.37484375 -62.9296875 80.03484375 -62.9296875 80.71484375 C-63.5896875 80.71484375 -64.2496875 80.71484375 -64.9296875 80.71484375 C-65.2596875 81.70484375 -65.5896875 82.69484375 -65.9296875 83.71484375 C-64.9396875 85.19984375 -64.9396875 85.19984375 -63.9296875 86.71484375 C-64.2596875 87.37484375 -64.5896875 88.03484375 -64.9296875 88.71484375 C-62.52091493 88.60142841 -62.52091493 88.60142841 -59.9296875 87.71484375 C-57.32780494 84.39520049 -56.9296875 83.02168334 -56.9296875 78.71484375 C-58.9096875 78.71484375 -60.8896875 78.71484375 -62.9296875 78.71484375 Z M-41.9296875 81.71484375 C-41.5996875 82.37484375 -41.2696875 83.03484375 -40.9296875 83.71484375 C-40.2696875 83.38484375 -39.6096875 83.05484375 -38.9296875 82.71484375 C-39.9196875 82.38484375 -40.9096875 82.05484375 -41.9296875 81.71484375 Z M-37.9296875 84.71484375 C-37.77622498 91.77411982 -37.054367 95.72156629 -31.9296875 100.71484375 C-30.2796875 100.38484375 -28.6296875 100.05484375 -26.9296875 99.71484375 C-26.5996875 98.39484375 -26.2696875 97.07484375 -25.9296875 95.71484375 C-26.9196875 95.38484375 -27.9096875 95.05484375 -28.9296875 94.71484375 C-29.61410059 93.39053225 -30.27872899 92.05591617 -30.9296875 90.71484375 C-32.63346415 88.98042087 -32.63346415 88.98042087 -34.5546875 87.46484375 C-35.18632812 86.9440625 -35.81796875 86.42328125 -36.46875 85.88671875 C-36.95085937 85.5 -37.43296875 85.11328125 -37.9296875 84.71484375 Z M-48.9296875 87.71484375 C-52.62540484 90.34074818 -54.75750912 92.2605659 -55.9296875 96.71484375 C-55.5996875 97.37484375 -55.2696875 98.03484375 -54.9296875 98.71484375 C-51.98241215 98.61315214 -51.98241215 98.61315214 -48.9296875 97.71484375 C-47.61900417 95.27195747 -47.61900417 95.27195747 -46.9296875 92.71484375 C-46.2696875 92.38484375 -45.6096875 92.05484375 -44.9296875 91.71484375 C-46.2496875 90.39484375 -47.5696875 89.07484375 -48.9296875 87.71484375 Z " fill="#6CA98E" transform="translate(289.9296875,170.28515625)"/>
<path d="M0 0 C1.32 0.33 2.64 0.66 4 1 C3.52949219 1.50789062 3.05898437 2.01578125 2.57421875 2.5390625 C-5.09315439 11.01603405 -8.39930681 19.26196459 -8.13671875 30.71484375 C-7.91026671 34.49982789 -7.47764047 38.23858131 -7 42 C-6.34 42 -5.68 42 -5 42 C-4.731875 42.78375 -4.46375 43.5675 -4.1875 44.375 C-3.15185568 47.28114923 -3.15185568 47.28114923 0 49 C0.43828125 48.48308594 0.8765625 47.96617187 1.328125 47.43359375 C4.38817475 44.25537134 6.59157001 42.19222195 11.0625 41.58203125 C15.93662547 41.83887855 18.99832183 42.13491431 22.75 45.375 C24 48 24 48 24 51 C24.66 51 25.32 51 26 51 C26 51.66 26 52.32 26 53 C26.721875 53 27.44375 53 28.1875 53 C32.06772763 54.37963649 32.96198184 56.67657924 34.88671875 60.1875 C35.87796297 62.15901407 35.87796297 62.15901407 38 63 C38.495 62.01 38.495 62.01 39 61 C41.26894331 59.4603599 42.61957996 58.98998895 45.375 59.0625 C49.00373203 60.35847572 51.15068874 62.41574095 54 65 C53.34 65.66 52.68 66.32 52 67 C51.59007812 66.566875 51.18015625 66.13375 50.7578125 65.6875 C50.21898437 65.130625 49.68015625 64.57375 49.125 64 C48.59132812 63.443125 48.05765625 62.88625 47.5078125 62.3125 C46.08175012 60.78114478 46.08175012 60.78114478 44 61 C44.07906896 63.68834479 44.45194046 65.44883531 46.37890625 67.38671875 C47.59537004 68.38002811 48.81858007 69.36510851 50.046875 70.34375 C52.70885384 72.60110806 54.8480546 75.18592711 57.08984375 77.8515625 C59.94261986 81.06020639 63.10862215 83.93057816 66.27734375 86.82421875 C68 89 68 89 68.37890625 91.64453125 C68 94 68 94 66 96 C62.94693988 96.55510184 60.94434484 96.63247114 58.30859375 94.8671875 C54.64509952 91.49500726 53.43885681 89.04685334 53 84 C51.90307733 81.36738559 51.03541109 80.03541109 49 78 C47.03309626 77.32707499 47.03309626 77.32707499 44.875 76.875 C43.59625 76.58625 42.3175 76.2975 41 76 C41 74.02 41 72.04 41 70 C40.34 70 39.68 70 39 70 C39.20625 70.70125 39.4125 71.4025 39.625 72.125 C40.07850357 75.60186072 39.27540277 77.77398123 38 81 C38.62648437 80.97679687 39.25296875 80.95359375 39.8984375 80.9296875 C40.71570313 80.91164063 41.53296875 80.89359375 42.375 80.875 C43.18710938 80.85179687 43.99921875 80.82859375 44.8359375 80.8046875 C47 81 47 81 49 83 C49.5625 85.1875 49.5625 85.1875 49 88 C47.05151233 90.90792536 44.96879445 93.12993696 42 95 C38.95918491 95.30143732 37.01305615 94.79290951 34 94 C33.505 90.535 33.505 90.535 33 87 C30.36 86.67 27.72 86.34 25 86 C24.34 81.71 23.68 77.42 23 73 C20.03 73.495 20.03 73.495 17 74 C15.0625 72.9375 15.0625 72.9375 14 71 C13.9060609 66.67880133 14.74069459 65.27109202 17.75 62.125 C20.99816018 60.00120296 22.24661808 59.27017574 26 60 C28 62 28 62 28.3125 64.4375 C27.94341141 67.46402642 27.17468527 68.0065385 25 70 C25 70.99 25 71.98 25 73 C25.99 73.495 25.99 73.495 27 74 C27 73.34 27 72.68 27 72 C27.66 72 28.32 72 29 72 C29 71.01 29 70.02 29 69 C31.475 68.01 31.475 68.01 34 67 C32.91143939 61.07402945 32.91143939 61.07402945 29.125 56.7578125 C27.71112594 56.170431 26.29175275 55.59611143 24.8671875 55.03515625 C21.61280156 53.23094647 21.15832083 50.41061134 20 47 C19.34 46.67 18.68 46.34 18 46 C17.34 47.32 16.68 48.64 16 50 C16.495 50.495 16.495 50.495 17 51 C17.49293424 54.02802463 17.58467623 56.10376619 15.87109375 58.73046875 C13.24841849 61.61335722 11.73690002 62.88440784 7.8125 63.5 C5 63 5 63 2 61 C2.33 58.69 2.66 56.38 3 54 C1.35 53.67 -0.3 53.34 -2 53 C-2.33 53.66 -2.66 54.32 -3 55 C-3.69376626 53.12683111 -4.38507765 51.25272859 -5.06640625 49.375 C-5.95152214 47.00801103 -5.95152214 47.00801103 -7.08984375 44.875 C-11.14648284 36.55961169 -12.1045281 25.79274026 -9.34375 16.88183594 C-7.0076211 11.0892471 -3.75735124 5.97126471 0 1 C0 0.67 0 0.34 0 0 Z M11 51 C8.75 52.16666667 8.75 52.16666667 7 54 C7 54.99 7 55.98 7 57 C6.01 57.495 6.01 57.495 5 58 C5.33 58.99 5.66 59.98 6 61 C7.98 60.34 9.96 59.68 12 59 C12 58.34 12 57.68 12 57 C13.32 56.67 14.64 56.34 16 56 C15.20882096 54.00016466 15.20882096 54.00016466 14 52 C13.01 51.67 12.02 51.34 11 51 Z M16 66 C15.58129447 68.66928121 15.58129447 68.66928121 16 71 C18.34533951 71.76956136 18.34533951 71.76956136 21 72 C22.87640419 70.79081118 22.87640419 70.79081118 24 69 C24 68.34 24 67.68 24 67 C24.66 67 25.32 67 26 67 C26 65.35 26 63.7 26 62 C21.36006032 61.46972118 19.1927314 62.6248268 16 66 Z M38 63 C38 63.66 38 64.32 38 65 C38.66 65 39.32 65 40 65 C40 64.34 40 63.68 40 63 C39.34 63 38.68 63 38 63 Z M43 67 C44 69 44 69 44 69 Z M44 69 C44.33 70.65 44.66 72.3 45 74 C46.98 74.66 48.96 75.32 51 76 C50.67 74.68 50.34 73.36 50 72 C48.68 71.67 47.36 71.34 46 71 C46 70.34 46 69.68 46 69 C45.34 69 44.68 69 44 69 Z M30 73 C30 73.66 30 74.32 30 75 C29.34 75 28.68 75 28 75 C27.67 75.99 27.34 76.98 27 78 C27.99 79.485 27.99 79.485 29 81 C28.67 81.66 28.34 82.32 28 83 C30.40877257 82.88658466 30.40877257 82.88658466 33 82 C35.60188256 78.68035674 36 77.30683959 36 73 C34.02 73 32.04 73 30 73 Z M51 76 C51.33 76.66 51.66 77.32 52 78 C52.66 77.67 53.32 77.34 54 77 C53.01 76.67 52.02 76.34 51 76 Z M55 79 C55.15346252 86.05927607 55.8753205 90.00672254 61 95 C62.65 94.67 64.3 94.34 66 94 C66.33 92.68 66.66 91.36 67 90 C66.01 89.67 65.02 89.34 64 89 C63.31558691 87.6756885 62.65095851 86.34107242 62 85 C60.29622335 83.26557712 60.29622335 83.26557712 58.375 81.75 C57.74335938 81.22921875 57.11171875 80.7084375 56.4609375 80.171875 C55.97882813 79.78515625 55.49671875 79.3984375 55 79 Z M44 82 C40.30428266 84.62590443 38.17217838 86.54572215 37 91 C37.33 91.66 37.66 92.32 38 93 C40.94727535 92.89830839 40.94727535 92.89830839 44 92 C45.31068333 89.55711372 45.31068333 89.55711372 46 87 C46.66 86.67 47.32 86.34 48 86 C46.68 84.68 45.36 83.36 44 82 Z " fill="#217951" transform="translate(197,176)"/>
<path d="M0 0 C2.32028784 0.89145024 2.32028784 0.89145024 5.9453125 1.08984375 C9.0703125 1.71484375 9.0703125 1.71484375 10.8828125 4.08984375 C11.470625 5.38921875 11.470625 5.38921875 12.0703125 6.71484375 C13.0603125 8.19984375 13.0603125 8.19984375 14.0703125 9.71484375 C11.64107468 8.6351825 9.90613697 7.56788735 7.91015625 5.78125 C4.55290783 3.33835535 1.29880761 2.33386875 -2.6796875 1.40234375 C-3.39125 1.23210693 -4.1028125 1.06187012 -4.8359375 0.88647461 C-14.44190994 -1.25098573 -21.95861611 0.65987699 -30.6171875 5.08984375 C-33.39064241 7.03875801 -35.55924248 9.2892721 -37.9296875 11.71484375 C-39.25446112 12.89122114 -40.58843501 14.05729001 -41.9296875 15.21484375 C-48.26062791 20.73656621 -53.2163013 25.57468515 -55.9296875 33.71484375 C-53.791139 35.85339225 -52.79693436 36.14139438 -49.9296875 36.71484375 C-49.5996875 35.72484375 -49.2696875 34.73484375 -48.9296875 33.71484375 C-47.30635783 32.32907452 -45.64244285 30.98843107 -43.9296875 29.71484375 C-43.2696875 30.04484375 -42.6096875 30.37484375 -41.9296875 30.71484375 C-47.76445939 37.48179813 -47.76445939 37.48179813 -52.0546875 38.33984375 C-55.20285938 37.65545856 -57.24357613 36.45718626 -59.9296875 34.71484375 C-60.9196875 34.71484375 -61.9096875 34.71484375 -62.9296875 34.71484375 C-62.2696875 36.36484375 -61.6096875 38.01484375 -60.9296875 39.71484375 C-61.5896875 39.71484375 -62.2496875 39.71484375 -62.9296875 39.71484375 C-65.37691913 34.66742851 -65.70851039 30.05131241 -63.9296875 24.71484375 C-63.2696875 24.71484375 -62.6096875 24.71484375 -61.9296875 24.71484375 C-61.66164307 24.12010254 -61.39359863 23.52536133 -61.11743164 22.91259766 C-59.91989051 20.69671579 -58.72649767 19.29404847 -56.92578125 17.55078125 C-56.35021484 16.98617187 -55.77464844 16.4215625 -55.18164062 15.83984375 C-54.58287109 15.26234375 -53.98410156 14.68484375 -53.3671875 14.08984375 C-52.17619366 12.93324224 -50.98728745 11.77448597 -49.80078125 10.61328125 C-49.27411865 10.10458496 -48.74745605 9.59588867 -48.20483398 9.07177734 C-46.8132658 7.7208427 -46.8132658 7.7208427 -45.9296875 5.71484375 C-46.9196875 6.04484375 -47.9096875 6.37484375 -48.9296875 6.71484375 C-48.9296875 5.72484375 -48.9296875 4.73484375 -48.9296875 3.71484375 C-49.60515625 3.52148438 -50.280625 3.328125 -50.9765625 3.12890625 C-52.31460938 2.73832031 -52.31460938 2.73832031 -53.6796875 2.33984375 C-54.56140625 2.08460938 -55.443125 1.829375 -56.3515625 1.56640625 C-58.69049322 0.79385035 -60.76411312 -0.12141301 -62.9296875 -1.28515625 C-57.83136628 -1.66164766 -54.10343496 -0.39334401 -49.5546875 1.71484375 C-48.91402344 2.00101563 -48.27335937 2.2871875 -47.61328125 2.58203125 C-46.04761587 3.28307545 -44.48799594 3.99759493 -42.9296875 4.71484375 C-43.2596875 6.36484375 -43.5896875 8.01484375 -43.9296875 9.71484375 C-39.8264414 9.17112739 -37.54628555 7.93382584 -34.3046875 5.40234375 C-23.64333732 -2.27382838 -12.43312644 -4.83510473 0 0 Z " fill="#95C6B2" transform="translate(289.9296875,170.28515625)"/>
<path d="M0 0 C-0.33 0.99 -0.66 1.98 -1 3 C-0.236875 3.226875 0.52625 3.45375 1.3125 3.6875 C4.59947145 5.29276513 5.2402606 6.86307325 7 10 C8.99665314 11.68538601 8.99665314 11.68538601 11 13 C13 15 13 15 13 19 C14.32 19.66 15.64 20.32 17 21 C17 22.32 17 23.64 17 25 C17.3403125 26.2065625 17.3403125 26.2065625 17.6875 27.4375 C18 30 18 30 17 32.75 C15 35 15 35 11.3125 35.8125 C10.219375 35.874375 9.12625 35.93625 8 36 C7.67 37.98 7.34 39.96 7 42 C5.515 42.495 5.515 42.495 4 43 C3.7525 41.9275 3.505 40.855 3.25 39.75 C2.30280087 35.97670763 2.30280087 35.97670763 -0.1875 33.8125 C-0.785625 33.214375 -1.38375 32.61625 -2 32 C-1.75 29.75 -1.75 29.75 -1 28 C2.26077519 28.36230835 3.67263835 28.6624083 6 31.0625 C7.86288812 33.2601545 7.86288812 33.2601545 10.6875 33.3125 C12.95857126 33.24344314 12.95857126 33.24344314 14 32 C14.33374277 29.58416247 14.33374277 29.58416247 14 27 C12.56249809 25.31201173 12.56249809 25.31201173 11 24 C11 23.34 11 22.68 11 22 C9.68 22 8.36 22 7 22 C4.18824182 19.54872364 1.91363468 16.89370422 -0.4375 14 C-2.35447681 11.75573447 -3.92634882 10.16416331 -6.1875 8.375 C-8.7080962 6.24649654 -9.8783678 5.02840694 -11 2 C-7.61000833 -3.0849875 -5.18660142 -1.95938276 0 0 Z " fill="#19754A" transform="translate(271,217)"/>
<path d="M0 0 C4.30298425 0.47810936 6.3486679 2.72072082 9 6 C9.96590073 8.67480202 10.47556773 11.18713601 11 14 C8.625 13.75 8.625 13.75 6 13 C4.6875 10.9375 4.6875 10.9375 4 9 C0.12868248 10.7354182 -2.18794507 12.46136961 -4.1875 16.25 C-7.3647786 21.07069856 -11.50781731 25.11735196 -17 27.0625 C-20.90628749 26.98111901 -24.45250366 26.74633926 -28 25 C-29.84953941 22.22569089 -31 20.35957737 -31 17 C-30.01 16.67 -29.02 16.34 -28 16 C-27.236875 16.474375 -26.47375 16.94875 -25.6875 17.4375 C-22.39135934 19.35386085 -20.76786087 19.47509856 -17 19 C-14.40656121 16.99050401 -14.40656121 16.99050401 -12.25 14.25 C-11.11304688 12.92742187 -11.11304688 12.92742187 -9.953125 11.578125 C-7.98953547 9.1525865 -7.98953547 9.1525865 -6.89453125 6.7734375 C-5.58632686 4.17987944 -3.47809545 3.3979 -1 2 C-0.67 1.34 -0.34 0.68 0 0 Z " fill="#247650" transform="translate(258,188)"/>
<path d="M0 0 C1.32 0.33 2.64 0.66 4 1 C3.52949219 1.50789062 3.05898437 2.01578125 2.57421875 2.5390625 C-5.09315439 11.01603405 -8.39930681 19.26196459 -8.13671875 30.71484375 C-7.91026671 34.49982789 -7.47764047 38.23858131 -7 42 C-6.34 42 -5.68 42 -5 42 C-4.731875 42.78375 -4.46375 43.5675 -4.1875 44.375 C-3.15185568 47.28114923 -3.15185568 47.28114923 0 49 C2.7539334 48.24266832 4.49683704 47.62296367 6.3125 45.375 C9.18462626 43.03474898 12.40460302 43.8231772 16 44 C16.68707555 46.49064888 17 48.37886292 17 51 C17.12375 51.928125 17.2475 52.85625 17.375 53.8125 C16.90603552 57.79869805 15.6388339 59.23366536 12.72265625 61.8671875 C10.05233384 63.62318183 8.08552301 63.54853742 5 63 C4.01 62.34 3.02 61.68 2 61 C2.33 58.69 2.66 56.38 3 54 C1.35 53.67 -0.3 53.34 -2 53 C-2.33 53.66 -2.66 54.32 -3 55 C-3.69376626 53.12683111 -4.38507765 51.25272859 -5.06640625 49.375 C-5.95152214 47.00801103 -5.95152214 47.00801103 -7.08984375 44.875 C-11.14648284 36.55961169 -12.1045281 25.79274026 -9.34375 16.88183594 C-7.0076211 11.0892471 -3.75735124 5.97126471 0 1 C0 0.67 0 0.34 0 0 Z M11 51 C8.75 52.16666667 8.75 52.16666667 7 54 C7 54.99 7 55.98 7 57 C6.01 57.495 6.01 57.495 5 58 C5.33 58.99 5.66 59.98 6 61 C7.98 60.34 9.96 59.68 12 59 C12 58.34 12 57.68 12 57 C13.32 56.67 14.64 56.34 16 56 C15.20882096 54.00016466 15.20882096 54.00016466 14 52 C13.01 51.67 12.02 51.34 11 51 Z " fill="#1E764D" transform="translate(197,176)"/>
<path d="M0 0 C5.03869376 4.34370152 6.73542491 9.44166057 8.0859375 15.73828125 C8.25915527 16.53919189 8.43237305 17.34010254 8.61083984 18.1652832 C8.7392627 18.77073975 8.86768555 19.37619629 9 20 C9.78648926 19.98428955 10.57297852 19.9685791 11.38330078 19.95239258 C14.96379338 19.88984085 18.54417076 19.85094449 22.125 19.8125 C23.3625 19.78736328 24.6 19.76222656 25.875 19.73632812 C27.07382812 19.72666016 28.27265625 19.71699219 29.5078125 19.70703125 C30.60754395 19.6913208 31.70727539 19.67561035 32.84033203 19.65942383 C36.56688316 20.06110354 38.8724684 20.9364132 42 23 C43.59866635 26.29507627 44.36407163 29.41934376 44.88208008 33.02929688 C45.02613281 34.01195023 45.17018555 34.99460358 45.31860352 36.0070343 C45.46740967 37.06690048 45.61621582 38.12676666 45.76953125 39.21875 C46.01147217 40.88994148 46.01147217 40.88994148 46.25830078 42.59489441 C46.78259875 46.2290653 47.29772946 49.8644684 47.8125 53.5 C48.17173533 56.00501926 48.53135648 58.50998323 48.89135742 61.01489258 C51.14220642 76.72696678 53.31884701 92.44860566 55.41064453 108.18261719 C56.43511748 115.88297587 57.50678815 123.57196487 58.6875 131.25 C59.12885382 134.1660988 59.56517648 137.0829214 60 140 C60.12036621 140.7935791 60.24073242 141.5871582 60.36474609 142.40478516 C60.71935311 144.78855862 61.05030559 147.17449027 61.375 149.5625 C61.48416748 150.27245117 61.59333496 150.98240234 61.70581055 151.71386719 C61.9609375 153.69140625 61.9609375 153.69140625 62 157 C60.50244141 158.70678711 60.50244141 158.70678711 59 160 C59.04898438 158.845 59.09796875 157.69 59.1484375 156.5 C59.14560576 149.25074935 57.77900196 142.13574042 56.625 135 C55.19414216 126.0530031 53.8630981 117.12623339 52.84986877 108.11997986 C51.64653417 97.64559709 50.09439003 87.21587968 48.59594727 76.78051758 C48.06408116 73.07352033 47.53670486 69.36590354 47.00976562 65.65820312 C46.17676007 59.81612976 45.32818708 53.97654447 44.46417236 48.13897705 C44.16614731 46.12357526 43.87079015 44.10777614 43.57879639 42.0914917 C43.20924687 39.55765772 42.82447334 37.02671162 42.43359375 34.49609375 C42.33127945 33.77881607 42.22896515 33.06153839 42.12355042 32.32252502 C41.50938569 28.48639632 40.78665605 25.77984375 38 23 C34.63448877 21.87816292 31.90939768 21.79199032 28.36328125 21.68359375 C26.41518555 21.62075195 26.41518555 21.62075195 24.42773438 21.55664062 C23.05599239 21.51683013 21.68424756 21.47711784 20.3125 21.4375 C18.92902355 21.39429165 17.54555973 21.35067661 16.16210938 21.30664062 C12.77484281 21.20041972 9.38750201 21.09837642 6 21 C5.88027832 20.18160645 5.76055664 19.36321289 5.63720703 18.52001953 C5.38753174 16.90522705 5.38753174 16.90522705 5.1328125 15.2578125 C4.97184082 14.19191895 4.81086914 13.12602539 4.64501953 12.02783203 C3.79303037 8.02844915 2.21850971 5.40171489 0 2 C0 1.34 0 0.68 0 0 Z " fill="#DDF6EF" transform="translate(279,125)"/>
<path d="M0 0 C0.33 0 0.66 0 1 0 C1.50682442 3.01982884 2.00563335 6.04062817 2.5 9.0625 C2.64308594 9.91005859 2.78617188 10.75761719 2.93359375 11.63085938 C4.99395582 24.3364255 4.99395582 24.3364255 2.4095726 28.66188335 C-0.79173006 31.76825128 -2.48203472 31.61764824 -6.89691162 31.60127258 C-7.59044967 31.60554471 -8.28398772 31.60981683 -8.99854207 31.61421841 C-11.32227649 31.62245395 -13.64420541 31.59495771 -15.96777344 31.56762695 C-17.63336647 31.56621659 -19.29896261 31.56700824 -20.96455383 31.56983948 C-25.48717182 31.5712755 -30.00912828 31.54185586 -34.53159237 31.50696969 C-39.25745742 31.47573708 -43.98333722 31.4727779 -48.70928955 31.46684265 C-57.65891772 31.45129509 -66.60824092 31.41025429 -75.55773473 31.3600952 C-85.74622416 31.30423011 -95.93472807 31.27672237 -106.1233325 31.25161803 C-127.08239196 31.19933924 -148.04117678 31.11137922 -169 31 C-169 30.67 -169 30.34 -169 30 C-114.55 29.67 -60.1 29.34 -4 29 C-3.67 28.34 -3.34 27.68 -3 27 C-1.68 26.34 -0.36 25.68 1 25 C0.67 16.75 0.34 8.5 0 0 Z " fill="#166D43" transform="translate(335,257)"/>
<path d="M0 0 C0.99 0.33 1.98 0.66 3 1 C2.21447754 1.45729492 1.42895508 1.91458984 0.61962891 2.38574219 C-3.14873789 6.14638261 -3.26277557 9.67902429 -3.9140625 14.828125 C-4.05429337 15.80105499 -4.19452423 16.77398499 -4.33900452 17.77639771 C-4.7884486 20.93174713 -5.20702321 24.09034247 -5.625 27.25 C-5.92767582 29.417728 -6.23212131 31.58520964 -6.53833008 33.75244141 C-8.14045296 45.18756306 -9.65318121 56.63684346 -11.01049805 68.10375977 C-11.81418075 74.82911997 -12.84113444 81.50399717 -13.9375 88.1875 C-15.48956055 97.65183431 -16.91990016 107.12709747 -18.25 116.625 C-18.5128479 118.4661438 -18.5128479 118.4661438 -18.78100586 120.34448242 C-19.55540877 125.94866266 -20.21698834 131.34280387 -20 137 C-20 137.99 -20 138.98 -20 140 C-21.5625 138.5625 -21.5625 138.5625 -23 136 C-22.74887149 132.97132969 -22.40510131 130.00857447 -22 127 C-21.78047637 125.08371727 -21.56449485 123.16702633 -21.3515625 121.25 C-20.17531552 111.05261246 -18.93227713 100.9130065 -17.05517578 90.8190918 C-15.90551113 84.62283745 -15.07070808 78.40697355 -14.27685547 72.15673828 C-13.72426289 67.85197385 -13.14441282 63.550885 -12.5625 59.25 C-12.43488281 58.30664795 -12.30726563 57.3632959 -12.17578125 56.39135742 C-11.25871893 49.695083 -10.2347571 43.02218768 -9.12084961 36.35595703 C-8.37849238 31.79842928 -7.79424555 27.24996627 -7.3203125 22.65625 C-7.20365234 21.57263184 -7.08699219 20.48901367 -6.96679688 19.37255859 C-6.74365318 17.2523747 -6.53840169 15.1302097 -6.35351562 13.00634766 C-5.48639189 4.91005108 -5.48639189 4.91005108 -2.3984375 1.8046875 C-1.60695312 1.20914063 -0.81546875 0.61359375 0 0 Z " fill="#DAF4EC" transform="translate(182,146)"/>
<path d="M0 0 C-0.33 0.99 -0.66 1.98 -1 3 C-0.236875 3.226875 0.52625 3.45375 1.3125 3.6875 C4.59947145 5.29276513 5.2402606 6.86307325 7 10 C8.32848691 11.00642948 9.66150329 12.00692179 11 13 C12.25 15.1875 12.25 15.1875 13 17 C11.02 16.01 9.04 15.02 7 14 C7 13.34 7 12.68 7 12 C6.01 12 5.02 12 4 12 C4.33 13.98 4.66 15.96 5 18 C1.14985552 16.48744324 -0.47159227 14.19769213 -3 11 C-4.02353671 10.12419024 -5.06610981 9.27021947 -6.125 8.4375 C-8.67675529 6.2740553 -9.86489475 5.06478417 -11 2 C-7.61000833 -3.0849875 -5.18660142 -1.95938276 0 0 Z " fill="#6FAB90" transform="translate(271,217)"/>
<path d="M0 0 C0.66 1.32 1.32 2.64 2 4 C-0.1385485 6.1385485 -1.13275314 6.42655063 -4 7 C-3.67 8.32 -3.34 9.64 -3 11 C-6.2675682 13.63513565 -8.54375642 14.22786445 -12.625 13.875 C-15.2493201 13.57942811 -16.62392334 13.29999679 -18.69921875 11.64453125 C-20.53996377 9.3173431 -21.18400229 6.82460747 -22 4 C-21.01 3.67 -20.02 3.34 -19 3 C-17.8553125 3.7115625 -17.8553125 3.7115625 -16.6875 4.4375 C-13.43954164 6.32584788 -11.70075207 6.55117584 -8 6 C-5.83333333 4.16666667 -5.83333333 4.16666667 -4 2 C-1.75 0.75 -1.75 0.75 0 0 Z " fill="#4E9173" transform="translate(249,201)"/>
<path d="M0 0 C4.04135587 1.59930434 6.67907152 4.48660409 9.625 7.5625 C12.96402902 11.22714016 12.96402902 11.22714016 17 14 C17 14.99 17 15.98 17 17 C17.99 17.66 18.98 18.32 20 19 C20.6875 22.625 20.6875 22.625 21 26 C16.445213 22.19985226 12.04720741 18.34334454 8 14 C8 13.34 8 12.68 8 12 C7.443125 11.773125 6.88625 11.54625 6.3125 11.3125 C3.25844165 9.57911553 1.2174567 7.72430394 -1 5 C-0.8125 2.1875 -0.8125 2.1875 0 0 Z " fill="#166E43" transform="translate(241,236)"/>
<path d="M0 0 C3.91841827 1.30613942 6.32640809 2.83129848 9 6 C9 6.66 9 7.32 9 8 C9.99 8.33 10.98 8.66 12 9 C14.52845528 10.26422764 14.76422764 11.52845528 16 14 C16.66 14.33 17.32 14.66 18 15 C18 15.66 18 16.32 18 17 C19.65 16.67 21.3 16.34 23 16 C23.33 14.68 23.66 13.36 24 12 C23.34 12 22.68 12 22 12 C20.2734375 10.35546875 20.2734375 10.35546875 18.375 8.1875 C17.42753906 7.12595703 17.42753906 7.12595703 16.4609375 6.04296875 C15 4 15 4 15 1 C24.69596413 9.16233184 24.69596413 9.16233184 25.44140625 13.66796875 C25.15454188 15.89559455 24.74618872 17.884095 24 20 C21.125 20.125 21.125 20.125 18 20 C17.34 19.34 16.68 18.68 16 18 C16 18.99 16 19.98 16 21 C16 23.33333333 16 25.66666667 16 28 C15.01 28 14.02 28 13 28 C13.33 27.67 13.66 27.34 14 27 C14.48174012 22.66433893 13.25968797 20.61550075 11 17 C10.835 16.113125 10.67 15.22625 10.5 14.3125 C10.20110118 11.63137811 10.20110118 11.63137811 7 10 C7.33 9.01 7.66 8.02 8 7 C7.4225 6.773125 6.845 6.54625 6.25 6.3125 C3.4336339 4.66961977 1.91922886 2.60466773 0 0 Z " fill="#30815C" transform="translate(250,243)"/>
<path d="M0 0 C0.33 0.99 0.66 1.98 1 3 C1.62648437 2.97679687 2.25296875 2.95359375 2.8984375 2.9296875 C3.71570313 2.91164063 4.53296875 2.89359375 5.375 2.875 C6.18710938 2.85179687 6.99921875 2.82859375 7.8359375 2.8046875 C10 3 10 3 12 5 C12.5625 7.1875 12.5625 7.1875 12 10 C10.05151233 12.90792536 7.96879445 15.12993696 5 17 C1.95918491 17.30143732 0.01305615 16.79290951 -3 16 C-3.33 13.69 -3.66 11.38 -4 9 C-6.64 8.67 -9.28 8.34 -12 8 C-12 7.34 -12 6.68 -12 6 C-10.906875 5.855625 -9.81375 5.71125 -8.6875 5.5625 C-5.06877013 5.11711896 -5.06877013 5.11711896 -2 4 C-0.79117904 1.99983534 -0.79117904 1.99983534 0 0 Z M7 4 C3.30428266 6.62590443 1.17217838 8.54572215 0 13 C0.33 13.66 0.66 14.32 1 15 C3.94727535 14.89830839 3.94727535 14.89830839 7 14 C8.31068333 11.55711372 8.31068333 11.55711372 9 9 C9.66 8.67 10.32 8.34 11 8 C9.68 6.68 8.36 5.36 7 4 Z " fill="#1C7449" transform="translate(234,254)"/>
<path d="M0 0 C1.9375 0.8125 1.9375 0.8125 4 2 C4.33 2.99 4.66 3.98 5 5 C5.61875 5.103125 6.2375 5.20625 6.875 5.3125 C9 6 9 6 10.75 9.0625 C11.1625 10.031875 11.575 11.00125 12 12 C13.32 11.67 14.64 11.34 16 11 C16 11.99 16 12.98 16 14 C15.34 14 14.68 14 14 14 C13.67 14.66 13.34 15.32 13 16 C9.04 12.04 5.08 8.08 1 4 C-1.475 5.485 -1.475 5.485 -4 7 C-4.66 6.67 -5.32 6.34 -6 6 C-4.02 4.02 -2.04 2.04 0 0 Z M7 0 C12.44892192 3.28299678 16.63259604 7.40005402 21.0625 11.9375 C21.75666016 12.64068359 22.45082031 13.34386719 23.16601562 14.06835938 C24.50933089 15.42953448 25.84886558 16.79445384 27.18408203 18.16357422 C28.30670279 19.29887313 29.44549565 20.41872535 30.60888672 21.51220703 C31.7902857 22.62291336 32.90361234 23.80530078 34 25 C34 25.99 34 26.98 34 28 C33.38479492 27.36908447 32.76958984 26.73816895 32.13574219 26.08813477 C29.84571958 23.74693003 27.5490502 21.41267343 25.24755859 19.08276367 C24.25360447 18.07373981 23.26236165 17.06203755 22.27392578 16.04760742 C20.85115723 14.58837596 19.41885738 13.13911278 17.984375 11.69140625 C17.12553711 10.81685791 16.26669922 9.94230957 15.38183594 9.04125977 C13.02192321 7.01878843 11.9074986 6.65535244 9 6 C7.75 2.9375 7.75 2.9375 7 0 Z " fill="#5D9D7F" transform="translate(260,196)"/>
<path d="M0 0 C-0.95712891 0.56267578 -0.95712891 0.56267578 -1.93359375 1.13671875 C-2.75988281 1.64847656 -3.58617187 2.16023438 -4.4375 2.6875 C-5.26121094 3.18636719 -6.08492187 3.68523437 -6.93359375 4.19921875 C-9.43719323 6.38099448 -9.69593558 7.75480334 -10 11 C-10.66 11 -11.32 11 -12 11 C-12.103125 11.78375 -12.20625 12.5675 -12.3125 13.375 C-13 16 -13 16 -16 18 C-16.99 18 -17.98 18 -19 18 C-19.66 22.62 -20.32 27.24 -21 32 C-30.9 32 -40.8 32 -51 32 C-51 31.67 -51 31.34 -51 31 C-42.09 31 -33.18 31 -24 31 C-23.01 27.04 -22.02 23.08 -21 19 C-17.36907403 11.33371324 -11.79676851 3.55827654 -4.1875 -0.5 C-2 -1 -2 -1 0 0 Z M-10 9 C-8 10 -8 10 -8 10 Z " fill="#7AB49A" transform="translate(236,114)"/>
<path d="M0 0 C1.78682453 1.59506775 3.38069541 3.22888561 5 5 C4.67 5.66 4.34 6.32 4 7 C3.195625 6.030625 2.39125 5.06125 1.5625 4.0625 C-1.77498729 0.66098418 -4.59421783 0.23791001 -9.2421875 0.0078125 C-10.11230469 0.00394531 -10.11230469 0.00394531 -11 0 C-11.33 -0.99 -11.66 -1.98 -12 -3 C-12.66 -3 -13.32 -3 -14 -3 C-14 -3.66 -14 -4.32 -14 -5 C-22.84099389 -5.19361402 -22.84099389 -5.19361402 -31.625 -4.375 C-35 -4 -35 -4 -38 -6 C-24.57353433 -11.92344074 -11.41280023 -8.62415221 0 0 Z " fill="#94C2AE" transform="translate(274,118)"/>
<path d="M0 0 C2.75 2.375 2.75 2.375 4 5 C4 5.99 4 6.98 4 8 C4.66 8 5.32 8 6 8 C6 8.66 6 9.32 6 10 C6.721875 10 7.44375 10 8.1875 10 C12.06772763 11.37963649 12.96198184 13.67657924 14.88671875 17.1875 C15.87796297 19.15901407 15.87796297 19.15901407 18 20 C18 20.66 18 21.32 18 22 C18.99 22.33 19.98 22.66 21 23 C19 24 19 24 16 23.5 C15.01 23.005 14.02 22.51 13 22 C12.71125 20.88625 12.4225 19.7725 12.125 18.625 C11.43472336 14.99829556 11.43472336 14.99829556 9.21484375 13.8984375 C7.77551124 13.2976272 6.33539997 12.69867927 4.89453125 12.1015625 C2.60856371 10.77240199 2.15153535 9.82274401 1.25 7.375 C0.32830552 4.04251468 0.32830552 4.04251468 -1.6875 2.5625 C-5.95862775 1.52357703 -9.98784293 0.78166861 -13.8515625 3.12109375 C-15.69869908 4.62479785 -15.69869908 4.62479785 -18 7 C-18 4 -18 4 -15.75 1.25 C-11.10156889 -2.41981403 -5.41811572 -1.42827119 0 0 Z " fill="#E5F6F1" transform="translate(217,219)"/>
<path d="M0 0 C0.66 0.99 1.32 1.98 2 3 C1.01 3.495 1.01 3.495 0 4 C0.33 4.66 0.66 5.32 1 6 C0.01 6.33 -0.98 6.66 -2 7 C-3.04687099 9.77351151 -3.04687099 9.77351151 -3.1875 11.875 C-4.4566968 15.19443779 -7.31156626 16.75963855 -10 19 C-10.94436349 21.16531168 -10.94436349 21.16531168 -11 23 C-11.99 22.67 -12.98 22.34 -14 22 C-14.39458248 17.85688392 -14.04459457 15.18769478 -11.5546875 11.7890625 C-7.94270097 7.63255539 -3.95862286 3.82263963 0 0 Z " fill="#187049" transform="translate(243,180)"/>
<path d="M0 0 C4.04161955 1.34484714 6.38678154 3.0505162 9.3125 6.125 C10.00988281 6.84945312 10.70726562 7.57390625 11.42578125 8.3203125 C11.94527344 8.87460938 12.46476562 9.42890625 13 10 C12.01 10.66 11.02 11.32 10 12 C10 13.32 10 14.64 10 16 C7.13275314 15.42655063 6.1385485 15.1385485 4 13 C3.67 12.34 3.34 11.68 3 11 C2.34 10.67 1.68 10.34 1 10 C0.5859375 7.71484375 0.5859375 7.71484375 0.375 4.9375 C0.30023438 4.01839844 0.22546875 3.09929687 0.1484375 2.15234375 C0.09945312 1.44207031 0.05046875 0.73179687 0 0 Z " fill="#2D7A56" transform="translate(254,228)"/>
<path d="M0 0 C1.32 0.33 2.64 0.66 4 1 C3.52949219 1.50789062 3.05898437 2.01578125 2.57421875 2.5390625 C-5.09315439 11.01603405 -8.39930681 19.26196459 -8.13671875 30.71484375 C-7.91026671 34.49982789 -7.47764047 38.23858131 -7 42 C-6.34 42 -5.68 42 -5 42 C-4.7525 42.7425 -4.505 43.485 -4.25 44.25 C-2.90852699 47.20124062 -1.39094474 48.84814974 1 51 C-0.32 51 -1.64 51 -3 51 C-4.66796875 48.953125 -4.66796875 48.953125 -6.1875 46.25 C-6.69667969 45.36828125 -7.20585937 44.4865625 -7.73046875 43.578125 C-11.42295236 36.07954291 -11.75714372 24.85981415 -9.35693359 16.85546875 C-7.01911488 11.07753647 -3.74881078 5.95996503 0 1 C0 0.67 0 0.34 0 0 Z " fill="#D5F2E9" transform="translate(197,176)"/>
<path d="M0 0 C4.5053757 0.48642109 6.53524468 1.99242966 9.6875 5.1875 C10.83798828 6.32251953 10.83798828 6.32251953 12.01171875 7.48046875 C14.18915938 10.23970098 15.08744255 12.62792944 16 16 C15.01 16 14.02 16 13 16 C13 15.01 13 14.02 13 13 C12.34 13 11.68 13 11 13 C10.67 13.99 10.34 14.98 10 16 C7.5 13.6875 7.5 13.6875 5 11 C5 10.01 5 9.02 5 8 C5.66 8 6.32 8 7 8 C6.67 7.34 6.34 6.68 6 6 C4.68 6 3.36 6 2 6 C1.34 4.02 0.68 2.04 0 0 Z " fill="#31835E" transform="translate(269,202)"/>
<path d="M0 0 C0.66 0 1.32 0 2 0 C2 1.98 2 3.96 2 6 C4.31 6.33 6.62 6.66 9 7 C9 8.32 9 9.64 9 11 C9.99 11.33 10.98 11.66 12 12 C11 20.5 11 20.5 9 24 C5.35119226 26.12847118 2.16144068 26.19355538 -2 26 C-2 25.67 -2 25.34 -2 25 C-1.113125 24.773125 -0.22625 24.54625 0.6875 24.3125 C4.52957726 22.7901675 6.44385561 21.23277085 9 18 C9.50241322 15.3295947 9.50241322 15.3295947 9 13 C6.83909114 10.83909114 1.7994153 11.27599869 -1 11 C-0.67 7.37 -0.34 3.74 0 0 Z " fill="#177148" transform="translate(236,246)"/>
<path d="M0 0 C2.32028784 0.89145024 2.32028784 0.89145024 5.9453125 1.08984375 C9.0703125 1.71484375 9.0703125 1.71484375 10.8828125 4.08984375 C11.470625 5.38921875 11.470625 5.38921875 12.0703125 6.71484375 C12.7303125 7.70484375 13.3903125 8.69484375 14.0703125 9.71484375 C11.64107468 8.6351825 9.90613697 7.56788735 7.91015625 5.78125 C4.55290783 3.33835535 1.29880761 2.33386875 -2.6796875 1.40234375 C-3.39125 1.23210693 -4.1028125 1.06187012 -4.8359375 0.88647461 C-14.44190994 -1.25098573 -21.95861611 0.65987699 -30.6171875 5.08984375 C-33.11488178 6.74595378 -33.11488178 6.74595378 -35.6171875 9.40234375 C-36.3803125 10.16546875 -37.1434375 10.92859375 -37.9296875 11.71484375 C-38.5896875 11.71484375 -39.2496875 11.71484375 -39.9296875 11.71484375 C-38.21801536 6.57982733 -33.43335828 4.40360242 -28.9296875 1.71484375 C-19.23765568 -3.06859807 -10.11209999 -3.93248333 0 0 Z " fill="#D1EEE2" transform="translate(289.9296875,170.28515625)"/>
<path d="M0 0 C0.99 0 1.98 0 3 0 C3 0.66 3 1.32 3 2 C3.804375 2.268125 4.60875 2.53625 5.4375 2.8125 C6.7059375 3.4003125 6.7059375 3.4003125 8 4 C8.33 4.99 8.66 5.98 9 7 C11.00016466 8.20882096 11.00016466 8.20882096 13 9 C13 10.32 13 11.64 13 13 C11.68 13.33 10.36 13.66 9 14 C8.34 12.68 7.68 11.36 7 10 C5.68 10 4.36 10 3 10 C0.33563684 6.66954606 -0.3619323 4.2225435 0 0 Z " fill="#277D55" transform="translate(275,229)"/>
<path d="M0 0 C7.35426861 5.88341488 9.97533807 14.63642024 11.10473633 23.71655273 C11.74374406 30.93185864 11.49208286 35.5382505 7.0625 41.625 C5.75169075 43.12242532 4.4118406 44.5974275 3 46 C3 42.81023466 3.48791532 41.85909211 4.9375 39.125 C8.4749568 31.39546805 9.0046793 22.34162884 6.80859375 14.1328125 C5.57357606 10.87522961 3.91941605 7.92295001 2.12109375 4.9453125 C1 3 1 3 0 0 Z " fill="#D2F1E5" transform="translate(304,180)"/>
<path d="M0 0 C0.66 0 1.32 0 2 0 C3.41015625 1.43359375 3.41015625 1.43359375 5.0625 3.4375 C8.52645562 7.55916872 12.30411346 11.19590995 16.27734375 14.82421875 C18 17 18 17 18.37890625 19.64453125 C18 22 18 22 16 24 C12.99076694 24.54713328 10.97302296 24.59100471 8.30859375 22.97265625 C4.95952488 20.05936983 3.65110605 17.74573284 3.1875 13.3125 C3.16042969 12.56613281 3.13335937 11.81976563 3.10546875 11.05078125 C3.08115904 8.79833485 3.08115904 8.79833485 2 6 C2.33 5.67 2.66 5.34 3 5 C2.34 4.67 1.68 4.34 1 4 C0.375 1.9375 0.375 1.9375 0 0 Z M5 7 C5.15346252 14.05927607 5.8753205 18.00672254 11 23 C12.65 22.67 14.3 22.34 16 22 C16.33 20.68 16.66 19.36 17 18 C16.01 17.67 15.02 17.34 14 17 C13.31558691 15.6756885 12.65095851 14.34107242 12 13 C10.29622335 11.26557712 10.29622335 11.26557712 8.375 9.75 C7.74335938 9.22921875 7.11171875 8.7084375 6.4609375 8.171875 C5.97882813 7.78515625 5.49671875 7.3984375 5 7 Z " fill="#BFE6D7" transform="translate(247,248)"/>
<path d="M0 0 C8.28770533 0.86560478 8.28770533 0.86560478 12.3125 1.625 C14.93557543 1.99101053 16.52251059 1.85759249 19 1 C20.125 5.75 20.125 5.75 19 8 C19.804375 8.2475 20.60875 8.495 21.4375 8.75 C22.283125 9.1625 23.12875 9.575 24 10 C24.625 12.0625 24.625 12.0625 25 14 C25.99 14.33 26.98 14.66 28 15 C29.62323754 18.75907641 30.23994929 21.92086213 30 26 C28.3994853 23.59922796 27.12110826 21.30468916 25.8125 18.75 C23.54740666 14.58602602 20.89529335 11.63251908 17.35546875 8.5078125 C16 7 16 7 16 4 C15.030625 4.061875 14.06125 4.12375 13.0625 4.1875 C8.38440054 4.21625881 4.32524418 2.64771207 0 1 C0 0.67 0 0.34 0 0 Z " fill="#1F764E" transform="translate(283,168)"/>
<path d="M0 0 C2.125 0.9375 2.125 0.9375 3.125 1.9375 C3.61793424 4.96552463 3.70967623 7.04126619 1.99609375 9.66796875 C-0.65534738 12.58247715 -2.15172455 13.82622685 -6.125 14.4375 C-8.875 13.9375 -8.875 13.9375 -10.875 11.9375 C-10.9486255 8.69797807 -10.50329546 6.69718164 -8.41796875 4.17578125 C-3.86038479 -0.08392141 -3.86038479 -0.08392141 0 0 Z M-2.875 1.9375 C-5.125 3.10416667 -5.125 3.10416667 -6.875 4.9375 C-6.875 5.9275 -6.875 6.9175 -6.875 7.9375 C-7.865 8.4325 -7.865 8.4325 -8.875 8.9375 C-8.545 9.9275 -8.215 10.9175 -7.875 11.9375 C-5.895 11.2775 -3.915 10.6175 -1.875 9.9375 C-1.875 9.2775 -1.875 8.6175 -1.875 7.9375 C-0.555 7.6075 0.765 7.2775 2.125 6.9375 C1.33382096 4.93766466 1.33382096 4.93766466 0.125 2.9375 C-0.865 2.6075 -1.855 2.2775 -2.875 1.9375 Z " fill="#CDEFE2" transform="translate(210.875,225.0625)"/>
<path d="M0 0 C1.14926266 0.95421808 2.29430541 1.91352045 3.4375 2.875 C4.07558594 3.40867188 4.71367187 3.94234375 5.37109375 4.4921875 C7 6 7 6 8 8 C7.01 8.33 6.02 8.66 5 9 C5.66 9.33 6.32 9.66 7 10 C10 16.23076923 10 16.23076923 10 20 C8 19 8 19 6.625 16.5625 C5.25274335 13.91143428 5.25274335 13.91143428 3 13 C0.16319482 11.58159741 -0.62592304 9.81358615 -2 7 C-2.6875 4.1875 -2.6875 4.1875 -3 2 C-2.34 2 -1.68 2 -1 2 C-1 2.99 -1 3.98 -1 5 C-0.01 5 0.98 5 2 5 C1.34 3.35 0.68 1.7 0 0 Z " fill="#5C9B80" transform="translate(283,213)"/>
<path d="M0 0 C4.0384057 -0.0744389 8.07654293 -0.12873729 12.11547852 -0.16479492 C13.48794517 -0.17983432 14.86036414 -0.20027133 16.23266602 -0.22631836 C18.21088656 -0.26291221 20.18946514 -0.27816698 22.16796875 -0.29296875 C23.35672607 -0.3086792 24.5454834 -0.32438965 25.77026367 -0.34057617 C29.31590796 0.03331254 31.17058165 0.87122417 34 3 C34.495 3.99 34.495 3.99 35 5 C30.125 4.125 30.125 4.125 29 3 C26.85613343 2.84141158 24.70733162 2.74870702 22.55859375 2.68359375 C21.25341797 2.64169922 19.94824219 2.59980469 18.60351562 2.55664062 C17.2148467 2.51682392 15.82617478 2.47711175 14.4375 2.4375 C13.04490817 2.39432011 11.65232972 2.350706 10.25976562 2.30664062 C6.83995199 2.20014124 3.42006237 2.09813077 0 2 C0 1.34 0 0.68 0 0 Z " fill="#2B7D58" transform="translate(285,146)"/>
<path d="M0 0 C0.99 0 1.98 0 3 0 C5.35723489 2.53184488 6 3.47190093 6 7 C6.66 7.33 7.32 7.66 8 8 C8 8.66 8 9.32 8 10 C6.02 10.33 4.04 10.66 2 11 C2 11.99 2 12.98 2 14 C1.34 14 0.68 14 0 14 C0 14.66 0 15.32 0 16 C-0.99 15.67 -1.98 15.34 -3 15 C-2.42655063 12.13275314 -2.1385485 11.1385485 0 9 C0.24253813 6.78927023 0.24253813 6.78927023 0.125 4.375 C0.10695312 3.55773437 0.08890625 2.74046875 0.0703125 1.8984375 C0.04710937 1.27195313 0.02390625 0.64546875 0 0 Z " fill="#0E7143" transform="translate(224,234)"/>
<path d="M0 0 C1 3 1 3 0.0625 5 C-0.288125 5.66 -0.63875 6.32 -1 7 C-1 7.99 -1 8.98 -1 10 C9.23 10 19.46 10 30 10 C29.34 7.03 28.68 4.06 28 1 C31.14002815 4.54959704 31.13398634 5.80391802 32 11 C20.12 11 8.24 11 -4 11 C-2.875 3.125 -2.875 3.125 0 0 Z " fill="#D7F8F2" transform="translate(236,135)"/>
<path d="M0 0 C2 2 2 2 2.5625 4.1875 C1.66265363 8.68673183 -1.2464838 11.47517972 -5 14 C-8.4375 13.9375 -8.4375 13.9375 -11 13 C-11.8125 10.375 -11.8125 10.375 -12 7 C-9.05008603 1.8671497 -5.90613921 -0.44296044 0 0 Z M-10 6 C-10.41870553 8.66928121 -10.41870553 8.66928121 -10 11 C-7.65466049 11.76956136 -7.65466049 11.76956136 -5 12 C-3.12359581 10.79081118 -3.12359581 10.79081118 -2 9 C-2 8.34 -2 7.68 -2 7 C-1.34 7 -0.68 7 0 7 C0 5.35 0 3.7 0 2 C-4.63993968 1.46972118 -6.8072686 2.6248268 -10 6 Z " fill="#D8F4E9" transform="translate(223,236)"/>
<path d="M0 0 C4.21752761 1.56204726 6.37399346 4.45134252 9 8 C9.8125 10.375 9.8125 10.375 10 12 C7.625 11.75 7.625 11.75 5 11 C3.6875 8.9375 3.6875 8.9375 3 7 C0.69 7.33 -1.62 7.66 -4 8 C-2.25 2.25 -2.25 2.25 0 0 Z " fill="#137044" transform="translate(259,190)"/>
<path d="M0 0 C2.25 0.5 2.25 0.5 4.25 2.5 C4.8125 4.6875 4.8125 4.6875 4.25 7.5 C1.56768938 11.13166775 -1.07561549 14.12791455 -5.5625 15.125 C-7.75 14.5 -7.75 14.5 -9.75 11.5 C-9.75 7.79868312 -8.41658391 5.82830304 -6 3.1875 C-3.81811152 1.14722448 -3.01285599 0.547792 0 0 Z M-0.75 1.5 C-4.44571734 4.12590443 -6.57782162 6.04572215 -7.75 10.5 C-7.42 11.16 -7.09 11.82 -6.75 12.5 C-3.80272465 12.39830839 -3.80272465 12.39830839 -0.75 11.5 C0.56068333 9.05711372 0.56068333 9.05711372 1.25 6.5 C1.91 6.17 2.57 5.84 3.25 5.5 C1.93 4.18 0.61 2.86 -0.75 1.5 Z " fill="#DFF9F0" transform="translate(241.75,256.5)"/>
<path d="M0 0 C2.15012808 1.54524571 4.03185612 3.21493927 6 5 C5.34 5.66 4.68 6.32 4 7 C3.38511719 6.3503125 3.38511719 6.3503125 2.7578125 5.6875 C2.21898437 5.130625 1.68015625 4.57375 1.125 4 C0.32449219 3.1646875 0.32449219 3.1646875 -0.4921875 2.3125 C-1.91824988 0.78114478 -1.91824988 0.78114478 -4 1 C-3.55530671 6.03985731 -1.28656638 8.37634988 2 12 C-1.875 11.125 -1.875 11.125 -3 10 C-3.99 10 -4.98 10 -6 10 C-6.66 7.69 -7.32 5.38 -8 3 C-8.66 3 -9.32 3 -10 3 C-7.84029183 -1.31941634 -4.21825868 -1.50652096 0 0 Z M-5 7 C-4 9 -4 9 -4 9 Z " fill="#E8F7F1" transform="translate(245,236)"/>
<path d="M0 0 C6.49677419 0.61290323 6.49677419 0.61290323 8.625 2.25 C9.07875 2.8275 9.5325 3.405 10 4 C13.17832859 7.42874244 13.17832859 7.42874244 17 10 C16.67 10.99 16.34 11.98 16 13 C15.55269531 12.61328125 15.10539062 12.2265625 14.64453125 11.828125 C8.69203891 6.37700304 8.69203891 6.37700304 2 2 C2.66 4.64 3.32 7.28 4 10 C3.01 9.67 2.02 9.34 1 9 C1 8.34 1 7.68 1 7 C0.34 7 -0.32 7 -1 7 C-1 6.34 -1 5.68 -1 5 C-1.66 4.67 -2.32 4.34 -3 4 C-2.01 2.68 -1.02 1.36 0 0 Z " fill="#AACCBD" transform="translate(252,226)"/>
<path d="M0 0 C1.2684375 -0.03867188 1.2684375 -0.03867188 2.5625 -0.078125 C5.53411838 0.32190055 6.84638498 1.19252851 9 3.25 C9.33 4.24 9.66 5.23 10 6.25 C9.030625 5.92 8.06125 5.59 7.0625 5.25 C0.48904045 3.38707624 -5.65924525 3.64866472 -12 6.25 C-9.53415301 1.44159836 -9.53415301 1.44159836 -7.203125 0.60546875 C-4.77814139 0.21420366 -2.45658452 0.04493752 0 0 Z " fill="#77AF96" transform="translate(251,126.75)"/>
<path d="M0 0 C0.495 0.99 0.495 0.99 1 2 C0.54625 3.010625 0.0925 4.02125 -0.375 5.0625 C-2.49735319 9.68949588 -2.49735319 9.68949588 -3 18 C-12.9 18 -22.8 18 -33 18 C-33 17.67 -33 17.34 -33 17 C-24.09 17 -15.18 17 -6 17 C-5.01 13.04 -4.02 9.08 -3 5 C-2.01 3.35 -1.02 1.7 0 0 Z " fill="#DAF7F0" transform="translate(218,128)"/>
<path d="M0 0 C0.99 0 1.98 0 3 0 C3.6875 1.75 3.6875 1.75 4 4 C3.00692179 5.33849671 2.00642948 6.67151309 1 8 C0.74875174 10.66761764 0.74875174 10.66761764 1 13 C0.34 13 -0.32 13 -1 13 C-1.33 11.02 -1.66 9.04 -2 7 C-3.11375 6.9175 -4.2275 6.835 -5.375 6.75 C-9 6 -9 6 -10.4375 3.9375 C-10.7159375 2.9784375 -10.7159375 2.9784375 -11 2 C-10.01 2.495 -10.01 2.495 -9 3 C-6.04195427 3.33340471 -6.04195427 3.33340471 -3 3 C-1.31201173 1.56249809 -1.31201173 1.56249809 0 0 Z " fill="#1E754D" transform="translate(211,235)"/>
<path d="M0 0 C1.86785156 0.01353516 1.86785156 0.01353516 3.7734375 0.02734375 C5.18496094 0.04474609 5.18496094 0.04474609 6.625 0.0625 C4.09106302 2.59643698 3.07104868 2.30919864 -0.4375 2.4375 C-5.36097484 2.78640767 -9.02220636 3.89808903 -13.40234375 6.125 C-15.3810254 7.06536356 -17.23837603 7.60362774 -19.375 8.0625 C-18.715 6.7425 -18.055 5.4225 -17.375 4.0625 C-16.055 4.0625 -14.735 4.0625 -13.375 4.0625 C-13.375 3.0725 -13.375 2.0825 -13.375 1.0625 C-8.85684719 0.17972245 -4.59987306 -0.04339503 0 0 Z " fill="#9BC7B4" transform="translate(220.375,167.9375)"/>
<path d="M0 0 C3.17386941 1.40042988 5.28860814 3.05214618 7.71484375 5.51953125 C8.40126953 6.21240234 9.08769531 6.90527344 9.79492188 7.61914062 C10.50197266 8.34294922 11.20902344 9.06675781 11.9375 9.8125 C12.64068359 10.52470703 13.34386719 11.23691406 14.06835938 11.97070312 C15.43345813 13.3537132 16.79477716 14.74046666 18.15185547 16.13134766 C19.73768584 17.73477509 21.36126955 19.27994353 23.00390625 20.82421875 C25 23 25 23 25 26 C21.43645168 22.46109324 17.87614125 18.91897325 14.31884766 15.3737793 C13.10717739 14.16715088 11.89461294 12.96141972 10.68115234 11.7565918 C8.9413478 10.02885937 7.20474035 8.29796998 5.46875 6.56640625 C4.92190552 6.02472305 4.37506104 5.48303986 3.81164551 4.92494202 C2.52197869 3.63546982 1.2580767 2.32031135 0 1 C0 0.67 0 0.34 0 0 Z " fill="#DFF7EC" transform="translate(269,198)"/>
<path d="M0 0 C0.33 0 0.66 0 1 0 C1.50682442 3.01982884 2.00563335 6.04062817 2.5 9.0625 C2.64308594 9.91005859 2.78617187 10.75761719 2.93359375 11.63085938 C3.71600836 16.45574948 4.35389969 21.09596147 4 26 C2 28.4375 2 28.4375 0 30 C0.16749756 29.13036621 0.33499512 28.26073242 0.50756836 27.36474609 C0.97386993 24.1785447 1.03414518 21.37233367 0.87890625 18.1640625 C0.83056641 17.10058594 0.78222656 16.03710938 0.73242188 14.94140625 C0.64831055 13.29978516 0.64831055 13.29978516 0.5625 11.625 C0.48418945 9.94857422 0.48418945 9.94857422 0.40429688 8.23828125 C0.27519184 5.49186508 0.14025096 2.74586578 0 0 Z " fill="#2B7853" transform="translate(335,257)"/>
<path d="M0 0 C3.7952131 1.49097658 5.61042731 3.75700849 8 7 C7.34 7 6.68 7 6 7 C6 7.99 6 8.98 6 10 C6.66 10.33 7.32 10.66 8 11 C4.54334824 11 4.13813201 10.61368545 1.75 8.3125 C0.1640625 6.66796875 0.1640625 6.66796875 -1 5 C-0.875 2.125 -0.875 2.125 0 0 Z " fill="#157045" transform="translate(241,236)"/>
<path d="M0 0 C7.04053059 0.70693852 11.36887196 2.4580785 16.6015625 7.24609375 C18 9 18 9 18 12 C17.195625 11.030625 16.39125 10.06125 15.5625 9.0625 C12.22501271 5.66098418 9.40578217 5.23791001 4.7578125 5.0078125 C3.88769531 5.00394531 3.88769531 5.00394531 3 5 C2.67 4.01 2.34 3.02 2 2 C1.34 2 0.68 2 0 2 C0 1.34 0 0.68 0 0 Z " fill="#76AE95" transform="translate(260,113)"/>
<path d="M0 0 C2 1.375 2 1.375 4 3 C4 3.66 4 4.32 4 5 C4.928125 5.226875 5.85625 5.45375 6.8125 5.6875 C10 7 10 7 11.9375 9.4375 C13 12 13 12 12 15 C11.71125 14.38125 11.4225 13.7625 11.125 13.125 C9.79473178 10.61227114 8.80183585 9.26083817 6.0546875 8.3671875 C5.33539063 8.20476562 4.61609375 8.04234375 3.875 7.875 C1.956875 7.441875 1.956875 7.441875 0 7 C0 4.69 0 2.38 0 0 Z " fill="#5B9B7B" transform="translate(238,245)"/>
<path d="M0 0 C-0.33 0.99 -0.66 1.98 -1 3 C-1.061875 3.61875 -1.12375 4.2375 -1.1875 4.875 C-2.46314515 8.21130269 -5.27727438 9.77736684 -8 12 C-9.37254588 14.14980497 -9.37254588 14.14980497 -10 16 C-10.33 14.35 -10.66 12.7 -11 11 C-10.34 11 -9.68 11 -9 11 C-8.773125 10.113125 -8.54625 9.22625 -8.3125 8.3125 C-6.83745528 4.58976808 -4.48302954 0 0 0 Z " fill="#2A7D57" transform="translate(241,187)"/>
<path d="M0 0 C2 2 2 2 2.23046875 3.91015625 C2.11111111 9.88888889 2.11111111 9.88888889 1 11 C0.87475541 12.78837622 0.82426324 14.58228214 0.8125 16.375 C0.79832031 17.35210937 0.78414062 18.32921875 0.76953125 19.3359375 C0.80458017 22.22787022 0.80458017 22.22787022 3 25 C2.01 25 1.02 25 0 25 C-3.60859921 19.58710119 -1.89783455 13.24421217 -1 7.0625 C-0.90460938 6.37865234 -0.80921875 5.69480469 -0.7109375 4.99023438 C-0.47820863 3.32622293 -0.23971452 1.66301947 0 0 Z " fill="#1E734C" transform="translate(163,261)"/>
<path d="M0 0 C0 3.38023517 -0.87455622 5.83468937 -2 9 C0.1385485 11.1385485 1.13275314 11.42655063 4 12 C4.33 11.01 4.66 10.02 5 9 C6.62332967 7.61423077 8.28724465 6.27358732 10 5 C10.66 5.33 11.32 5.66 12 6 C6.1559633 12.77769936 6.1559633 12.77769936 1.75 13.625 C-1 13 -1 13 -2.875 11.875 C-4.55468045 9.07553259 -4.45742277 7.20195936 -4 4 C-2 1.625 -2 1.625 0 0 Z " fill="#DEF8EE" transform="translate(236,195)"/>
<path d="M0 0 C4.24822374 0.47202486 6.19989709 2.96655518 9 6 C8.67 6.66 8.34 7.32 8 8 C6.35 6.35 4.7 4.7 3 3 C-0.11332248 3.66868314 -0.11332248 3.66868314 -1.1875 6.0625 C-1.455625 6.701875 -1.72375 7.34125 -2 8 C-3.32 8 -4.64 8 -6 8 C-6.66 9.32 -7.32 10.64 -8 12 C-8.66 11.67 -9.32 11.34 -10 11 C-7.43434332 6.72390553 -5.37600515 4.36540819 -1 2 C-0.67 1.34 -0.34 0.68 0 0 Z " fill="#CCEBE2" transform="translate(258,188)"/>
<path d="M0 0 C1.73558484 1.46257149 3.46185364 2.93392162 5.17578125 4.421875 C6.57858364 5.63543424 8.00354151 6.82341867 9.4375 8 C11 10 11 10 11.375 13.125 C11 16 11 16 9 18 C6.375 17.625 6.375 17.625 4 17 C7 15 7 15 9 15 C9.33 13.68 9.66 12.36 10 11 C9.34 11 8.68 11 8 11 C6.30859375 9.35546875 6.30859375 9.35546875 4.4375 7.1875 C3.81746094 6.47980469 3.19742187 5.77210938 2.55859375 5.04296875 C1 3 1 3 0 0 Z " fill="#EDFFF6" transform="translate(264,244)"/>
<path d="M0 0 C4.81690742 1.7746501 6.82641707 3.3423223 9 8 C7.02 7.01 5.04 6.02 3 5 C3 4.34 3 3.68 3 3 C2.01 3 1.02 3 0 3 C0.33 4.98 0.66 6.96 1 9 C-0.9375 8.1875 -0.9375 8.1875 -3 7 C-3.33 6.01 -3.66 5.02 -4 4 C-3.34 4 -2.68 4 -2 4 C-1.67 3.01 -1.34 2.02 -1 1 C-0.67 0.67 -0.34 0.34 0 0 Z " fill="#88BAA3" transform="translate(275,226)"/>
<path d="M0 0 C1.65 0.33 3.3 0.66 5 1 C5.47183746 5.05780213 5.33329645 6.56195324 2.8125 9.875 C0 12 0 12 -2.8125 12.3125 C-3.534375 12.209375 -4.25625 12.10625 -5 12 C-2.83328568 9.72494996 -0.60436769 7.76424908 2 6 C2.66 6 3.32 6 4 6 C2.68 4.02 1.36 2.04 0 0 Z " fill="#E6FBF4" transform="translate(209,226)"/>
<path d="M0 0 C2.375 0.625 2.375 0.625 5 2 C6.3125 5.125 6.3125 5.125 7 8 C5.1875 8.6875 5.1875 8.6875 3 9 C1.25 7.9375 1.25 7.9375 0 6 C-0.1875 2.8125 -0.1875 2.8125 0 0 Z " fill="#19734A" transform="translate(254,228)"/>
<path d="M0 0 C1.4540625 0.0309375 1.4540625 0.0309375 2.9375 0.0625 C3.2675 1.3825 3.5975 2.7025 3.9375 4.0625 C-1.8125 6.0625 -1.8125 6.0625 -4.0625 6.0625 C-4.105221 4.39638095 -4.10313832 2.72867115 -4.0625 1.0625 C-3.0625 0.0625 -3.0625 0.0625 0 0 Z " fill="#156E46" transform="translate(210.0625,219.9375)"/>
<path d="M0 0 C0.33 0.99 0.66 1.98 1 3 C0.505 2.835 0.01 2.67 -0.5 2.5 C-6.8876181 1.21076893 -6.8876181 1.21076893 -12.8515625 3.1171875 C-14.69787655 4.62513126 -14.69787655 4.62513126 -17 7 C-17 4 -17 4 -14.6875 1.25 C-10.27029914 -2.31569226 -5.2328574 -0.94042455 0 0 Z " fill="#DDF6EE" transform="translate(216,219)"/>
<path d="M0 0 C0.33 0 0.66 0 1 0 C1.93264661 6.17878377 0.7192281 8.93844485 -3 14 C-4.31543279 15.68083079 -5.64316249 17.3524116 -7 19 C-7 15.76344816 -6.3449153 14.21247361 -5 11.3125 C-4.62875 10.50425781 -4.2575 9.69601563 -3.875 8.86328125 C-3.58625 8.24839844 -3.2975 7.63351563 -3 7 C-2.34 7 -1.68 7 -1 7 C-0.67 4.69 -0.34 2.38 0 0 Z " fill="#80B49E" transform="translate(314,207)"/>
<path d="M0 0 C4.49797113 1.68673918 8.72886302 3.81673892 13 6 C10 8 10 8 6.5 7.375 C2.96875135 5.98772375 1.74601886 5.28662375 0 2 C0 1.34 0 0.68 0 0 Z " fill="#0A7142" transform="translate(229,204)"/>
<path d="M0 0 C-0.83144531 0.39832031 -1.66289062 0.79664063 -2.51953125 1.20703125 C-3.60621094 1.73683594 -4.69289063 2.26664063 -5.8125 2.8125 C-7.43091797 3.59560547 -7.43091797 3.59560547 -9.08203125 4.39453125 C-11.95840283 5.80056685 -11.95840283 5.80056685 -13.69921875 7.69921875 C-14.12847656 8.12847656 -14.55773437 8.55773437 -15 9 C-15.99 9 -16.98 9 -18 9 C-18 8.34 -18 7.68 -18 7 C-17.01 7 -16.02 7 -15 7 C-15 6.34 -15 5.68 -15 5 C-14.34 5 -13.68 5 -13 5 C-13 4.34 -13 3.68 -13 3 C-12.01 3 -11.02 3 -10 3 C-10 2.01 -10 1.02 -10 0 C-6.26432828 -0.76411467 -3.65188082 -1.07174763 0 0 Z " fill="#257550" transform="translate(268,170)"/>
<path d="M0 0 C3.91841827 1.30613942 6.32640809 2.83129848 9 6 C9 6.66 9 7.32 9 8 C9.99 8.33 10.98 8.66 12 9 C12.66 9.33 13.32 9.66 14 10 C13.67 10.99 13.34 11.98 13 13 C11.02 12.34 9.04 11.68 7 11 C7.33 9.68 7.66 8.36 8 7 C7.4225 6.773125 6.845 6.54625 6.25 6.3125 C3.4336339 4.66961977 1.91922886 2.60466773 0 0 Z " fill="#B6DACB" transform="translate(250,243)"/>
<path d="M0 0 C4.875 0.875 4.875 0.875 6 2 C6.30867281 5.47256915 6.38701339 7.3872288 4.5 10.375 C4.005 10.91125 3.51 11.4475 3 12 C2.34 11.67 1.68 11.34 1 11 C1.309375 10.401875 1.61875 9.80375 1.9375 9.1875 C3.10209704 6.91043228 3.10209704 6.91043228 4 4 C1.03 3.505 1.03 3.505 -2 3 C-1.34 2.01 -0.68 1.02 0 0 Z " fill="#DBF5ED" transform="translate(229,246)"/>
<path d="M0 0 C2.70931419 0.15481795 4.46584039 0.48172081 6.4453125 2.40234375 C7.67679642 3.89771708 8.8429837 5.4462924 10 7 C9.4225 6.835 8.845 6.67 8.25 6.5 C5.73335631 5.85537969 5.73335631 5.85537969 2 6 C1.34 4.02 0.68 2.04 0 0 Z " fill="#156F44" transform="translate(269,202)"/>
<path d="M0 0 C0.99 0.33 1.98 0.66 3 1 C3.16435547 1.99580078 3.16435547 1.99580078 3.33203125 3.01171875 C4.21136023 7.90879478 4.99451714 11.90161428 8 16 C5.53199953 14.84826645 3.95216435 13.95216435 2 12 C1.62109375 9.94140625 1.62109375 9.94140625 1.4375 7.5625 C1.21152113 4.76312913 0.89846989 2.69540966 0 0 Z " fill="#D8F3E9" transform="translate(249,254)"/>
<path d="M0 0 C0.99 0 1.98 0 3 0 C3 1.32 3 2.64 3 4 C3.639375 4.12375 4.27875 4.2475 4.9375 4.375 C5.618125 4.58125 6.29875 4.7875 7 5 C7.33 5.66 7.66 6.32 8 7 C4.62182575 7.84454356 2.32534757 8.10844919 -1 7 C-0.67 4.69 -0.34 2.38 0 0 Z " fill="#077241" transform="translate(216,227)"/>
<path d="M0 0 C1 3 1 3 1 5 C1.66 5.33 2.32 5.66 3 6 C3.33 6.33 3.66 6.66 4 7 C4.66 7.33 5.32 7.66 6 8 C5 9 5 9 2.0625 9.25 C1.051875 9.1675 0.04125 9.085 -1 9 C-3 6 -3 6 -2.75 3.9375 C-2 2 -2 2 0 0 Z " fill="#DFF5EE" transform="translate(224,251)"/>
<path d="M0 0 C0.66 0 1.32 0 2 0 C2.625 2.3125 2.625 2.3125 3 5 C2.01 6.485 2.01 6.485 1 8 C-2.97475764 8.61829563 -4.5419102 8.31867116 -7.875 6 C-8.57625 5.34 -9.2775 4.68 -10 4 C-9.67 3.34 -9.34 2.68 -9 2 C-6 3 -6 3 -4 6 C-2.68 6 -1.36 6 0 6 C0 5.01 0 4.02 0 3 C0 2.01 0 1.02 0 0 Z " fill="#D6F1E7" transform="translate(294,232)"/>
<path d="M0 0 C0.33 0.99 0.66 1.98 1 3 C1.721875 3.061875 2.44375 3.12375 3.1875 3.1875 C6.84657625 4.24456647 8.49211602 6.20550071 11 9 C10.67 9.66 10.34 10.32 10 11 C9.7525 10.360625 9.505 9.72125 9.25 9.0625 C8.21059622 6.84540342 8.21059622 6.84540342 6.125 6.375 C5.42375 6.25125 4.7225 6.1275 4 6 C2.6520257 5.36345658 1.31403276 4.70394612 0 4 C0 2.68 0 1.36 0 0 Z M1 7 C2.32 7 3.64 7 5 7 C5.33 8.32 5.66 9.64 6 11 C5.34 10.67 4.68 10.34 4 10 C4 9.34 4 8.68 4 8 C3.01 7.67 2.02 7.34 1 7 Z " fill="#36805E" transform="translate(219,227)"/>
<path d="M0 0 C2.3125 0.1875 2.3125 0.1875 5 1 C6.03789581 2.64333504 7.03567924 4.31243867 8 6 C10.56610666 7.80796103 10.56610666 7.80796103 13 9 C12.67 9.99 12.34 10.98 12 12 C11.55269531 11.61328125 11.10539062 11.2265625 10.64453125 10.828125 C10.03996094 10.30734375 9.43539063 9.7865625 8.8125 9.25 C8.17828125 8.7034375 7.5440625 8.156875 6.890625 7.59375 C5.31779514 6.26789342 3.69559234 5.00087924 2.0625 3.75 C1.381875 3.1725 0.70125 2.595 0 2 C0 1.34 0 0.68 0 0 Z " fill="#EDFCF8" transform="translate(256,227)"/>
<path d="M0 0 C0.95412881 2.57614778 1.01981848 3.91676239 0.375 6.625 C-1 9 -1 9 -3.25 10.3125 C-6.26577013 11.06644253 -8.90311028 11.14404138 -12 11 C-12 10.67 -12 10.34 -12 10 C-11.113125 9.773125 -10.22625 9.54625 -9.3125 9.3125 C-5.51769499 7.80889801 -3.63349146 6.08494714 -1 3 C-0.67 2.01 -0.34 1.02 0 0 Z " fill="#2A7752" transform="translate(246,261)"/>
<path d="M0 0 C1.9375 0.6875 1.9375 0.6875 4 2 C4.75 4.625 4.75 4.625 5 7 C3.35 6.01 1.7 5.02 0 4 C-1.32 4.99 -2.64 5.98 -4 7 C-4.66 6.67 -5.32 6.34 -6 6 C-4.02 4.02 -2.04 2.04 0 0 Z " fill="#A1CCB9" transform="translate(260,196)"/>
<path d="M0 0 C0.99 0 1.98 0 3 0 C3.8125 1.6875 3.8125 1.6875 4 4 C1.8386373 6.51185394 -0.01962439 8.50981219 -3 10 C-3.33 9.01 -3.66 8.02 -4 7 C-3.34 6.67 -2.68 6.34 -2 6 C-2 5.01 -2 4.02 -2 3 C-1.01 2.67 -0.02 2.34 1 2 C0.67 1.34 0.34 0.68 0 0 Z " fill="#5CA083" transform="translate(242,183)"/>
<path d="M0 0 C2.13586678 3.20380017 2.23132175 4.01939967 2.125 7.6875 C2.10695313 8.49574219 2.08890625 9.30398437 2.0703125 10.13671875 C2.03550781 11.05904297 2.03550781 11.05904297 2 12 C0.68 11.34 -0.64 10.68 -2 10 C-1.125 2.25 -1.125 2.25 0 0 Z " fill="#207851" transform="translate(283,134)"/>
<path d="M0 0 C-0.99 1.485 -0.99 1.485 -2 3 C-2.66 2.34 -3.32 1.68 -4 1 C-4.99 1 -5.98 1 -7 1 C-7 2.65 -7 4.3 -7 6 C-7.66 6 -8.32 6 -9 6 C-9.66 4.68 -10.32 3.36 -11 2 C-7.61000833 -3.0849875 -5.18660142 -1.95938276 0 0 Z " fill="#C3DDD4" transform="translate(271,217)"/>
<path d="M0 0 C2.475 0.495 2.475 0.495 5 1 C5.33 2.65 5.66 4.3 6 6 C4.68 6.33 3.36 6.66 2 7 C0.5393715 4.35261084 0 3.10551666 0 0 Z " fill="#197449" transform="translate(263,238)"/>
<path d="M0 0 C0.66 0 1.32 0 2 0 C2 1.98 2 3.96 2 6 C2.66 6 3.32 6 4 6 C4 6.66 4 7.32 4 8 C3.34 8 2.68 8 2 8 C2 8.99 2 9.98 2 11 C1.01 11 0.02 11 -1 11 C-0.67 7.37 -0.34 3.74 0 0 Z " fill="#087241" transform="translate(236,246)"/>
<path d="M0 0 C-0.99 0.495 -0.99 0.495 -2 1 C-2 1.66 -2 2.32 -2 3 C-3.65 3.33 -5.3 3.66 -7 4 C-7 5.65 -7 7.3 -7 9 C-7.66 8.67 -8.32 8.34 -9 8 C-8.64005447 5.3364031 -8.28838998 3.41816548 -6.75 1.1875 C-4.41988723 -0.39364795 -2.75498245 -0.22337696 0 0 Z " fill="#20734D" transform="translate(188,147)"/>
<path d="M0 0 C2.37363451 1.18681726 3.76749085 2.67059253 5.625 4.5625 C6.25664062 5.20316406 6.88828125 5.84382812 7.5390625 6.50390625 C8.26222656 7.24447266 8.26222656 7.24447266 9 8 C7 9 7 9 4.5 8.3125 C1.66170342 6.8223943 0.99807174 5.99421523 0 3 C0 2.01 0 1.02 0 0 Z " fill="#08713D" transform="translate(247,243)"/>
<path d="M0 0 C0.33 1.32 0.66 2.64 1 4 C-0.32 4.99 -1.64 5.98 -3 7 C-3.99 5.68 -4.98 4.36 -6 3 C-3.375 0 -3.375 0 0 0 Z " fill="#156E45" transform="translate(214,235)"/>
<path d="M0 0 C0.66 0.33 1.32 0.66 2 1 C2.99 1.33 3.98 1.66 5 2 C6.32 2.66 7.64 3.32 9 4 C6.03 4.66 3.06 5.32 0 6 C0 5.01 0 4.02 0 3 C-0.66 2.67 -1.32 2.34 -2 2 C-1.34 1.34 -0.68 0.68 0 0 Z " fill="#1E744B" transform="translate(214,232)"/>
<path d="M0 0 C0 0.99 0 1.98 0 3 C-1.53125 4.38671875 -1.53125 4.38671875 -3.5 5.6875 C-4.47453125 6.34298828 -4.47453125 6.34298828 -5.46875 7.01171875 C-5.9740625 7.33785156 -6.479375 7.66398438 -7 8 C-7.66 6.68 -8.32 5.36 -9 4 C-6.01353231 2.00902154 -3.40312738 1.05875074 0 0 Z " fill="#7EB69D" transform="translate(253,203)"/>
<path d="M0 0 C0.66 0.33 1.32 0.66 2 1 C0.02 4.96 -1.96 8.92 -4 13 C-4.82810826 9.68756695 -5.09278428 7.34023421 -5 4 C-4.01 4 -3.02 4 -2 4 C-1.34 2.68 -0.68 1.36 0 0 Z " fill="#247551" transform="translate(192,182)"/>
<path d="M0 0 C4.8 2.46153846 4.8 2.46153846 5.8125 5.1875 C5.874375 5.785625 5.93625 6.38375 6 7 C4.35 6.67 2.7 6.34 1 6 C0.67 4.02 0.34 2.04 0 0 Z " fill="#0A733E" transform="translate(263,195)"/>
<path d="M0 0 C1.32 0.99 2.64 1.98 4 3 C4 2.34 4 1.68 4 1 C4.99 1.33 5.98 1.66 7 2 C7 2.66 7 3.32 7 4 C5.02 4.99 3.04 5.98 1 7 C0.34 5.02 -0.32 3.04 -1 1 C-0.67 0.67 -0.34 0.34 0 0 Z " fill="#438B68" transform="translate(220,247)"/>
<path d="M0 0 C3.16115776 1.36983503 3.9927092 1.9890638 6 5 C4.68 4.67 3.36 4.34 2 4 C1.67 4.99 1.34 5.98 1 7 C0.34 6.34 -0.32 5.68 -1 5 C-0.625 2.375 -0.625 2.375 0 0 Z " fill="#25704D" transform="translate(241,236)"/>
<path d="M0 0 C-1 3 -1 3 -2 5 C-2.66 5 -3.32 5 -4 5 C-4.66 3.35 -5.32 1.7 -6 0 C-3.50907189 -1.24546405 -2.58919267 -0.7767578 0 0 Z " fill="#1A7248" transform="translate(275,225)"/>
<path d="M0 0 C1.32 0 2.64 0 4 0 C4.33 2.31 4.66 4.62 5 7 C3.68 6.67 2.36 6.34 1 6 C0.67 4.02 0.34 2.04 0 0 Z " fill="#1B714A" transform="translate(263,217)"/>
<path d="M0 0 C1.11375 0.185625 1.11375 0.185625 2.25 0.375 C1.92 1.365 1.59 2.355 1.25 3.375 C-0.07 3.375 -1.39 3.375 -2.75 3.375 C-3.41 4.695 -4.07 6.015 -4.75 7.375 C-5.41 7.045 -6.07 6.715 -6.75 6.375 C-3.42692308 0.46730769 -3.42692308 0.46730769 0 0 Z " fill="#94C2B0" transform="translate(254.75,192.625)"/>
<path d="M0 0 C1.32 0 2.64 0 4 0 C5.625 2.3125 5.625 2.3125 7 5 C7.99 6.485 7.99 6.485 9 8 C5.56247993 6.4722133 2.81046312 4.49818944 0 2 C0 1.34 0 0.68 0 0 Z " fill="#ACD3C4" transform="translate(295,172)"/>
<path d="M0 0 C1.14926266 0.95421808 2.29430541 1.91352045 3.4375 2.875 C4.07558594 3.40867188 4.71367187 3.94234375 5.37109375 4.4921875 C7 6 7 6 8 8 C5.13275314 7.42655063 4.1385485 7.1385485 2 5 C1.67 4.34 1.34 3.68 1 3 C0.34 2.67 -0.32 2.34 -1 2 C-0.67 1.34 -0.34 0.68 0 0 Z " fill="#F0FFF8" transform="translate(256,236)"/>
<path d="M0 0 C0.66 0 1.32 0 2 0 C1.67 1.65 1.34 3.3 1 5 C0.34 5 -0.32 5 -1 5 C-0.67 6.65 -0.34 8.3 0 10 C-0.66 9.67 -1.32 9.34 -2 9 C-2.25 3.375 -2.25 3.375 0 0 Z " fill="#0C6F43" transform="translate(231,193)"/>
<path d="M0 0 C0.268125 0.639375 0.53625 1.27875 0.8125 1.9375 C1.88667752 4.33131686 1.88667752 4.33131686 5 5 C5 5.66 5 6.32 5 7 C3.35 7 1.7 7 0 7 C-0.38133299 5.0085944 -0.71325582 3.00720923 -1 1 C-0.67 0.67 -0.34 0.34 0 0 Z " fill="#E4FCF6" transform="translate(212,242)"/>
<path d="M0 0 C2.79828356 0.38597015 3.8205884 0.80136573 5.75 2.9375 C7 5 7 5 7 7 C5.125 6.6875 5.125 6.6875 3 6 C1 3 1 3 0 0 Z " fill="#087241" transform="translate(287,220)"/>
<path d="M0 0 C0.33 0 0.66 0 1 0 C1.125 2.875 1.125 2.875 1 6 C0.34 6.66 -0.32 7.32 -1 8 C-3.625 7.625 -3.625 7.625 -6 7 C-3 5 -3 5 -1 5 C-0.67 3.35 -0.34 1.7 0 0 Z " fill="#CDF0E5" transform="translate(274,254)"/>
<path d="M0 0 C0.66 0 1.32 0 2 0 C1.67 0.99 1.34 1.98 1 3 C-5.75 4 -5.75 4 -8 4 C-8 3.34 -8 2.68 -8 2 C-6.865625 1.855625 -5.73125 1.71125 -4.5625 1.5625 C-1.19222799 1.38828522 -1.19222799 1.38828522 0 0 Z " fill="#2B7E57" transform="translate(230,258)"/>
<path d="M0 0 C0.66 0 1.32 0 2 0 C1.34 1.32 0.68 2.64 0 4 C-1.32 4 -2.64 4 -4 4 C-4.66 3.01 -5.32 2.02 -6 1 C-3.525 1.495 -3.525 1.495 -1 2 C-0.67 1.34 -0.34 0.68 0 0 Z " fill="#E4FBF5" transform="translate(304,226)"/>
<path d="M0 0 C2.475 0.495 2.475 0.495 5 1 C5.66 2.98 6.32 4.96 7 7 C1.125 3.375 1.125 3.375 0 0 Z " fill="#9BC7B2" transform="translate(264,223)"/>
<path d="M0 0 C2.97 0.495 2.97 0.495 6 1 C6.33 2.98 6.66 4.96 7 7 C6.34 7 5.68 7 5 7 C4.87625 6.071875 4.87625 6.071875 4.75 5.125 C4.18741541 2.81562433 4.18741541 2.81562433 1.9375 1.75 C1.298125 1.5025 0.65875 1.255 0 1 C0 0.67 0 0.34 0 0 Z " fill="#438E6B" transform="translate(261,133)"/>
<path d="M0 0 C0.33 0.66 0.66 1.32 1 2 C-0.39796892 4.79593783 -2.13474989 4.95173777 -5 6 C-5.99 6.495 -5.99 6.495 -7 7 C-5.54744301 3.17053157 -3.57104439 1.87949705 0 0 Z " fill="#1E734B" transform="translate(233,115)"/>
<path d="M0 0 C0.33 0 0.66 0 1 0 C1.28875 1.093125 1.5775 2.18625 1.875 3.3125 C2.81893204 7.04013845 2.81893204 7.04013845 5 10 C4.01 10 3.02 10 2 10 C-0.4294516 6.3558226 -0.16179575 4.28758728 0 0 Z " fill="#347657" transform="translate(161,276)"/>
<path d="M0 0 C1.32 0.66 2.64 1.32 4 2 C3.01 2.33 2.02 2.66 1 3 C0.01 4.485 0.01 4.485 -1 6 C-3 5 -3 5 -4 3 C-2.68 2.01 -1.36 1.02 0 0 Z " fill="#237C52" transform="translate(305,228)"/>
<path d="M0 0 C2.5 2.3125 2.5 2.3125 5 5 C5 5.99 5 6.98 5 8 C4.34 8 3.68 8 3 8 C0 2.25 0 2.25 0 0 Z " fill="#F7FEFB" transform="translate(216,219)"/>
<path d="M0 0 C2 1 2 1 2 1 Z " fill="#FFFFFF" transform="translate(289,235)"/>
<path d="M0 0 C2 1 2 1 2 1 Z " fill="#FFFFFF" transform="translate(237,205)"/>
<path d="" fill="#FFFFFF" transform="translate(0,0)"/>
<path d="" fill="#FFFFFF" transform="translate(0,0)"/>
<path d="" fill="#FFFFFF" transform="translate(0,0)"/>
<path d="" fill="#FFFFFF" transform="translate(0,0)"/>
<path d="" fill="#FFFFFF" transform="translate(0,0)"/>
<path d="" fill="#FFFFFF" transform="translate(0,0)"/>
<path d="" fill="#FFFFFF" transform="translate(0,0)"/>
<path d="" fill="#FFFFFF" transform="translate(0,0)"/>
<path d="" fill="#FFFFFF" transform="translate(0,0)"/>
<path d="" fill="#FFFFFF" transform="translate(0,0)"/>
<path d="" fill="#FFFFFF" transform="translate(0,0)"/>
<path d="" fill="#FFFFFF" transform="translate(0,0)"/>
<path d="" fill="#E8E8E8" transform="translate(0,0)"/>
<path d="" fill="#FFFFFF" transform="translate(0,0)"/>
<path d="" fill="#FFFFFF" transform="translate(0,0)"/>
<path d="" fill="#FFFFFF" transform="translate(0,0)"/>
<path d="" fill="#FFFFFF" transform="translate(0,0)"/>
<path d="" fill="#FFFFFF" transform="translate(0,0)"/>
<path d="" fill="#FFFFFF" transform="translate(0,0)"/>
<path d="" fill="#FFFFFF" transform="translate(0,0)"/>
<path d="" fill="#FFFFFF" transform="translate(0,0)"/>
<path d="" fill="#E8E8E8" transform="translate(0,0)"/>
<path d="" fill="#FFFFFF" transform="translate(0,0)"/>
<path d="" fill="#FFFFFF" transform="translate(0,0)"/>
<path d="" fill="#FFFFFF" transform="translate(0,0)"/>
<path d="" fill="#FFFFFF" transform="translate(0,0)"/>
<path d="" fill="#FFFFFF" transform="translate(0,0)"/>
<path d="" fill="#FFFFFF" transform="translate(0,0)"/>
<path d="" fill="#FFFFFF" transform="translate(0,0)"/>
<path d="" fill="#FFFFFF" transform="translate(0,0)"/>
<path d="" fill="#FFFFFF" transform="translate(0,0)"/>
<path d="" fill="#FFFFFF" transform="translate(0,0)"/>
<path d="" fill="#FFFFFF" transform="translate(0,0)"/>
<path d="" fill="#FFFFFF" transform="translate(0,0)"/>
<path d="" fill="#FFFFFF" transform="translate(0,0)"/>
<path d="" fill="#FFFFFF" transform="translate(0,0)"/>
<path d="" fill="#FFFFFF" transform="translate(0,0)"/>
<path d="" fill="#FFFFFF" transform="translate(0,0)"/>
<path d="" fill="#FFE6E6" transform="translate(0,0)"/>
<path d="" fill="#FFFFFF" transform="translate(0,0)"/>
<path d="" fill="#FFFFFF" transform="translate(0,0)"/>
<path d="" fill="#FFFFFF" transform="translate(0,0)"/>
<path d="" fill="#FFFFFF" transform="translate(0,0)"/>
<path d="" fill="#FFFFFF" transform="translate(0,0)"/>
<path d="" fill="#FFFFFF" transform="translate(0,0)"/>
<path d="" fill="#EAEAFF" transform="translate(0,0)"/>
<path d="" fill="#FFFFFF" transform="translate(0,0)"/>
<path d="" fill="#FFFFFF" transform="translate(0,0)"/>
<path d="" fill="#FFFFFF" transform="translate(0,0)"/>
<path d="" fill="#FFFFFF" transform="translate(0,0)"/>
<path d="" fill="#FFFFFF" transform="translate(0,0)"/>
<path d="" fill="#FFFFFF" transform="translate(0,0)"/>
<path d="" fill="#FFFFFF" transform="translate(0,0)"/>
<path d="" fill="#FFFFFF" transform="translate(0,0)"/>
<path d="" fill="#FFFFFF" transform="translate(0,0)"/>
<path d="" fill="#FFFFFF" transform="translate(0,0)"/>
<path d="" fill="#FFFFFF" transform="translate(0,0)"/>
<path d="" fill="#FFFFFF" transform="translate(0,0)"/>
<path d="" fill="#FFFFFF" transform="translate(0,0)"/>
<path d="" fill="#FFFFFF" transform="translate(0,0)"/>
<path d="" fill="#FFFFFF" transform="translate(0,0)"/>
<path d="" fill="#FFFFFF" transform="translate(0,0)"/>
<path d="" fill="#FFFFFF" transform="translate(0,0)"/>
<path d="" fill="#FFFFFF" transform="translate(0,0)"/>
<path d="" fill="#FFFFFF" transform="translate(0,0)"/>
<path d="" fill="#FFFFFF" transform="translate(0,0)"/>
<path d="" fill="#FFFFFF" transform="translate(0,0)"/>
<path d="" fill="#FFFFFF" transform="translate(0,0)"/>
</svg>
